G75*
%MOIN*%
%OFA0B0*%
%FSLAX25Y25*%
%IPPOS*%
%LPD*%
%AMOC8*
5,1,8,0,0,1.08239X$1,22.5*
%
%ADD10C,0.00800*%
%ADD11C,0.00400*%
%ADD12C,0.00600*%
%ADD13C,0.00250*%
%ADD14C,0.00984*%
D10*
X0062526Y0070165D02*
X0062528Y0070323D01*
X0062534Y0070481D01*
X0062544Y0070639D01*
X0062558Y0070797D01*
X0062576Y0070954D01*
X0062597Y0071111D01*
X0062623Y0071267D01*
X0062653Y0071423D01*
X0062686Y0071578D01*
X0062724Y0071731D01*
X0062765Y0071884D01*
X0062810Y0072036D01*
X0062859Y0072187D01*
X0062912Y0072336D01*
X0062968Y0072484D01*
X0063028Y0072630D01*
X0063092Y0072775D01*
X0063160Y0072918D01*
X0063231Y0073060D01*
X0063305Y0073200D01*
X0063383Y0073337D01*
X0063465Y0073473D01*
X0063549Y0073607D01*
X0063638Y0073738D01*
X0063729Y0073867D01*
X0063824Y0073994D01*
X0063921Y0074119D01*
X0064022Y0074241D01*
X0064126Y0074360D01*
X0064233Y0074477D01*
X0064343Y0074591D01*
X0064456Y0074702D01*
X0064571Y0074811D01*
X0064689Y0074916D01*
X0064810Y0075018D01*
X0064933Y0075118D01*
X0065059Y0075214D01*
X0065187Y0075307D01*
X0065317Y0075397D01*
X0065450Y0075483D01*
X0065585Y0075567D01*
X0065721Y0075646D01*
X0065860Y0075723D01*
X0066001Y0075795D01*
X0066143Y0075865D01*
X0066287Y0075930D01*
X0066433Y0075992D01*
X0066580Y0076050D01*
X0066729Y0076105D01*
X0066879Y0076156D01*
X0067030Y0076203D01*
X0067182Y0076246D01*
X0067335Y0076285D01*
X0067490Y0076321D01*
X0067645Y0076352D01*
X0067801Y0076380D01*
X0067957Y0076404D01*
X0068114Y0076424D01*
X0068272Y0076440D01*
X0068429Y0076452D01*
X0068588Y0076460D01*
X0068746Y0076464D01*
X0068904Y0076464D01*
X0069062Y0076460D01*
X0069221Y0076452D01*
X0069378Y0076440D01*
X0069536Y0076424D01*
X0069693Y0076404D01*
X0069849Y0076380D01*
X0070005Y0076352D01*
X0070160Y0076321D01*
X0070315Y0076285D01*
X0070468Y0076246D01*
X0070620Y0076203D01*
X0070771Y0076156D01*
X0070921Y0076105D01*
X0071070Y0076050D01*
X0071217Y0075992D01*
X0071363Y0075930D01*
X0071507Y0075865D01*
X0071649Y0075795D01*
X0071790Y0075723D01*
X0071929Y0075646D01*
X0072065Y0075567D01*
X0072200Y0075483D01*
X0072333Y0075397D01*
X0072463Y0075307D01*
X0072591Y0075214D01*
X0072717Y0075118D01*
X0072840Y0075018D01*
X0072961Y0074916D01*
X0073079Y0074811D01*
X0073194Y0074702D01*
X0073307Y0074591D01*
X0073417Y0074477D01*
X0073524Y0074360D01*
X0073628Y0074241D01*
X0073729Y0074119D01*
X0073826Y0073994D01*
X0073921Y0073867D01*
X0074012Y0073738D01*
X0074101Y0073607D01*
X0074185Y0073473D01*
X0074267Y0073337D01*
X0074345Y0073200D01*
X0074419Y0073060D01*
X0074490Y0072918D01*
X0074558Y0072775D01*
X0074622Y0072630D01*
X0074682Y0072484D01*
X0074738Y0072336D01*
X0074791Y0072187D01*
X0074840Y0072036D01*
X0074885Y0071884D01*
X0074926Y0071731D01*
X0074964Y0071578D01*
X0074997Y0071423D01*
X0075027Y0071267D01*
X0075053Y0071111D01*
X0075074Y0070954D01*
X0075092Y0070797D01*
X0075106Y0070639D01*
X0075116Y0070481D01*
X0075122Y0070323D01*
X0075124Y0070165D01*
X0075122Y0070007D01*
X0075116Y0069849D01*
X0075106Y0069691D01*
X0075092Y0069533D01*
X0075074Y0069376D01*
X0075053Y0069219D01*
X0075027Y0069063D01*
X0074997Y0068907D01*
X0074964Y0068752D01*
X0074926Y0068599D01*
X0074885Y0068446D01*
X0074840Y0068294D01*
X0074791Y0068143D01*
X0074738Y0067994D01*
X0074682Y0067846D01*
X0074622Y0067700D01*
X0074558Y0067555D01*
X0074490Y0067412D01*
X0074419Y0067270D01*
X0074345Y0067130D01*
X0074267Y0066993D01*
X0074185Y0066857D01*
X0074101Y0066723D01*
X0074012Y0066592D01*
X0073921Y0066463D01*
X0073826Y0066336D01*
X0073729Y0066211D01*
X0073628Y0066089D01*
X0073524Y0065970D01*
X0073417Y0065853D01*
X0073307Y0065739D01*
X0073194Y0065628D01*
X0073079Y0065519D01*
X0072961Y0065414D01*
X0072840Y0065312D01*
X0072717Y0065212D01*
X0072591Y0065116D01*
X0072463Y0065023D01*
X0072333Y0064933D01*
X0072200Y0064847D01*
X0072065Y0064763D01*
X0071929Y0064684D01*
X0071790Y0064607D01*
X0071649Y0064535D01*
X0071507Y0064465D01*
X0071363Y0064400D01*
X0071217Y0064338D01*
X0071070Y0064280D01*
X0070921Y0064225D01*
X0070771Y0064174D01*
X0070620Y0064127D01*
X0070468Y0064084D01*
X0070315Y0064045D01*
X0070160Y0064009D01*
X0070005Y0063978D01*
X0069849Y0063950D01*
X0069693Y0063926D01*
X0069536Y0063906D01*
X0069378Y0063890D01*
X0069221Y0063878D01*
X0069062Y0063870D01*
X0068904Y0063866D01*
X0068746Y0063866D01*
X0068588Y0063870D01*
X0068429Y0063878D01*
X0068272Y0063890D01*
X0068114Y0063906D01*
X0067957Y0063926D01*
X0067801Y0063950D01*
X0067645Y0063978D01*
X0067490Y0064009D01*
X0067335Y0064045D01*
X0067182Y0064084D01*
X0067030Y0064127D01*
X0066879Y0064174D01*
X0066729Y0064225D01*
X0066580Y0064280D01*
X0066433Y0064338D01*
X0066287Y0064400D01*
X0066143Y0064465D01*
X0066001Y0064535D01*
X0065860Y0064607D01*
X0065721Y0064684D01*
X0065585Y0064763D01*
X0065450Y0064847D01*
X0065317Y0064933D01*
X0065187Y0065023D01*
X0065059Y0065116D01*
X0064933Y0065212D01*
X0064810Y0065312D01*
X0064689Y0065414D01*
X0064571Y0065519D01*
X0064456Y0065628D01*
X0064343Y0065739D01*
X0064233Y0065853D01*
X0064126Y0065970D01*
X0064022Y0066089D01*
X0063921Y0066211D01*
X0063824Y0066336D01*
X0063729Y0066463D01*
X0063638Y0066592D01*
X0063549Y0066723D01*
X0063465Y0066857D01*
X0063383Y0066993D01*
X0063305Y0067130D01*
X0063231Y0067270D01*
X0063160Y0067412D01*
X0063092Y0067555D01*
X0063028Y0067700D01*
X0062968Y0067846D01*
X0062912Y0067994D01*
X0062859Y0068143D01*
X0062810Y0068294D01*
X0062765Y0068446D01*
X0062724Y0068599D01*
X0062686Y0068752D01*
X0062653Y0068907D01*
X0062623Y0069063D01*
X0062597Y0069219D01*
X0062576Y0069376D01*
X0062558Y0069533D01*
X0062544Y0069691D01*
X0062534Y0069849D01*
X0062528Y0070007D01*
X0062526Y0070165D01*
X0127439Y0077435D02*
X0151061Y0077435D01*
X0151061Y0091215D01*
X0127439Y0091215D01*
X0127439Y0077435D01*
X0133640Y0081628D02*
X0133640Y0087022D01*
X0144860Y0087022D01*
X0144860Y0081628D01*
X0133640Y0081628D01*
X0191701Y0070180D02*
X0191703Y0070338D01*
X0191709Y0070496D01*
X0191719Y0070654D01*
X0191733Y0070812D01*
X0191751Y0070969D01*
X0191772Y0071126D01*
X0191798Y0071282D01*
X0191828Y0071438D01*
X0191861Y0071593D01*
X0191899Y0071746D01*
X0191940Y0071899D01*
X0191985Y0072051D01*
X0192034Y0072202D01*
X0192087Y0072351D01*
X0192143Y0072499D01*
X0192203Y0072645D01*
X0192267Y0072790D01*
X0192335Y0072933D01*
X0192406Y0073075D01*
X0192480Y0073215D01*
X0192558Y0073352D01*
X0192640Y0073488D01*
X0192724Y0073622D01*
X0192813Y0073753D01*
X0192904Y0073882D01*
X0192999Y0074009D01*
X0193096Y0074134D01*
X0193197Y0074256D01*
X0193301Y0074375D01*
X0193408Y0074492D01*
X0193518Y0074606D01*
X0193631Y0074717D01*
X0193746Y0074826D01*
X0193864Y0074931D01*
X0193985Y0075033D01*
X0194108Y0075133D01*
X0194234Y0075229D01*
X0194362Y0075322D01*
X0194492Y0075412D01*
X0194625Y0075498D01*
X0194760Y0075582D01*
X0194896Y0075661D01*
X0195035Y0075738D01*
X0195176Y0075810D01*
X0195318Y0075880D01*
X0195462Y0075945D01*
X0195608Y0076007D01*
X0195755Y0076065D01*
X0195904Y0076120D01*
X0196054Y0076171D01*
X0196205Y0076218D01*
X0196357Y0076261D01*
X0196510Y0076300D01*
X0196665Y0076336D01*
X0196820Y0076367D01*
X0196976Y0076395D01*
X0197132Y0076419D01*
X0197289Y0076439D01*
X0197447Y0076455D01*
X0197604Y0076467D01*
X0197763Y0076475D01*
X0197921Y0076479D01*
X0198079Y0076479D01*
X0198237Y0076475D01*
X0198396Y0076467D01*
X0198553Y0076455D01*
X0198711Y0076439D01*
X0198868Y0076419D01*
X0199024Y0076395D01*
X0199180Y0076367D01*
X0199335Y0076336D01*
X0199490Y0076300D01*
X0199643Y0076261D01*
X0199795Y0076218D01*
X0199946Y0076171D01*
X0200096Y0076120D01*
X0200245Y0076065D01*
X0200392Y0076007D01*
X0200538Y0075945D01*
X0200682Y0075880D01*
X0200824Y0075810D01*
X0200965Y0075738D01*
X0201104Y0075661D01*
X0201240Y0075582D01*
X0201375Y0075498D01*
X0201508Y0075412D01*
X0201638Y0075322D01*
X0201766Y0075229D01*
X0201892Y0075133D01*
X0202015Y0075033D01*
X0202136Y0074931D01*
X0202254Y0074826D01*
X0202369Y0074717D01*
X0202482Y0074606D01*
X0202592Y0074492D01*
X0202699Y0074375D01*
X0202803Y0074256D01*
X0202904Y0074134D01*
X0203001Y0074009D01*
X0203096Y0073882D01*
X0203187Y0073753D01*
X0203276Y0073622D01*
X0203360Y0073488D01*
X0203442Y0073352D01*
X0203520Y0073215D01*
X0203594Y0073075D01*
X0203665Y0072933D01*
X0203733Y0072790D01*
X0203797Y0072645D01*
X0203857Y0072499D01*
X0203913Y0072351D01*
X0203966Y0072202D01*
X0204015Y0072051D01*
X0204060Y0071899D01*
X0204101Y0071746D01*
X0204139Y0071593D01*
X0204172Y0071438D01*
X0204202Y0071282D01*
X0204228Y0071126D01*
X0204249Y0070969D01*
X0204267Y0070812D01*
X0204281Y0070654D01*
X0204291Y0070496D01*
X0204297Y0070338D01*
X0204299Y0070180D01*
X0204297Y0070022D01*
X0204291Y0069864D01*
X0204281Y0069706D01*
X0204267Y0069548D01*
X0204249Y0069391D01*
X0204228Y0069234D01*
X0204202Y0069078D01*
X0204172Y0068922D01*
X0204139Y0068767D01*
X0204101Y0068614D01*
X0204060Y0068461D01*
X0204015Y0068309D01*
X0203966Y0068158D01*
X0203913Y0068009D01*
X0203857Y0067861D01*
X0203797Y0067715D01*
X0203733Y0067570D01*
X0203665Y0067427D01*
X0203594Y0067285D01*
X0203520Y0067145D01*
X0203442Y0067008D01*
X0203360Y0066872D01*
X0203276Y0066738D01*
X0203187Y0066607D01*
X0203096Y0066478D01*
X0203001Y0066351D01*
X0202904Y0066226D01*
X0202803Y0066104D01*
X0202699Y0065985D01*
X0202592Y0065868D01*
X0202482Y0065754D01*
X0202369Y0065643D01*
X0202254Y0065534D01*
X0202136Y0065429D01*
X0202015Y0065327D01*
X0201892Y0065227D01*
X0201766Y0065131D01*
X0201638Y0065038D01*
X0201508Y0064948D01*
X0201375Y0064862D01*
X0201240Y0064778D01*
X0201104Y0064699D01*
X0200965Y0064622D01*
X0200824Y0064550D01*
X0200682Y0064480D01*
X0200538Y0064415D01*
X0200392Y0064353D01*
X0200245Y0064295D01*
X0200096Y0064240D01*
X0199946Y0064189D01*
X0199795Y0064142D01*
X0199643Y0064099D01*
X0199490Y0064060D01*
X0199335Y0064024D01*
X0199180Y0063993D01*
X0199024Y0063965D01*
X0198868Y0063941D01*
X0198711Y0063921D01*
X0198553Y0063905D01*
X0198396Y0063893D01*
X0198237Y0063885D01*
X0198079Y0063881D01*
X0197921Y0063881D01*
X0197763Y0063885D01*
X0197604Y0063893D01*
X0197447Y0063905D01*
X0197289Y0063921D01*
X0197132Y0063941D01*
X0196976Y0063965D01*
X0196820Y0063993D01*
X0196665Y0064024D01*
X0196510Y0064060D01*
X0196357Y0064099D01*
X0196205Y0064142D01*
X0196054Y0064189D01*
X0195904Y0064240D01*
X0195755Y0064295D01*
X0195608Y0064353D01*
X0195462Y0064415D01*
X0195318Y0064480D01*
X0195176Y0064550D01*
X0195035Y0064622D01*
X0194896Y0064699D01*
X0194760Y0064778D01*
X0194625Y0064862D01*
X0194492Y0064948D01*
X0194362Y0065038D01*
X0194234Y0065131D01*
X0194108Y0065227D01*
X0193985Y0065327D01*
X0193864Y0065429D01*
X0193746Y0065534D01*
X0193631Y0065643D01*
X0193518Y0065754D01*
X0193408Y0065868D01*
X0193301Y0065985D01*
X0193197Y0066104D01*
X0193096Y0066226D01*
X0192999Y0066351D01*
X0192904Y0066478D01*
X0192813Y0066607D01*
X0192724Y0066738D01*
X0192640Y0066872D01*
X0192558Y0067008D01*
X0192480Y0067145D01*
X0192406Y0067285D01*
X0192335Y0067427D01*
X0192267Y0067570D01*
X0192203Y0067715D01*
X0192143Y0067861D01*
X0192087Y0068009D01*
X0192034Y0068158D01*
X0191985Y0068309D01*
X0191940Y0068461D01*
X0191899Y0068614D01*
X0191861Y0068767D01*
X0191828Y0068922D01*
X0191798Y0069078D01*
X0191772Y0069234D01*
X0191751Y0069391D01*
X0191733Y0069548D01*
X0191719Y0069706D01*
X0191709Y0069864D01*
X0191703Y0070022D01*
X0191701Y0070180D01*
X0158400Y0183825D02*
X0132600Y0183825D01*
X0132600Y0197825D01*
X0158400Y0197825D01*
X0158400Y0183825D01*
X0191766Y0199480D02*
X0191768Y0199638D01*
X0191774Y0199796D01*
X0191784Y0199954D01*
X0191798Y0200112D01*
X0191816Y0200269D01*
X0191837Y0200426D01*
X0191863Y0200582D01*
X0191893Y0200738D01*
X0191926Y0200893D01*
X0191964Y0201046D01*
X0192005Y0201199D01*
X0192050Y0201351D01*
X0192099Y0201502D01*
X0192152Y0201651D01*
X0192208Y0201799D01*
X0192268Y0201945D01*
X0192332Y0202090D01*
X0192400Y0202233D01*
X0192471Y0202375D01*
X0192545Y0202515D01*
X0192623Y0202652D01*
X0192705Y0202788D01*
X0192789Y0202922D01*
X0192878Y0203053D01*
X0192969Y0203182D01*
X0193064Y0203309D01*
X0193161Y0203434D01*
X0193262Y0203556D01*
X0193366Y0203675D01*
X0193473Y0203792D01*
X0193583Y0203906D01*
X0193696Y0204017D01*
X0193811Y0204126D01*
X0193929Y0204231D01*
X0194050Y0204333D01*
X0194173Y0204433D01*
X0194299Y0204529D01*
X0194427Y0204622D01*
X0194557Y0204712D01*
X0194690Y0204798D01*
X0194825Y0204882D01*
X0194961Y0204961D01*
X0195100Y0205038D01*
X0195241Y0205110D01*
X0195383Y0205180D01*
X0195527Y0205245D01*
X0195673Y0205307D01*
X0195820Y0205365D01*
X0195969Y0205420D01*
X0196119Y0205471D01*
X0196270Y0205518D01*
X0196422Y0205561D01*
X0196575Y0205600D01*
X0196730Y0205636D01*
X0196885Y0205667D01*
X0197041Y0205695D01*
X0197197Y0205719D01*
X0197354Y0205739D01*
X0197512Y0205755D01*
X0197669Y0205767D01*
X0197828Y0205775D01*
X0197986Y0205779D01*
X0198144Y0205779D01*
X0198302Y0205775D01*
X0198461Y0205767D01*
X0198618Y0205755D01*
X0198776Y0205739D01*
X0198933Y0205719D01*
X0199089Y0205695D01*
X0199245Y0205667D01*
X0199400Y0205636D01*
X0199555Y0205600D01*
X0199708Y0205561D01*
X0199860Y0205518D01*
X0200011Y0205471D01*
X0200161Y0205420D01*
X0200310Y0205365D01*
X0200457Y0205307D01*
X0200603Y0205245D01*
X0200747Y0205180D01*
X0200889Y0205110D01*
X0201030Y0205038D01*
X0201169Y0204961D01*
X0201305Y0204882D01*
X0201440Y0204798D01*
X0201573Y0204712D01*
X0201703Y0204622D01*
X0201831Y0204529D01*
X0201957Y0204433D01*
X0202080Y0204333D01*
X0202201Y0204231D01*
X0202319Y0204126D01*
X0202434Y0204017D01*
X0202547Y0203906D01*
X0202657Y0203792D01*
X0202764Y0203675D01*
X0202868Y0203556D01*
X0202969Y0203434D01*
X0203066Y0203309D01*
X0203161Y0203182D01*
X0203252Y0203053D01*
X0203341Y0202922D01*
X0203425Y0202788D01*
X0203507Y0202652D01*
X0203585Y0202515D01*
X0203659Y0202375D01*
X0203730Y0202233D01*
X0203798Y0202090D01*
X0203862Y0201945D01*
X0203922Y0201799D01*
X0203978Y0201651D01*
X0204031Y0201502D01*
X0204080Y0201351D01*
X0204125Y0201199D01*
X0204166Y0201046D01*
X0204204Y0200893D01*
X0204237Y0200738D01*
X0204267Y0200582D01*
X0204293Y0200426D01*
X0204314Y0200269D01*
X0204332Y0200112D01*
X0204346Y0199954D01*
X0204356Y0199796D01*
X0204362Y0199638D01*
X0204364Y0199480D01*
X0204362Y0199322D01*
X0204356Y0199164D01*
X0204346Y0199006D01*
X0204332Y0198848D01*
X0204314Y0198691D01*
X0204293Y0198534D01*
X0204267Y0198378D01*
X0204237Y0198222D01*
X0204204Y0198067D01*
X0204166Y0197914D01*
X0204125Y0197761D01*
X0204080Y0197609D01*
X0204031Y0197458D01*
X0203978Y0197309D01*
X0203922Y0197161D01*
X0203862Y0197015D01*
X0203798Y0196870D01*
X0203730Y0196727D01*
X0203659Y0196585D01*
X0203585Y0196445D01*
X0203507Y0196308D01*
X0203425Y0196172D01*
X0203341Y0196038D01*
X0203252Y0195907D01*
X0203161Y0195778D01*
X0203066Y0195651D01*
X0202969Y0195526D01*
X0202868Y0195404D01*
X0202764Y0195285D01*
X0202657Y0195168D01*
X0202547Y0195054D01*
X0202434Y0194943D01*
X0202319Y0194834D01*
X0202201Y0194729D01*
X0202080Y0194627D01*
X0201957Y0194527D01*
X0201831Y0194431D01*
X0201703Y0194338D01*
X0201573Y0194248D01*
X0201440Y0194162D01*
X0201305Y0194078D01*
X0201169Y0193999D01*
X0201030Y0193922D01*
X0200889Y0193850D01*
X0200747Y0193780D01*
X0200603Y0193715D01*
X0200457Y0193653D01*
X0200310Y0193595D01*
X0200161Y0193540D01*
X0200011Y0193489D01*
X0199860Y0193442D01*
X0199708Y0193399D01*
X0199555Y0193360D01*
X0199400Y0193324D01*
X0199245Y0193293D01*
X0199089Y0193265D01*
X0198933Y0193241D01*
X0198776Y0193221D01*
X0198618Y0193205D01*
X0198461Y0193193D01*
X0198302Y0193185D01*
X0198144Y0193181D01*
X0197986Y0193181D01*
X0197828Y0193185D01*
X0197669Y0193193D01*
X0197512Y0193205D01*
X0197354Y0193221D01*
X0197197Y0193241D01*
X0197041Y0193265D01*
X0196885Y0193293D01*
X0196730Y0193324D01*
X0196575Y0193360D01*
X0196422Y0193399D01*
X0196270Y0193442D01*
X0196119Y0193489D01*
X0195969Y0193540D01*
X0195820Y0193595D01*
X0195673Y0193653D01*
X0195527Y0193715D01*
X0195383Y0193780D01*
X0195241Y0193850D01*
X0195100Y0193922D01*
X0194961Y0193999D01*
X0194825Y0194078D01*
X0194690Y0194162D01*
X0194557Y0194248D01*
X0194427Y0194338D01*
X0194299Y0194431D01*
X0194173Y0194527D01*
X0194050Y0194627D01*
X0193929Y0194729D01*
X0193811Y0194834D01*
X0193696Y0194943D01*
X0193583Y0195054D01*
X0193473Y0195168D01*
X0193366Y0195285D01*
X0193262Y0195404D01*
X0193161Y0195526D01*
X0193064Y0195651D01*
X0192969Y0195778D01*
X0192878Y0195907D01*
X0192789Y0196038D01*
X0192705Y0196172D01*
X0192623Y0196308D01*
X0192545Y0196445D01*
X0192471Y0196585D01*
X0192400Y0196727D01*
X0192332Y0196870D01*
X0192268Y0197015D01*
X0192208Y0197161D01*
X0192152Y0197309D01*
X0192099Y0197458D01*
X0192050Y0197609D01*
X0192005Y0197761D01*
X0191964Y0197914D01*
X0191926Y0198067D01*
X0191893Y0198222D01*
X0191863Y0198378D01*
X0191837Y0198534D01*
X0191816Y0198691D01*
X0191798Y0198848D01*
X0191784Y0199006D01*
X0191774Y0199164D01*
X0191768Y0199322D01*
X0191766Y0199480D01*
X0062486Y0199410D02*
X0062488Y0199568D01*
X0062494Y0199726D01*
X0062504Y0199884D01*
X0062518Y0200042D01*
X0062536Y0200199D01*
X0062557Y0200356D01*
X0062583Y0200512D01*
X0062613Y0200668D01*
X0062646Y0200823D01*
X0062684Y0200976D01*
X0062725Y0201129D01*
X0062770Y0201281D01*
X0062819Y0201432D01*
X0062872Y0201581D01*
X0062928Y0201729D01*
X0062988Y0201875D01*
X0063052Y0202020D01*
X0063120Y0202163D01*
X0063191Y0202305D01*
X0063265Y0202445D01*
X0063343Y0202582D01*
X0063425Y0202718D01*
X0063509Y0202852D01*
X0063598Y0202983D01*
X0063689Y0203112D01*
X0063784Y0203239D01*
X0063881Y0203364D01*
X0063982Y0203486D01*
X0064086Y0203605D01*
X0064193Y0203722D01*
X0064303Y0203836D01*
X0064416Y0203947D01*
X0064531Y0204056D01*
X0064649Y0204161D01*
X0064770Y0204263D01*
X0064893Y0204363D01*
X0065019Y0204459D01*
X0065147Y0204552D01*
X0065277Y0204642D01*
X0065410Y0204728D01*
X0065545Y0204812D01*
X0065681Y0204891D01*
X0065820Y0204968D01*
X0065961Y0205040D01*
X0066103Y0205110D01*
X0066247Y0205175D01*
X0066393Y0205237D01*
X0066540Y0205295D01*
X0066689Y0205350D01*
X0066839Y0205401D01*
X0066990Y0205448D01*
X0067142Y0205491D01*
X0067295Y0205530D01*
X0067450Y0205566D01*
X0067605Y0205597D01*
X0067761Y0205625D01*
X0067917Y0205649D01*
X0068074Y0205669D01*
X0068232Y0205685D01*
X0068389Y0205697D01*
X0068548Y0205705D01*
X0068706Y0205709D01*
X0068864Y0205709D01*
X0069022Y0205705D01*
X0069181Y0205697D01*
X0069338Y0205685D01*
X0069496Y0205669D01*
X0069653Y0205649D01*
X0069809Y0205625D01*
X0069965Y0205597D01*
X0070120Y0205566D01*
X0070275Y0205530D01*
X0070428Y0205491D01*
X0070580Y0205448D01*
X0070731Y0205401D01*
X0070881Y0205350D01*
X0071030Y0205295D01*
X0071177Y0205237D01*
X0071323Y0205175D01*
X0071467Y0205110D01*
X0071609Y0205040D01*
X0071750Y0204968D01*
X0071889Y0204891D01*
X0072025Y0204812D01*
X0072160Y0204728D01*
X0072293Y0204642D01*
X0072423Y0204552D01*
X0072551Y0204459D01*
X0072677Y0204363D01*
X0072800Y0204263D01*
X0072921Y0204161D01*
X0073039Y0204056D01*
X0073154Y0203947D01*
X0073267Y0203836D01*
X0073377Y0203722D01*
X0073484Y0203605D01*
X0073588Y0203486D01*
X0073689Y0203364D01*
X0073786Y0203239D01*
X0073881Y0203112D01*
X0073972Y0202983D01*
X0074061Y0202852D01*
X0074145Y0202718D01*
X0074227Y0202582D01*
X0074305Y0202445D01*
X0074379Y0202305D01*
X0074450Y0202163D01*
X0074518Y0202020D01*
X0074582Y0201875D01*
X0074642Y0201729D01*
X0074698Y0201581D01*
X0074751Y0201432D01*
X0074800Y0201281D01*
X0074845Y0201129D01*
X0074886Y0200976D01*
X0074924Y0200823D01*
X0074957Y0200668D01*
X0074987Y0200512D01*
X0075013Y0200356D01*
X0075034Y0200199D01*
X0075052Y0200042D01*
X0075066Y0199884D01*
X0075076Y0199726D01*
X0075082Y0199568D01*
X0075084Y0199410D01*
X0075082Y0199252D01*
X0075076Y0199094D01*
X0075066Y0198936D01*
X0075052Y0198778D01*
X0075034Y0198621D01*
X0075013Y0198464D01*
X0074987Y0198308D01*
X0074957Y0198152D01*
X0074924Y0197997D01*
X0074886Y0197844D01*
X0074845Y0197691D01*
X0074800Y0197539D01*
X0074751Y0197388D01*
X0074698Y0197239D01*
X0074642Y0197091D01*
X0074582Y0196945D01*
X0074518Y0196800D01*
X0074450Y0196657D01*
X0074379Y0196515D01*
X0074305Y0196375D01*
X0074227Y0196238D01*
X0074145Y0196102D01*
X0074061Y0195968D01*
X0073972Y0195837D01*
X0073881Y0195708D01*
X0073786Y0195581D01*
X0073689Y0195456D01*
X0073588Y0195334D01*
X0073484Y0195215D01*
X0073377Y0195098D01*
X0073267Y0194984D01*
X0073154Y0194873D01*
X0073039Y0194764D01*
X0072921Y0194659D01*
X0072800Y0194557D01*
X0072677Y0194457D01*
X0072551Y0194361D01*
X0072423Y0194268D01*
X0072293Y0194178D01*
X0072160Y0194092D01*
X0072025Y0194008D01*
X0071889Y0193929D01*
X0071750Y0193852D01*
X0071609Y0193780D01*
X0071467Y0193710D01*
X0071323Y0193645D01*
X0071177Y0193583D01*
X0071030Y0193525D01*
X0070881Y0193470D01*
X0070731Y0193419D01*
X0070580Y0193372D01*
X0070428Y0193329D01*
X0070275Y0193290D01*
X0070120Y0193254D01*
X0069965Y0193223D01*
X0069809Y0193195D01*
X0069653Y0193171D01*
X0069496Y0193151D01*
X0069338Y0193135D01*
X0069181Y0193123D01*
X0069022Y0193115D01*
X0068864Y0193111D01*
X0068706Y0193111D01*
X0068548Y0193115D01*
X0068389Y0193123D01*
X0068232Y0193135D01*
X0068074Y0193151D01*
X0067917Y0193171D01*
X0067761Y0193195D01*
X0067605Y0193223D01*
X0067450Y0193254D01*
X0067295Y0193290D01*
X0067142Y0193329D01*
X0066990Y0193372D01*
X0066839Y0193419D01*
X0066689Y0193470D01*
X0066540Y0193525D01*
X0066393Y0193583D01*
X0066247Y0193645D01*
X0066103Y0193710D01*
X0065961Y0193780D01*
X0065820Y0193852D01*
X0065681Y0193929D01*
X0065545Y0194008D01*
X0065410Y0194092D01*
X0065277Y0194178D01*
X0065147Y0194268D01*
X0065019Y0194361D01*
X0064893Y0194457D01*
X0064770Y0194557D01*
X0064649Y0194659D01*
X0064531Y0194764D01*
X0064416Y0194873D01*
X0064303Y0194984D01*
X0064193Y0195098D01*
X0064086Y0195215D01*
X0063982Y0195334D01*
X0063881Y0195456D01*
X0063784Y0195581D01*
X0063689Y0195708D01*
X0063598Y0195837D01*
X0063509Y0195968D01*
X0063425Y0196102D01*
X0063343Y0196238D01*
X0063265Y0196375D01*
X0063191Y0196515D01*
X0063120Y0196657D01*
X0063052Y0196800D01*
X0062988Y0196945D01*
X0062928Y0197091D01*
X0062872Y0197239D01*
X0062819Y0197388D01*
X0062770Y0197539D01*
X0062725Y0197691D01*
X0062684Y0197844D01*
X0062646Y0197997D01*
X0062613Y0198152D01*
X0062583Y0198308D01*
X0062557Y0198464D01*
X0062536Y0198621D01*
X0062518Y0198778D01*
X0062504Y0198936D01*
X0062494Y0199094D01*
X0062488Y0199252D01*
X0062486Y0199410D01*
D11*
X0135932Y0202426D02*
X0137800Y0202426D01*
X0136399Y0203827D01*
X0136399Y0201025D01*
X0139880Y0176827D02*
X0139413Y0176360D01*
X0139413Y0175893D01*
X0139880Y0175426D01*
X0139413Y0174959D01*
X0139413Y0174492D01*
X0139880Y0174025D01*
X0140814Y0174025D01*
X0141281Y0174492D01*
X0140347Y0175426D02*
X0139880Y0175426D01*
X0139880Y0176827D02*
X0140814Y0176827D01*
X0141281Y0176360D01*
X0148513Y0176323D02*
X0148980Y0176790D01*
X0149914Y0176790D01*
X0150381Y0176323D01*
X0148513Y0176323D02*
X0148513Y0175856D01*
X0150381Y0173988D01*
X0148513Y0173988D01*
X0157025Y0174025D02*
X0158893Y0174025D01*
X0157959Y0174025D02*
X0157959Y0176827D01*
X0158893Y0175893D01*
D12*
X0167400Y0175225D02*
X0167400Y0177425D01*
X0167400Y0175225D02*
X0170600Y0175225D01*
X0167400Y0184225D02*
X0167400Y0186425D01*
X0170600Y0186425D01*
X0184565Y0199480D02*
X0184569Y0199811D01*
X0184581Y0200142D01*
X0184602Y0200473D01*
X0184630Y0200803D01*
X0184667Y0201133D01*
X0184711Y0201461D01*
X0184764Y0201788D01*
X0184824Y0202114D01*
X0184893Y0202438D01*
X0184970Y0202760D01*
X0185054Y0203081D01*
X0185146Y0203399D01*
X0185246Y0203715D01*
X0185354Y0204028D01*
X0185470Y0204339D01*
X0185593Y0204646D01*
X0185723Y0204951D01*
X0185861Y0205252D01*
X0186006Y0205550D01*
X0186159Y0205844D01*
X0186319Y0206134D01*
X0186486Y0206420D01*
X0186659Y0206702D01*
X0186840Y0206980D01*
X0187028Y0207253D01*
X0187222Y0207522D01*
X0187422Y0207786D01*
X0187629Y0208044D01*
X0187843Y0208298D01*
X0188062Y0208546D01*
X0188288Y0208789D01*
X0188519Y0209026D01*
X0188756Y0209257D01*
X0188999Y0209483D01*
X0189247Y0209702D01*
X0189501Y0209916D01*
X0189759Y0210123D01*
X0190023Y0210323D01*
X0190292Y0210517D01*
X0190565Y0210705D01*
X0190843Y0210886D01*
X0191125Y0211059D01*
X0191411Y0211226D01*
X0191701Y0211386D01*
X0191995Y0211539D01*
X0192293Y0211684D01*
X0192594Y0211822D01*
X0192899Y0211952D01*
X0193206Y0212075D01*
X0193517Y0212191D01*
X0193830Y0212299D01*
X0194146Y0212399D01*
X0194464Y0212491D01*
X0194785Y0212575D01*
X0195107Y0212652D01*
X0195431Y0212721D01*
X0195757Y0212781D01*
X0196084Y0212834D01*
X0196412Y0212878D01*
X0196742Y0212915D01*
X0197072Y0212943D01*
X0197403Y0212964D01*
X0197734Y0212976D01*
X0198065Y0212980D01*
X0198396Y0212976D01*
X0198727Y0212964D01*
X0199058Y0212943D01*
X0199388Y0212915D01*
X0199718Y0212878D01*
X0200046Y0212834D01*
X0200373Y0212781D01*
X0200699Y0212721D01*
X0201023Y0212652D01*
X0201345Y0212575D01*
X0201666Y0212491D01*
X0201984Y0212399D01*
X0202300Y0212299D01*
X0202613Y0212191D01*
X0202924Y0212075D01*
X0203231Y0211952D01*
X0203536Y0211822D01*
X0203837Y0211684D01*
X0204135Y0211539D01*
X0204429Y0211386D01*
X0204719Y0211226D01*
X0205005Y0211059D01*
X0205287Y0210886D01*
X0205565Y0210705D01*
X0205838Y0210517D01*
X0206107Y0210323D01*
X0206371Y0210123D01*
X0206629Y0209916D01*
X0206883Y0209702D01*
X0207131Y0209483D01*
X0207374Y0209257D01*
X0207611Y0209026D01*
X0207842Y0208789D01*
X0208068Y0208546D01*
X0208287Y0208298D01*
X0208501Y0208044D01*
X0208708Y0207786D01*
X0208908Y0207522D01*
X0209102Y0207253D01*
X0209290Y0206980D01*
X0209471Y0206702D01*
X0209644Y0206420D01*
X0209811Y0206134D01*
X0209971Y0205844D01*
X0210124Y0205550D01*
X0210269Y0205252D01*
X0210407Y0204951D01*
X0210537Y0204646D01*
X0210660Y0204339D01*
X0210776Y0204028D01*
X0210884Y0203715D01*
X0210984Y0203399D01*
X0211076Y0203081D01*
X0211160Y0202760D01*
X0211237Y0202438D01*
X0211306Y0202114D01*
X0211366Y0201788D01*
X0211419Y0201461D01*
X0211463Y0201133D01*
X0211500Y0200803D01*
X0211528Y0200473D01*
X0211549Y0200142D01*
X0211561Y0199811D01*
X0211565Y0199480D01*
X0211561Y0199149D01*
X0211549Y0198818D01*
X0211528Y0198487D01*
X0211500Y0198157D01*
X0211463Y0197827D01*
X0211419Y0197499D01*
X0211366Y0197172D01*
X0211306Y0196846D01*
X0211237Y0196522D01*
X0211160Y0196200D01*
X0211076Y0195879D01*
X0210984Y0195561D01*
X0210884Y0195245D01*
X0210776Y0194932D01*
X0210660Y0194621D01*
X0210537Y0194314D01*
X0210407Y0194009D01*
X0210269Y0193708D01*
X0210124Y0193410D01*
X0209971Y0193116D01*
X0209811Y0192826D01*
X0209644Y0192540D01*
X0209471Y0192258D01*
X0209290Y0191980D01*
X0209102Y0191707D01*
X0208908Y0191438D01*
X0208708Y0191174D01*
X0208501Y0190916D01*
X0208287Y0190662D01*
X0208068Y0190414D01*
X0207842Y0190171D01*
X0207611Y0189934D01*
X0207374Y0189703D01*
X0207131Y0189477D01*
X0206883Y0189258D01*
X0206629Y0189044D01*
X0206371Y0188837D01*
X0206107Y0188637D01*
X0205838Y0188443D01*
X0205565Y0188255D01*
X0205287Y0188074D01*
X0205005Y0187901D01*
X0204719Y0187734D01*
X0204429Y0187574D01*
X0204135Y0187421D01*
X0203837Y0187276D01*
X0203536Y0187138D01*
X0203231Y0187008D01*
X0202924Y0186885D01*
X0202613Y0186769D01*
X0202300Y0186661D01*
X0201984Y0186561D01*
X0201666Y0186469D01*
X0201345Y0186385D01*
X0201023Y0186308D01*
X0200699Y0186239D01*
X0200373Y0186179D01*
X0200046Y0186126D01*
X0199718Y0186082D01*
X0199388Y0186045D01*
X0199058Y0186017D01*
X0198727Y0185996D01*
X0198396Y0185984D01*
X0198065Y0185980D01*
X0197734Y0185984D01*
X0197403Y0185996D01*
X0197072Y0186017D01*
X0196742Y0186045D01*
X0196412Y0186082D01*
X0196084Y0186126D01*
X0195757Y0186179D01*
X0195431Y0186239D01*
X0195107Y0186308D01*
X0194785Y0186385D01*
X0194464Y0186469D01*
X0194146Y0186561D01*
X0193830Y0186661D01*
X0193517Y0186769D01*
X0193206Y0186885D01*
X0192899Y0187008D01*
X0192594Y0187138D01*
X0192293Y0187276D01*
X0191995Y0187421D01*
X0191701Y0187574D01*
X0191411Y0187734D01*
X0191125Y0187901D01*
X0190843Y0188074D01*
X0190565Y0188255D01*
X0190292Y0188443D01*
X0190023Y0188637D01*
X0189759Y0188837D01*
X0189501Y0189044D01*
X0189247Y0189258D01*
X0188999Y0189477D01*
X0188756Y0189703D01*
X0188519Y0189934D01*
X0188288Y0190171D01*
X0188062Y0190414D01*
X0187843Y0190662D01*
X0187629Y0190916D01*
X0187422Y0191174D01*
X0187222Y0191438D01*
X0187028Y0191707D01*
X0186840Y0191980D01*
X0186659Y0192258D01*
X0186486Y0192540D01*
X0186319Y0192826D01*
X0186159Y0193116D01*
X0186006Y0193410D01*
X0185861Y0193708D01*
X0185723Y0194009D01*
X0185593Y0194314D01*
X0185470Y0194621D01*
X0185354Y0194932D01*
X0185246Y0195245D01*
X0185146Y0195561D01*
X0185054Y0195879D01*
X0184970Y0196200D01*
X0184893Y0196522D01*
X0184824Y0196846D01*
X0184764Y0197172D01*
X0184711Y0197499D01*
X0184667Y0197827D01*
X0184630Y0198157D01*
X0184602Y0198487D01*
X0184581Y0198818D01*
X0184569Y0199149D01*
X0184565Y0199480D01*
X0055285Y0199410D02*
X0055289Y0199741D01*
X0055301Y0200072D01*
X0055322Y0200403D01*
X0055350Y0200733D01*
X0055387Y0201063D01*
X0055431Y0201391D01*
X0055484Y0201718D01*
X0055544Y0202044D01*
X0055613Y0202368D01*
X0055690Y0202690D01*
X0055774Y0203011D01*
X0055866Y0203329D01*
X0055966Y0203645D01*
X0056074Y0203958D01*
X0056190Y0204269D01*
X0056313Y0204576D01*
X0056443Y0204881D01*
X0056581Y0205182D01*
X0056726Y0205480D01*
X0056879Y0205774D01*
X0057039Y0206064D01*
X0057206Y0206350D01*
X0057379Y0206632D01*
X0057560Y0206910D01*
X0057748Y0207183D01*
X0057942Y0207452D01*
X0058142Y0207716D01*
X0058349Y0207974D01*
X0058563Y0208228D01*
X0058782Y0208476D01*
X0059008Y0208719D01*
X0059239Y0208956D01*
X0059476Y0209187D01*
X0059719Y0209413D01*
X0059967Y0209632D01*
X0060221Y0209846D01*
X0060479Y0210053D01*
X0060743Y0210253D01*
X0061012Y0210447D01*
X0061285Y0210635D01*
X0061563Y0210816D01*
X0061845Y0210989D01*
X0062131Y0211156D01*
X0062421Y0211316D01*
X0062715Y0211469D01*
X0063013Y0211614D01*
X0063314Y0211752D01*
X0063619Y0211882D01*
X0063926Y0212005D01*
X0064237Y0212121D01*
X0064550Y0212229D01*
X0064866Y0212329D01*
X0065184Y0212421D01*
X0065505Y0212505D01*
X0065827Y0212582D01*
X0066151Y0212651D01*
X0066477Y0212711D01*
X0066804Y0212764D01*
X0067132Y0212808D01*
X0067462Y0212845D01*
X0067792Y0212873D01*
X0068123Y0212894D01*
X0068454Y0212906D01*
X0068785Y0212910D01*
X0069116Y0212906D01*
X0069447Y0212894D01*
X0069778Y0212873D01*
X0070108Y0212845D01*
X0070438Y0212808D01*
X0070766Y0212764D01*
X0071093Y0212711D01*
X0071419Y0212651D01*
X0071743Y0212582D01*
X0072065Y0212505D01*
X0072386Y0212421D01*
X0072704Y0212329D01*
X0073020Y0212229D01*
X0073333Y0212121D01*
X0073644Y0212005D01*
X0073951Y0211882D01*
X0074256Y0211752D01*
X0074557Y0211614D01*
X0074855Y0211469D01*
X0075149Y0211316D01*
X0075439Y0211156D01*
X0075725Y0210989D01*
X0076007Y0210816D01*
X0076285Y0210635D01*
X0076558Y0210447D01*
X0076827Y0210253D01*
X0077091Y0210053D01*
X0077349Y0209846D01*
X0077603Y0209632D01*
X0077851Y0209413D01*
X0078094Y0209187D01*
X0078331Y0208956D01*
X0078562Y0208719D01*
X0078788Y0208476D01*
X0079007Y0208228D01*
X0079221Y0207974D01*
X0079428Y0207716D01*
X0079628Y0207452D01*
X0079822Y0207183D01*
X0080010Y0206910D01*
X0080191Y0206632D01*
X0080364Y0206350D01*
X0080531Y0206064D01*
X0080691Y0205774D01*
X0080844Y0205480D01*
X0080989Y0205182D01*
X0081127Y0204881D01*
X0081257Y0204576D01*
X0081380Y0204269D01*
X0081496Y0203958D01*
X0081604Y0203645D01*
X0081704Y0203329D01*
X0081796Y0203011D01*
X0081880Y0202690D01*
X0081957Y0202368D01*
X0082026Y0202044D01*
X0082086Y0201718D01*
X0082139Y0201391D01*
X0082183Y0201063D01*
X0082220Y0200733D01*
X0082248Y0200403D01*
X0082269Y0200072D01*
X0082281Y0199741D01*
X0082285Y0199410D01*
X0082281Y0199079D01*
X0082269Y0198748D01*
X0082248Y0198417D01*
X0082220Y0198087D01*
X0082183Y0197757D01*
X0082139Y0197429D01*
X0082086Y0197102D01*
X0082026Y0196776D01*
X0081957Y0196452D01*
X0081880Y0196130D01*
X0081796Y0195809D01*
X0081704Y0195491D01*
X0081604Y0195175D01*
X0081496Y0194862D01*
X0081380Y0194551D01*
X0081257Y0194244D01*
X0081127Y0193939D01*
X0080989Y0193638D01*
X0080844Y0193340D01*
X0080691Y0193046D01*
X0080531Y0192756D01*
X0080364Y0192470D01*
X0080191Y0192188D01*
X0080010Y0191910D01*
X0079822Y0191637D01*
X0079628Y0191368D01*
X0079428Y0191104D01*
X0079221Y0190846D01*
X0079007Y0190592D01*
X0078788Y0190344D01*
X0078562Y0190101D01*
X0078331Y0189864D01*
X0078094Y0189633D01*
X0077851Y0189407D01*
X0077603Y0189188D01*
X0077349Y0188974D01*
X0077091Y0188767D01*
X0076827Y0188567D01*
X0076558Y0188373D01*
X0076285Y0188185D01*
X0076007Y0188004D01*
X0075725Y0187831D01*
X0075439Y0187664D01*
X0075149Y0187504D01*
X0074855Y0187351D01*
X0074557Y0187206D01*
X0074256Y0187068D01*
X0073951Y0186938D01*
X0073644Y0186815D01*
X0073333Y0186699D01*
X0073020Y0186591D01*
X0072704Y0186491D01*
X0072386Y0186399D01*
X0072065Y0186315D01*
X0071743Y0186238D01*
X0071419Y0186169D01*
X0071093Y0186109D01*
X0070766Y0186056D01*
X0070438Y0186012D01*
X0070108Y0185975D01*
X0069778Y0185947D01*
X0069447Y0185926D01*
X0069116Y0185914D01*
X0068785Y0185910D01*
X0068454Y0185914D01*
X0068123Y0185926D01*
X0067792Y0185947D01*
X0067462Y0185975D01*
X0067132Y0186012D01*
X0066804Y0186056D01*
X0066477Y0186109D01*
X0066151Y0186169D01*
X0065827Y0186238D01*
X0065505Y0186315D01*
X0065184Y0186399D01*
X0064866Y0186491D01*
X0064550Y0186591D01*
X0064237Y0186699D01*
X0063926Y0186815D01*
X0063619Y0186938D01*
X0063314Y0187068D01*
X0063013Y0187206D01*
X0062715Y0187351D01*
X0062421Y0187504D01*
X0062131Y0187664D01*
X0061845Y0187831D01*
X0061563Y0188004D01*
X0061285Y0188185D01*
X0061012Y0188373D01*
X0060743Y0188567D01*
X0060479Y0188767D01*
X0060221Y0188974D01*
X0059967Y0189188D01*
X0059719Y0189407D01*
X0059476Y0189633D01*
X0059239Y0189864D01*
X0059008Y0190101D01*
X0058782Y0190344D01*
X0058563Y0190592D01*
X0058349Y0190846D01*
X0058142Y0191104D01*
X0057942Y0191368D01*
X0057748Y0191637D01*
X0057560Y0191910D01*
X0057379Y0192188D01*
X0057206Y0192470D01*
X0057039Y0192756D01*
X0056879Y0193046D01*
X0056726Y0193340D01*
X0056581Y0193638D01*
X0056443Y0193939D01*
X0056313Y0194244D01*
X0056190Y0194551D01*
X0056074Y0194862D01*
X0055966Y0195175D01*
X0055866Y0195491D01*
X0055774Y0195809D01*
X0055690Y0196130D01*
X0055613Y0196452D01*
X0055544Y0196776D01*
X0055484Y0197102D01*
X0055431Y0197429D01*
X0055387Y0197757D01*
X0055350Y0198087D01*
X0055322Y0198417D01*
X0055301Y0198748D01*
X0055289Y0199079D01*
X0055285Y0199410D01*
X0055325Y0070165D02*
X0055329Y0070496D01*
X0055341Y0070827D01*
X0055362Y0071158D01*
X0055390Y0071488D01*
X0055427Y0071818D01*
X0055471Y0072146D01*
X0055524Y0072473D01*
X0055584Y0072799D01*
X0055653Y0073123D01*
X0055730Y0073445D01*
X0055814Y0073766D01*
X0055906Y0074084D01*
X0056006Y0074400D01*
X0056114Y0074713D01*
X0056230Y0075024D01*
X0056353Y0075331D01*
X0056483Y0075636D01*
X0056621Y0075937D01*
X0056766Y0076235D01*
X0056919Y0076529D01*
X0057079Y0076819D01*
X0057246Y0077105D01*
X0057419Y0077387D01*
X0057600Y0077665D01*
X0057788Y0077938D01*
X0057982Y0078207D01*
X0058182Y0078471D01*
X0058389Y0078729D01*
X0058603Y0078983D01*
X0058822Y0079231D01*
X0059048Y0079474D01*
X0059279Y0079711D01*
X0059516Y0079942D01*
X0059759Y0080168D01*
X0060007Y0080387D01*
X0060261Y0080601D01*
X0060519Y0080808D01*
X0060783Y0081008D01*
X0061052Y0081202D01*
X0061325Y0081390D01*
X0061603Y0081571D01*
X0061885Y0081744D01*
X0062171Y0081911D01*
X0062461Y0082071D01*
X0062755Y0082224D01*
X0063053Y0082369D01*
X0063354Y0082507D01*
X0063659Y0082637D01*
X0063966Y0082760D01*
X0064277Y0082876D01*
X0064590Y0082984D01*
X0064906Y0083084D01*
X0065224Y0083176D01*
X0065545Y0083260D01*
X0065867Y0083337D01*
X0066191Y0083406D01*
X0066517Y0083466D01*
X0066844Y0083519D01*
X0067172Y0083563D01*
X0067502Y0083600D01*
X0067832Y0083628D01*
X0068163Y0083649D01*
X0068494Y0083661D01*
X0068825Y0083665D01*
X0069156Y0083661D01*
X0069487Y0083649D01*
X0069818Y0083628D01*
X0070148Y0083600D01*
X0070478Y0083563D01*
X0070806Y0083519D01*
X0071133Y0083466D01*
X0071459Y0083406D01*
X0071783Y0083337D01*
X0072105Y0083260D01*
X0072426Y0083176D01*
X0072744Y0083084D01*
X0073060Y0082984D01*
X0073373Y0082876D01*
X0073684Y0082760D01*
X0073991Y0082637D01*
X0074296Y0082507D01*
X0074597Y0082369D01*
X0074895Y0082224D01*
X0075189Y0082071D01*
X0075479Y0081911D01*
X0075765Y0081744D01*
X0076047Y0081571D01*
X0076325Y0081390D01*
X0076598Y0081202D01*
X0076867Y0081008D01*
X0077131Y0080808D01*
X0077389Y0080601D01*
X0077643Y0080387D01*
X0077891Y0080168D01*
X0078134Y0079942D01*
X0078371Y0079711D01*
X0078602Y0079474D01*
X0078828Y0079231D01*
X0079047Y0078983D01*
X0079261Y0078729D01*
X0079468Y0078471D01*
X0079668Y0078207D01*
X0079862Y0077938D01*
X0080050Y0077665D01*
X0080231Y0077387D01*
X0080404Y0077105D01*
X0080571Y0076819D01*
X0080731Y0076529D01*
X0080884Y0076235D01*
X0081029Y0075937D01*
X0081167Y0075636D01*
X0081297Y0075331D01*
X0081420Y0075024D01*
X0081536Y0074713D01*
X0081644Y0074400D01*
X0081744Y0074084D01*
X0081836Y0073766D01*
X0081920Y0073445D01*
X0081997Y0073123D01*
X0082066Y0072799D01*
X0082126Y0072473D01*
X0082179Y0072146D01*
X0082223Y0071818D01*
X0082260Y0071488D01*
X0082288Y0071158D01*
X0082309Y0070827D01*
X0082321Y0070496D01*
X0082325Y0070165D01*
X0082321Y0069834D01*
X0082309Y0069503D01*
X0082288Y0069172D01*
X0082260Y0068842D01*
X0082223Y0068512D01*
X0082179Y0068184D01*
X0082126Y0067857D01*
X0082066Y0067531D01*
X0081997Y0067207D01*
X0081920Y0066885D01*
X0081836Y0066564D01*
X0081744Y0066246D01*
X0081644Y0065930D01*
X0081536Y0065617D01*
X0081420Y0065306D01*
X0081297Y0064999D01*
X0081167Y0064694D01*
X0081029Y0064393D01*
X0080884Y0064095D01*
X0080731Y0063801D01*
X0080571Y0063511D01*
X0080404Y0063225D01*
X0080231Y0062943D01*
X0080050Y0062665D01*
X0079862Y0062392D01*
X0079668Y0062123D01*
X0079468Y0061859D01*
X0079261Y0061601D01*
X0079047Y0061347D01*
X0078828Y0061099D01*
X0078602Y0060856D01*
X0078371Y0060619D01*
X0078134Y0060388D01*
X0077891Y0060162D01*
X0077643Y0059943D01*
X0077389Y0059729D01*
X0077131Y0059522D01*
X0076867Y0059322D01*
X0076598Y0059128D01*
X0076325Y0058940D01*
X0076047Y0058759D01*
X0075765Y0058586D01*
X0075479Y0058419D01*
X0075189Y0058259D01*
X0074895Y0058106D01*
X0074597Y0057961D01*
X0074296Y0057823D01*
X0073991Y0057693D01*
X0073684Y0057570D01*
X0073373Y0057454D01*
X0073060Y0057346D01*
X0072744Y0057246D01*
X0072426Y0057154D01*
X0072105Y0057070D01*
X0071783Y0056993D01*
X0071459Y0056924D01*
X0071133Y0056864D01*
X0070806Y0056811D01*
X0070478Y0056767D01*
X0070148Y0056730D01*
X0069818Y0056702D01*
X0069487Y0056681D01*
X0069156Y0056669D01*
X0068825Y0056665D01*
X0068494Y0056669D01*
X0068163Y0056681D01*
X0067832Y0056702D01*
X0067502Y0056730D01*
X0067172Y0056767D01*
X0066844Y0056811D01*
X0066517Y0056864D01*
X0066191Y0056924D01*
X0065867Y0056993D01*
X0065545Y0057070D01*
X0065224Y0057154D01*
X0064906Y0057246D01*
X0064590Y0057346D01*
X0064277Y0057454D01*
X0063966Y0057570D01*
X0063659Y0057693D01*
X0063354Y0057823D01*
X0063053Y0057961D01*
X0062755Y0058106D01*
X0062461Y0058259D01*
X0062171Y0058419D01*
X0061885Y0058586D01*
X0061603Y0058759D01*
X0061325Y0058940D01*
X0061052Y0059128D01*
X0060783Y0059322D01*
X0060519Y0059522D01*
X0060261Y0059729D01*
X0060007Y0059943D01*
X0059759Y0060162D01*
X0059516Y0060388D01*
X0059279Y0060619D01*
X0059048Y0060856D01*
X0058822Y0061099D01*
X0058603Y0061347D01*
X0058389Y0061601D01*
X0058182Y0061859D01*
X0057982Y0062123D01*
X0057788Y0062392D01*
X0057600Y0062665D01*
X0057419Y0062943D01*
X0057246Y0063225D01*
X0057079Y0063511D01*
X0056919Y0063801D01*
X0056766Y0064095D01*
X0056621Y0064393D01*
X0056483Y0064694D01*
X0056353Y0064999D01*
X0056230Y0065306D01*
X0056114Y0065617D01*
X0056006Y0065930D01*
X0055906Y0066246D01*
X0055814Y0066564D01*
X0055730Y0066885D01*
X0055653Y0067207D01*
X0055584Y0067531D01*
X0055524Y0067857D01*
X0055471Y0068184D01*
X0055427Y0068512D01*
X0055390Y0068842D01*
X0055362Y0069172D01*
X0055341Y0069503D01*
X0055329Y0069834D01*
X0055325Y0070165D01*
X0184500Y0070180D02*
X0184504Y0070511D01*
X0184516Y0070842D01*
X0184537Y0071173D01*
X0184565Y0071503D01*
X0184602Y0071833D01*
X0184646Y0072161D01*
X0184699Y0072488D01*
X0184759Y0072814D01*
X0184828Y0073138D01*
X0184905Y0073460D01*
X0184989Y0073781D01*
X0185081Y0074099D01*
X0185181Y0074415D01*
X0185289Y0074728D01*
X0185405Y0075039D01*
X0185528Y0075346D01*
X0185658Y0075651D01*
X0185796Y0075952D01*
X0185941Y0076250D01*
X0186094Y0076544D01*
X0186254Y0076834D01*
X0186421Y0077120D01*
X0186594Y0077402D01*
X0186775Y0077680D01*
X0186963Y0077953D01*
X0187157Y0078222D01*
X0187357Y0078486D01*
X0187564Y0078744D01*
X0187778Y0078998D01*
X0187997Y0079246D01*
X0188223Y0079489D01*
X0188454Y0079726D01*
X0188691Y0079957D01*
X0188934Y0080183D01*
X0189182Y0080402D01*
X0189436Y0080616D01*
X0189694Y0080823D01*
X0189958Y0081023D01*
X0190227Y0081217D01*
X0190500Y0081405D01*
X0190778Y0081586D01*
X0191060Y0081759D01*
X0191346Y0081926D01*
X0191636Y0082086D01*
X0191930Y0082239D01*
X0192228Y0082384D01*
X0192529Y0082522D01*
X0192834Y0082652D01*
X0193141Y0082775D01*
X0193452Y0082891D01*
X0193765Y0082999D01*
X0194081Y0083099D01*
X0194399Y0083191D01*
X0194720Y0083275D01*
X0195042Y0083352D01*
X0195366Y0083421D01*
X0195692Y0083481D01*
X0196019Y0083534D01*
X0196347Y0083578D01*
X0196677Y0083615D01*
X0197007Y0083643D01*
X0197338Y0083664D01*
X0197669Y0083676D01*
X0198000Y0083680D01*
X0198331Y0083676D01*
X0198662Y0083664D01*
X0198993Y0083643D01*
X0199323Y0083615D01*
X0199653Y0083578D01*
X0199981Y0083534D01*
X0200308Y0083481D01*
X0200634Y0083421D01*
X0200958Y0083352D01*
X0201280Y0083275D01*
X0201601Y0083191D01*
X0201919Y0083099D01*
X0202235Y0082999D01*
X0202548Y0082891D01*
X0202859Y0082775D01*
X0203166Y0082652D01*
X0203471Y0082522D01*
X0203772Y0082384D01*
X0204070Y0082239D01*
X0204364Y0082086D01*
X0204654Y0081926D01*
X0204940Y0081759D01*
X0205222Y0081586D01*
X0205500Y0081405D01*
X0205773Y0081217D01*
X0206042Y0081023D01*
X0206306Y0080823D01*
X0206564Y0080616D01*
X0206818Y0080402D01*
X0207066Y0080183D01*
X0207309Y0079957D01*
X0207546Y0079726D01*
X0207777Y0079489D01*
X0208003Y0079246D01*
X0208222Y0078998D01*
X0208436Y0078744D01*
X0208643Y0078486D01*
X0208843Y0078222D01*
X0209037Y0077953D01*
X0209225Y0077680D01*
X0209406Y0077402D01*
X0209579Y0077120D01*
X0209746Y0076834D01*
X0209906Y0076544D01*
X0210059Y0076250D01*
X0210204Y0075952D01*
X0210342Y0075651D01*
X0210472Y0075346D01*
X0210595Y0075039D01*
X0210711Y0074728D01*
X0210819Y0074415D01*
X0210919Y0074099D01*
X0211011Y0073781D01*
X0211095Y0073460D01*
X0211172Y0073138D01*
X0211241Y0072814D01*
X0211301Y0072488D01*
X0211354Y0072161D01*
X0211398Y0071833D01*
X0211435Y0071503D01*
X0211463Y0071173D01*
X0211484Y0070842D01*
X0211496Y0070511D01*
X0211500Y0070180D01*
X0211496Y0069849D01*
X0211484Y0069518D01*
X0211463Y0069187D01*
X0211435Y0068857D01*
X0211398Y0068527D01*
X0211354Y0068199D01*
X0211301Y0067872D01*
X0211241Y0067546D01*
X0211172Y0067222D01*
X0211095Y0066900D01*
X0211011Y0066579D01*
X0210919Y0066261D01*
X0210819Y0065945D01*
X0210711Y0065632D01*
X0210595Y0065321D01*
X0210472Y0065014D01*
X0210342Y0064709D01*
X0210204Y0064408D01*
X0210059Y0064110D01*
X0209906Y0063816D01*
X0209746Y0063526D01*
X0209579Y0063240D01*
X0209406Y0062958D01*
X0209225Y0062680D01*
X0209037Y0062407D01*
X0208843Y0062138D01*
X0208643Y0061874D01*
X0208436Y0061616D01*
X0208222Y0061362D01*
X0208003Y0061114D01*
X0207777Y0060871D01*
X0207546Y0060634D01*
X0207309Y0060403D01*
X0207066Y0060177D01*
X0206818Y0059958D01*
X0206564Y0059744D01*
X0206306Y0059537D01*
X0206042Y0059337D01*
X0205773Y0059143D01*
X0205500Y0058955D01*
X0205222Y0058774D01*
X0204940Y0058601D01*
X0204654Y0058434D01*
X0204364Y0058274D01*
X0204070Y0058121D01*
X0203772Y0057976D01*
X0203471Y0057838D01*
X0203166Y0057708D01*
X0202859Y0057585D01*
X0202548Y0057469D01*
X0202235Y0057361D01*
X0201919Y0057261D01*
X0201601Y0057169D01*
X0201280Y0057085D01*
X0200958Y0057008D01*
X0200634Y0056939D01*
X0200308Y0056879D01*
X0199981Y0056826D01*
X0199653Y0056782D01*
X0199323Y0056745D01*
X0198993Y0056717D01*
X0198662Y0056696D01*
X0198331Y0056684D01*
X0198000Y0056680D01*
X0197669Y0056684D01*
X0197338Y0056696D01*
X0197007Y0056717D01*
X0196677Y0056745D01*
X0196347Y0056782D01*
X0196019Y0056826D01*
X0195692Y0056879D01*
X0195366Y0056939D01*
X0195042Y0057008D01*
X0194720Y0057085D01*
X0194399Y0057169D01*
X0194081Y0057261D01*
X0193765Y0057361D01*
X0193452Y0057469D01*
X0193141Y0057585D01*
X0192834Y0057708D01*
X0192529Y0057838D01*
X0192228Y0057976D01*
X0191930Y0058121D01*
X0191636Y0058274D01*
X0191346Y0058434D01*
X0191060Y0058601D01*
X0190778Y0058774D01*
X0190500Y0058955D01*
X0190227Y0059143D01*
X0189958Y0059337D01*
X0189694Y0059537D01*
X0189436Y0059744D01*
X0189182Y0059958D01*
X0188934Y0060177D01*
X0188691Y0060403D01*
X0188454Y0060634D01*
X0188223Y0060871D01*
X0187997Y0061114D01*
X0187778Y0061362D01*
X0187564Y0061616D01*
X0187357Y0061874D01*
X0187157Y0062138D01*
X0186963Y0062407D01*
X0186775Y0062680D01*
X0186594Y0062958D01*
X0186421Y0063240D01*
X0186254Y0063526D01*
X0186094Y0063816D01*
X0185941Y0064110D01*
X0185796Y0064408D01*
X0185658Y0064709D01*
X0185528Y0065014D01*
X0185405Y0065321D01*
X0185289Y0065632D01*
X0185181Y0065945D01*
X0185081Y0066261D01*
X0184989Y0066579D01*
X0184905Y0066900D01*
X0184828Y0067222D01*
X0184759Y0067546D01*
X0184699Y0067872D01*
X0184646Y0068199D01*
X0184602Y0068527D01*
X0184565Y0068857D01*
X0184537Y0069187D01*
X0184516Y0069518D01*
X0184504Y0069849D01*
X0184500Y0070180D01*
D13*
X0126689Y0101227D02*
X0126098Y0100636D01*
X0125409Y0101325D01*
X0126000Y0101916D01*
X0126689Y0101227D01*
X0123100Y0201284D02*
X0123691Y0201875D01*
X0123002Y0202564D01*
X0122411Y0201973D01*
X0123100Y0201284D01*
D14*
X0122017Y0200300D03*
X0127083Y0102900D03*
M02*
