G75*
%MOIN*%
%OFA0B0*%
%FSLAX25Y25*%
%IPPOS*%
%LPD*%
%AMOC8*
5,1,8,0,0,1.08239X$1,22.5*
%
%ADD10C,0.00600*%
%ADD11R,0.03937X0.04331*%
%ADD12R,0.00787X0.03937*%
%ADD13R,0.03937X0.00787*%
%ADD14R,0.04724X0.07874*%
%ADD15R,0.02362X0.05315*%
%ADD16R,0.00787X0.03150*%
%ADD17R,0.03150X0.00787*%
%ADD18C,0.03031*%
%ADD19R,0.07874X0.09843*%
%ADD20R,0.07874X0.12992*%
%ADD21R,0.01969X0.12205*%
%ADD22R,0.06457X0.04882*%
%ADD23R,0.04331X0.03937*%
%ADD24R,0.04724X0.04724*%
%ADD25C,0.07400*%
%ADD26R,0.07874X0.04724*%
%ADD27R,0.05315X0.02362*%
%ADD28C,0.04528*%
%ADD29C,0.00800*%
%ADD30C,0.02000*%
%ADD31C,0.02400*%
%ADD32C,0.01200*%
%ADD33C,0.00300*%
%ADD34C,0.01000*%
%ADD35C,0.01600*%
%ADD36C,0.00787*%
D10*
X0059504Y0091955D02*
X0060972Y0091955D01*
X0061706Y0092689D01*
X0061706Y0093423D01*
X0060972Y0094157D01*
X0058770Y0094157D01*
X0058770Y0092689D01*
X0059504Y0091955D01*
X0058770Y0094157D02*
X0060238Y0095625D01*
X0061706Y0096359D01*
X0063374Y0096359D02*
X0064842Y0096359D01*
X0064108Y0096359D02*
X0064108Y0091955D01*
X0063374Y0091955D02*
X0064842Y0091955D01*
X0066444Y0094157D02*
X0069379Y0094157D01*
X0071047Y0095625D02*
X0071047Y0092689D01*
X0071781Y0091955D01*
X0073249Y0091955D01*
X0073983Y0092689D01*
X0073983Y0095625D01*
X0073249Y0096359D01*
X0071781Y0096359D01*
X0071047Y0095625D01*
X0068645Y0096359D02*
X0066444Y0094157D01*
X0068645Y0091955D02*
X0068645Y0096359D01*
X0067978Y0099455D02*
X0070914Y0102391D01*
X0070914Y0103125D01*
X0070180Y0103859D01*
X0068712Y0103859D01*
X0067978Y0103125D01*
X0066310Y0103125D02*
X0065576Y0103859D01*
X0064108Y0103859D01*
X0063374Y0103125D01*
X0063374Y0102391D01*
X0064108Y0101657D01*
X0066310Y0101657D01*
X0066310Y0100189D02*
X0066310Y0103125D01*
X0066310Y0100189D02*
X0065576Y0099455D01*
X0064108Y0099455D01*
X0063374Y0100189D01*
X0061706Y0100189D02*
X0060972Y0099455D01*
X0059504Y0099455D01*
X0058770Y0100189D01*
X0058770Y0103125D01*
X0059504Y0103859D01*
X0060972Y0103859D01*
X0061706Y0103125D01*
X0061706Y0101657D02*
X0060238Y0101657D01*
X0061706Y0101657D02*
X0061706Y0100189D01*
X0067978Y0099455D02*
X0070914Y0099455D01*
X0072582Y0100189D02*
X0073316Y0099455D01*
X0074784Y0099455D01*
X0075518Y0100189D01*
X0075518Y0101657D01*
X0074784Y0102391D01*
X0074050Y0102391D01*
X0072582Y0101657D01*
X0072582Y0103859D01*
X0075518Y0103859D01*
X0077186Y0103125D02*
X0077186Y0100189D01*
X0080122Y0103125D01*
X0080122Y0100189D01*
X0079388Y0099455D01*
X0077920Y0099455D01*
X0077186Y0100189D01*
X0077186Y0103125D02*
X0077920Y0103859D01*
X0079388Y0103859D01*
X0080122Y0103125D01*
X0078587Y0096359D02*
X0078587Y0092689D01*
X0077853Y0091955D01*
X0076385Y0091955D01*
X0075651Y0092689D01*
X0075651Y0096359D01*
X0106500Y0124825D02*
X0106608Y0124717D01*
X0110283Y0124717D01*
X0126718Y0124717D01*
X0128913Y0126912D01*
X0131000Y0124825D01*
X0131000Y0115906D01*
X0130953Y0115858D01*
X0125047Y0115858D02*
X0125047Y0103627D01*
X0124750Y0103330D01*
X0125047Y0103627D02*
X0125047Y0102992D01*
X0125047Y0102361D01*
X0125047Y0101862D01*
X0124654Y0102825D01*
X0131346Y0102825D02*
X0131500Y0101315D01*
X0131500Y0102798D01*
X0131500Y0102956D01*
X0131500Y0106825D01*
X0128913Y0126912D02*
X0125684Y0130141D01*
X0137977Y0142433D01*
X0145717Y0142433D01*
X0125684Y0130141D02*
X0119142Y0136683D01*
X0119142Y0151292D01*
X0159195Y0112325D02*
X0159307Y0112437D01*
X0169937Y0103382D02*
X0169937Y0099712D01*
X0169700Y0099475D01*
X0170163Y0096546D02*
X0169408Y0095792D01*
X0170163Y0095037D01*
X0170918Y0095792D01*
X0170163Y0096546D01*
X0172944Y0095792D02*
X0173698Y0096546D01*
X0174453Y0095792D01*
X0173698Y0095037D01*
X0172944Y0095792D01*
X0170163Y0093011D02*
X0170918Y0092256D01*
X0170163Y0091501D01*
X0169408Y0092256D01*
X0170163Y0093011D01*
X0167382Y0092256D02*
X0166627Y0091501D01*
X0165872Y0092256D01*
X0166627Y0093011D01*
X0167382Y0092256D01*
X0164731Y0089604D02*
X0163976Y0088850D01*
X0163221Y0089604D01*
X0163976Y0090359D01*
X0164731Y0089604D01*
X0163976Y0086824D02*
X0164731Y0086069D01*
X0163976Y0085314D01*
X0163221Y0086069D01*
X0163976Y0086824D01*
X0161195Y0086069D02*
X0160440Y0085314D01*
X0159685Y0086069D01*
X0160440Y0086824D01*
X0161195Y0086069D01*
X0158543Y0083417D02*
X0157789Y0082662D01*
X0157034Y0083417D01*
X0157789Y0084172D01*
X0158543Y0083417D01*
X0157789Y0080637D02*
X0158543Y0079882D01*
X0157789Y0079127D01*
X0157034Y0079882D01*
X0157789Y0080637D01*
X0155008Y0079882D02*
X0154253Y0079127D01*
X0153498Y0079882D01*
X0154253Y0080637D01*
X0155008Y0079882D01*
X0176862Y0112437D02*
X0176923Y0112498D01*
D11*
X0144500Y0087421D03*
X0144500Y0080729D03*
X0131346Y0102825D03*
X0124654Y0102825D03*
X0110000Y0108479D03*
X0110000Y0115171D03*
X0101500Y0115171D03*
X0101500Y0108479D03*
X0107250Y0087421D03*
X0107250Y0080729D03*
X0130654Y0160575D03*
X0137346Y0160575D03*
X0137346Y0170575D03*
X0130654Y0170575D03*
X0117596Y0170575D03*
X0110904Y0170575D03*
D12*
X0117173Y0151292D03*
X0119142Y0151292D03*
X0121110Y0151292D03*
X0123079Y0151292D03*
X0125047Y0151292D03*
X0127016Y0151292D03*
X0128984Y0151292D03*
X0130953Y0151292D03*
X0132921Y0151292D03*
X0134890Y0151292D03*
X0136858Y0151292D03*
X0138827Y0151292D03*
X0138827Y0115858D03*
X0136858Y0115858D03*
X0134890Y0115858D03*
X0132921Y0115858D03*
X0130953Y0115858D03*
X0128984Y0115858D03*
X0127016Y0115858D03*
X0125047Y0115858D03*
X0123079Y0115858D03*
X0121110Y0115858D03*
X0119142Y0115858D03*
X0117173Y0115858D03*
D13*
X0110283Y0122748D03*
X0110283Y0124717D03*
X0110283Y0126685D03*
X0110283Y0128654D03*
X0110283Y0130622D03*
X0110283Y0132591D03*
X0110283Y0134559D03*
X0110283Y0136528D03*
X0110283Y0138496D03*
X0110283Y0140465D03*
X0110283Y0142433D03*
X0110283Y0144402D03*
X0145717Y0144402D03*
X0145717Y0142433D03*
X0145717Y0140465D03*
X0145717Y0138496D03*
X0145717Y0136528D03*
X0145717Y0134559D03*
X0145717Y0132591D03*
X0145717Y0130622D03*
X0145717Y0128654D03*
X0145717Y0126685D03*
X0145717Y0124717D03*
X0145717Y0122748D03*
D14*
X0115874Y0208494D03*
X0093826Y0208494D03*
D15*
X0098944Y0194025D03*
X0102881Y0194025D03*
X0106819Y0194025D03*
X0110756Y0194025D03*
D16*
X0162063Y0116768D03*
X0163638Y0116768D03*
X0165213Y0116768D03*
X0166787Y0116768D03*
X0168362Y0116768D03*
X0169937Y0116768D03*
X0169937Y0103382D03*
X0168362Y0103382D03*
X0166787Y0103382D03*
X0165213Y0103382D03*
X0163638Y0103382D03*
X0162063Y0103382D03*
D17*
X0159307Y0106138D03*
X0159307Y0107713D03*
X0159307Y0109288D03*
X0159307Y0110862D03*
X0159307Y0112437D03*
X0159307Y0114012D03*
X0172693Y0114012D03*
X0172693Y0112437D03*
X0172693Y0110862D03*
X0172693Y0109288D03*
X0172693Y0107713D03*
X0172693Y0106138D03*
D18*
X0164484Y0108244D02*
X0164484Y0111906D01*
X0167516Y0111906D01*
X0167516Y0108244D01*
X0164484Y0108244D01*
X0164484Y0111274D02*
X0167516Y0111274D01*
D19*
X0167770Y0207386D03*
X0132730Y0207386D03*
D20*
X0132730Y0184158D03*
X0167770Y0184158D03*
D21*
X0156549Y0183764D03*
X0153400Y0183764D03*
X0150250Y0183764D03*
X0147100Y0183764D03*
X0143951Y0183764D03*
D22*
X0133770Y0092839D03*
X0133770Y0083311D03*
X0118730Y0083311D03*
X0118730Y0092839D03*
D23*
X0097250Y0095171D03*
X0097250Y0088479D03*
D24*
X0097250Y0081959D03*
X0097250Y0073691D03*
D25*
X0157750Y0145075D03*
X0157750Y0155075D03*
X0157750Y0165075D03*
X0167750Y0165075D03*
X0177750Y0165075D03*
X0177750Y0155075D03*
X0167750Y0155075D03*
X0167750Y0145075D03*
X0177750Y0145075D03*
X0187750Y0145075D03*
X0187750Y0155075D03*
X0187750Y0165075D03*
D26*
X0060531Y0158067D03*
X0060531Y0120083D03*
D27*
X0075000Y0125201D03*
X0075000Y0129138D03*
X0075000Y0133075D03*
X0075000Y0137012D03*
X0075000Y0141012D03*
X0075000Y0145012D03*
X0075000Y0149012D03*
X0075000Y0152949D03*
D28*
X0092617Y0129537D03*
X0093500Y0111075D03*
X0103250Y0101575D03*
X0139000Y0100825D03*
X0147750Y0096575D03*
X0152500Y0106575D03*
X0147250Y0112325D03*
X0155000Y0122075D03*
X0165500Y0122825D03*
X0174500Y0118825D03*
X0183500Y0123325D03*
X0186500Y0130575D03*
X0194750Y0135575D03*
X0184500Y0110825D03*
X0145750Y0150325D03*
X0111250Y0151325D03*
X0108700Y0178325D03*
X0119800Y0184975D03*
X0182750Y0184575D03*
D29*
X0079050Y0057343D02*
X0078240Y0056875D01*
X0188674Y0056875D01*
X0185978Y0059025D01*
X0185978Y0059025D01*
X0185978Y0059025D01*
X0183224Y0063064D01*
X0183224Y0063064D01*
X0181783Y0067736D01*
X0181783Y0072624D01*
X0183224Y0077296D01*
X0183224Y0077296D01*
X0185978Y0081335D01*
X0185978Y0081335D01*
X0185978Y0081335D01*
X0189800Y0084383D01*
X0189800Y0084383D01*
X0194351Y0086169D01*
X0194351Y0086169D01*
X0199226Y0086534D01*
X0199226Y0086534D01*
X0203992Y0085446D01*
X0203992Y0085446D01*
X0208225Y0083002D01*
X0208225Y0083002D01*
X0211331Y0079655D01*
X0211393Y0190002D01*
X0208290Y0186658D01*
X0208290Y0186658D01*
X0204057Y0184214D01*
X0199291Y0183126D01*
X0199291Y0183126D01*
X0194416Y0183491D01*
X0194416Y0183491D01*
X0189865Y0185277D01*
X0189865Y0185277D01*
X0186043Y0188325D01*
X0186043Y0188325D01*
X0186043Y0188325D01*
X0183289Y0192364D01*
X0183289Y0192364D01*
X0181848Y0197036D01*
X0181848Y0201924D01*
X0183289Y0206596D01*
X0183289Y0206596D01*
X0186043Y0210635D01*
X0186043Y0210635D01*
X0188727Y0212775D01*
X0173107Y0212775D01*
X0173107Y0201885D01*
X0172287Y0201065D01*
X0163253Y0201065D01*
X0162433Y0201885D01*
X0162433Y0212775D01*
X0138067Y0212775D01*
X0138067Y0201885D01*
X0137247Y0201065D01*
X0128213Y0201065D01*
X0127393Y0201885D01*
X0127393Y0212775D01*
X0119636Y0212775D01*
X0119636Y0203977D01*
X0118816Y0203156D01*
X0112932Y0203156D01*
X0112111Y0203977D01*
X0112111Y0212775D01*
X0097589Y0212775D01*
X0097589Y0203977D01*
X0096768Y0203156D01*
X0090884Y0203156D01*
X0090064Y0203977D01*
X0090064Y0212775D01*
X0078070Y0212775D01*
X0079010Y0212232D01*
X0079010Y0212232D01*
X0082335Y0208648D01*
X0082335Y0208648D01*
X0084456Y0204244D01*
X0084456Y0204244D01*
X0085185Y0199410D01*
X0084456Y0194576D01*
X0084456Y0194576D01*
X0082335Y0190172D01*
X0082335Y0190172D01*
X0079010Y0186588D01*
X0079010Y0186588D01*
X0074777Y0184144D01*
X0074777Y0184144D01*
X0070011Y0183056D01*
X0070011Y0183056D01*
X0065136Y0183421D01*
X0065136Y0183421D01*
X0060585Y0185207D01*
X0060585Y0185207D01*
X0056763Y0188255D01*
X0056763Y0188255D01*
X0056763Y0188255D01*
X0055534Y0190057D01*
X0055512Y0161327D01*
X0056015Y0161829D01*
X0065048Y0161829D01*
X0065868Y0161009D01*
X0065868Y0155125D01*
X0065048Y0154305D01*
X0056015Y0154305D01*
X0055507Y0154812D01*
X0055483Y0123314D01*
X0056015Y0123845D01*
X0065048Y0123845D01*
X0065868Y0123025D01*
X0065868Y0117141D01*
X0065048Y0116321D01*
X0056015Y0116321D01*
X0055478Y0116857D01*
X0055450Y0079335D01*
X0056803Y0081320D01*
X0056803Y0081320D01*
X0056803Y0081320D01*
X0060625Y0084368D01*
X0060625Y0084368D01*
X0065176Y0086154D01*
X0070051Y0086519D01*
X0074817Y0085431D01*
X0079050Y0082987D01*
X0082375Y0079403D01*
X0082375Y0079403D01*
X0082375Y0079403D01*
X0084496Y0074999D01*
X0084496Y0074999D01*
X0085225Y0070165D01*
X0084496Y0065331D01*
X0082375Y0060927D01*
X0082375Y0060927D01*
X0079050Y0057343D01*
X0079050Y0057343D01*
X0079397Y0057716D02*
X0187619Y0057716D01*
X0188620Y0056918D02*
X0078314Y0056918D01*
X0080138Y0058515D02*
X0186618Y0058515D01*
X0185781Y0059313D02*
X0080879Y0059313D01*
X0081619Y0060112D02*
X0185237Y0060112D01*
X0184693Y0060910D02*
X0082360Y0060910D01*
X0082752Y0061709D02*
X0184148Y0061709D01*
X0183604Y0062507D02*
X0083137Y0062507D01*
X0083521Y0063306D02*
X0093537Y0063306D01*
X0093733Y0063225D02*
X0152767Y0063225D01*
X0153723Y0063621D01*
X0154454Y0064352D01*
X0154454Y0064352D01*
X0196223Y0106121D01*
X0196954Y0106852D01*
X0197350Y0107808D01*
X0197350Y0132994D01*
X0197856Y0133500D01*
X0198000Y0133848D01*
X0199704Y0135552D01*
X0200100Y0136507D01*
X0200100Y0153092D01*
X0199704Y0154048D01*
X0198973Y0154779D01*
X0196473Y0157279D01*
X0195517Y0157675D01*
X0192193Y0157675D01*
X0192074Y0157964D01*
X0190639Y0159399D01*
X0188944Y0160101D01*
X0188944Y0160101D01*
X0189708Y0160349D01*
X0190423Y0160713D01*
X0191072Y0161185D01*
X0191640Y0161753D01*
X0192112Y0162402D01*
X0192476Y0163117D01*
X0192724Y0163881D01*
X0192850Y0164674D01*
X0192850Y0164675D01*
X0188150Y0164675D01*
X0188150Y0165475D01*
X0187350Y0165475D01*
X0187350Y0170175D01*
X0187349Y0170175D01*
X0186556Y0170049D01*
X0185792Y0169801D01*
X0185077Y0169437D01*
X0184428Y0168965D01*
X0183860Y0168397D01*
X0183388Y0167748D01*
X0183024Y0167033D01*
X0182776Y0166269D01*
X0182750Y0166108D01*
X0182724Y0166269D01*
X0182476Y0167033D01*
X0182112Y0167748D01*
X0181640Y0168397D01*
X0181072Y0168965D01*
X0180423Y0169437D01*
X0179708Y0169801D01*
X0178944Y0170049D01*
X0178151Y0170175D01*
X0178150Y0170175D01*
X0178150Y0165475D01*
X0177350Y0165475D01*
X0177350Y0170175D01*
X0177349Y0170175D01*
X0176556Y0170049D01*
X0175792Y0169801D01*
X0175077Y0169437D01*
X0174428Y0168965D01*
X0173860Y0168397D01*
X0173388Y0167748D01*
X0173024Y0167033D01*
X0172776Y0166269D01*
X0172750Y0166108D01*
X0172724Y0166269D01*
X0172476Y0167033D01*
X0172112Y0167748D01*
X0171640Y0168397D01*
X0171072Y0168965D01*
X0170423Y0169437D01*
X0169708Y0169801D01*
X0168944Y0170049D01*
X0168151Y0170175D01*
X0168150Y0170175D01*
X0168150Y0165475D01*
X0167350Y0165475D01*
X0167350Y0170175D01*
X0167349Y0170175D01*
X0166556Y0170049D01*
X0165792Y0169801D01*
X0165077Y0169437D01*
X0164428Y0168965D01*
X0163860Y0168397D01*
X0163388Y0167748D01*
X0163024Y0167033D01*
X0162776Y0166269D01*
X0162750Y0166108D01*
X0162724Y0166269D01*
X0162476Y0167033D01*
X0162112Y0167748D01*
X0161640Y0168397D01*
X0161072Y0168965D01*
X0160423Y0169437D01*
X0159708Y0169801D01*
X0158944Y0170049D01*
X0158151Y0170175D01*
X0158150Y0170175D01*
X0158150Y0165475D01*
X0157350Y0165475D01*
X0157350Y0170175D01*
X0157349Y0170175D01*
X0156556Y0170049D01*
X0155792Y0169801D01*
X0155077Y0169437D01*
X0154428Y0168965D01*
X0153860Y0168397D01*
X0153388Y0167748D01*
X0153024Y0167033D01*
X0152776Y0166269D01*
X0152650Y0165476D01*
X0152650Y0165475D01*
X0157350Y0165475D01*
X0157350Y0164675D01*
X0152650Y0164675D01*
X0152650Y0164674D01*
X0152776Y0163881D01*
X0153024Y0163117D01*
X0153388Y0162402D01*
X0153860Y0161753D01*
X0154428Y0161185D01*
X0155077Y0160713D01*
X0155792Y0160349D01*
X0156556Y0160101D01*
X0154861Y0159399D01*
X0153426Y0157964D01*
X0152650Y0156089D01*
X0152650Y0154061D01*
X0153426Y0152186D01*
X0154861Y0150751D01*
X0156494Y0150075D01*
X0154861Y0149399D01*
X0153426Y0147964D01*
X0152650Y0146089D01*
X0152650Y0144061D01*
X0153018Y0143172D01*
X0152311Y0142465D01*
X0150678Y0142465D01*
X0150478Y0142265D01*
X0149085Y0142265D01*
X0149085Y0142433D01*
X0145717Y0142433D01*
X0145717Y0142433D01*
X0149085Y0142433D01*
X0149085Y0143011D01*
X0148997Y0143340D01*
X0149085Y0143428D01*
X0149085Y0145375D01*
X0148265Y0146195D01*
X0147750Y0146195D01*
X0147750Y0147188D01*
X0147825Y0147219D01*
X0148856Y0148250D01*
X0149414Y0149596D01*
X0149414Y0151054D01*
X0148856Y0152400D01*
X0147825Y0153431D01*
X0146479Y0153989D01*
X0145021Y0153989D01*
X0143675Y0153431D01*
X0142644Y0152400D01*
X0142086Y0151054D01*
X0142086Y0149596D01*
X0142644Y0148250D01*
X0143675Y0147219D01*
X0143750Y0147188D01*
X0143750Y0146195D01*
X0143168Y0146195D01*
X0142348Y0145375D01*
X0142348Y0143428D01*
X0142436Y0143340D01*
X0142348Y0143011D01*
X0142348Y0142433D01*
X0142348Y0141855D01*
X0142436Y0141526D01*
X0142348Y0141438D01*
X0142348Y0139491D01*
X0142359Y0139480D01*
X0142348Y0139470D01*
X0142348Y0137523D01*
X0142359Y0137512D01*
X0142348Y0137501D01*
X0142348Y0135554D01*
X0142359Y0135543D01*
X0142348Y0135533D01*
X0142348Y0133586D01*
X0142359Y0133575D01*
X0142348Y0133564D01*
X0142348Y0131617D01*
X0142359Y0131606D01*
X0142348Y0131596D01*
X0142348Y0129649D01*
X0142359Y0129638D01*
X0142348Y0129627D01*
X0142348Y0127680D01*
X0142359Y0127669D01*
X0142348Y0127659D01*
X0142348Y0125712D01*
X0142359Y0125701D01*
X0142348Y0125690D01*
X0142348Y0123743D01*
X0142359Y0123732D01*
X0142348Y0123722D01*
X0142348Y0121775D01*
X0143168Y0120955D01*
X0143717Y0120955D01*
X0143717Y0120870D01*
X0143676Y0120830D01*
X0142505Y0119658D01*
X0142505Y0119583D01*
X0141172Y0118250D01*
X0140620Y0117699D01*
X0140620Y0118407D01*
X0139800Y0119227D01*
X0137853Y0119227D01*
X0137843Y0119216D01*
X0137832Y0119227D01*
X0135885Y0119227D01*
X0135874Y0119216D01*
X0135863Y0119227D01*
X0133916Y0119227D01*
X0133905Y0119216D01*
X0133895Y0119227D01*
X0131948Y0119227D01*
X0131860Y0119139D01*
X0131531Y0119227D01*
X0130953Y0119227D01*
X0130953Y0115859D01*
X0130953Y0115859D01*
X0130953Y0119227D01*
X0130375Y0119227D01*
X0130046Y0119139D01*
X0129958Y0119227D01*
X0128011Y0119227D01*
X0128000Y0119216D01*
X0127989Y0119227D01*
X0126042Y0119227D01*
X0126031Y0119216D01*
X0126021Y0119227D01*
X0124074Y0119227D01*
X0124063Y0119216D01*
X0124052Y0119227D01*
X0122105Y0119227D01*
X0122094Y0119216D01*
X0122084Y0119227D01*
X0120137Y0119227D01*
X0120126Y0119216D01*
X0120115Y0119227D01*
X0118168Y0119227D01*
X0118157Y0119216D01*
X0118147Y0119227D01*
X0116200Y0119227D01*
X0115380Y0118407D01*
X0115380Y0117658D01*
X0113368Y0117658D01*
X0113368Y0117917D01*
X0112548Y0118737D01*
X0107452Y0118737D01*
X0106631Y0117917D01*
X0106631Y0117771D01*
X0104868Y0117771D01*
X0104868Y0117917D01*
X0104800Y0117985D01*
X0104800Y0119215D01*
X0106533Y0120948D01*
X0111029Y0120948D01*
X0111035Y0120955D01*
X0112832Y0120955D01*
X0113652Y0121775D01*
X0113652Y0123722D01*
X0113564Y0123810D01*
X0113652Y0124139D01*
X0113652Y0124717D01*
X0113652Y0125295D01*
X0113564Y0125624D01*
X0113652Y0125712D01*
X0113652Y0127659D01*
X0113641Y0127669D01*
X0113652Y0127680D01*
X0113652Y0129627D01*
X0113641Y0129638D01*
X0113652Y0129649D01*
X0113652Y0131596D01*
X0113641Y0131606D01*
X0113652Y0131617D01*
X0113652Y0133564D01*
X0113641Y0133575D01*
X0142359Y0133575D01*
X0142348Y0134374D02*
X0113652Y0134374D01*
X0113652Y0133586D02*
X0113652Y0135533D01*
X0113641Y0135544D01*
X0113652Y0135554D01*
X0113652Y0137501D01*
X0113641Y0137512D01*
X0113652Y0137523D01*
X0113652Y0139470D01*
X0113641Y0139481D01*
X0113652Y0139491D01*
X0113652Y0141438D01*
X0113641Y0141449D01*
X0113652Y0141460D01*
X0113652Y0143407D01*
X0113641Y0143418D01*
X0113652Y0143428D01*
X0113652Y0145375D01*
X0112832Y0146195D01*
X0111035Y0146195D01*
X0111029Y0146202D01*
X0108394Y0146202D01*
X0106413Y0148183D01*
X0106413Y0153747D01*
X0103834Y0156325D01*
X0103834Y0156891D01*
X0096400Y0164325D01*
X0096400Y0170115D01*
X0096600Y0170598D01*
X0096600Y0182381D01*
X0100481Y0186262D01*
X0100481Y0171098D01*
X0100681Y0170615D01*
X0100681Y0167782D01*
X0110175Y0158289D01*
X0111464Y0157000D01*
X0116287Y0157000D01*
X0116687Y0157400D01*
X0117629Y0157400D01*
X0119310Y0155719D01*
X0119310Y0154660D01*
X0119142Y0154660D01*
X0119142Y0151292D01*
X0119142Y0151292D01*
X0119142Y0154660D01*
X0118564Y0154660D01*
X0118235Y0154572D01*
X0118147Y0154660D01*
X0116200Y0154660D01*
X0115380Y0153840D01*
X0115380Y0153325D01*
X0114387Y0153325D01*
X0114356Y0153400D01*
X0113325Y0154431D01*
X0111979Y0154989D01*
X0110521Y0154989D01*
X0109175Y0154431D01*
X0108144Y0153400D01*
X0107586Y0152054D01*
X0107586Y0150596D01*
X0108144Y0149250D01*
X0109175Y0148219D01*
X0110521Y0147661D01*
X0111979Y0147661D01*
X0113325Y0148219D01*
X0114356Y0149250D01*
X0114387Y0149325D01*
X0115380Y0149325D01*
X0115380Y0148743D01*
X0116200Y0147923D01*
X0118147Y0147923D01*
X0118235Y0148011D01*
X0118564Y0147923D01*
X0119142Y0147923D01*
X0119720Y0147923D01*
X0120049Y0148011D01*
X0120137Y0147923D01*
X0122084Y0147923D01*
X0122094Y0147934D01*
X0122105Y0147923D01*
X0124052Y0147923D01*
X0124063Y0147934D01*
X0124074Y0147923D01*
X0126021Y0147923D01*
X0126031Y0147934D01*
X0126042Y0147923D01*
X0127989Y0147923D01*
X0128000Y0147934D01*
X0128011Y0147923D01*
X0129958Y0147923D01*
X0129969Y0147934D01*
X0129979Y0147923D01*
X0131926Y0147923D01*
X0131937Y0147934D01*
X0131948Y0147923D01*
X0133895Y0147923D01*
X0133906Y0147934D01*
X0133916Y0147923D01*
X0135863Y0147923D01*
X0135874Y0147934D01*
X0135885Y0147923D01*
X0137832Y0147923D01*
X0137843Y0147934D01*
X0137853Y0147923D01*
X0139800Y0147923D01*
X0140620Y0148743D01*
X0140620Y0153840D01*
X0139800Y0154660D01*
X0137853Y0154660D01*
X0137843Y0154649D01*
X0137832Y0154660D01*
X0135885Y0154660D01*
X0135874Y0154649D01*
X0135863Y0154660D01*
X0133916Y0154660D01*
X0133906Y0154649D01*
X0133895Y0154660D01*
X0131948Y0154660D01*
X0131937Y0154649D01*
X0131926Y0154660D01*
X0129979Y0154660D01*
X0129969Y0154649D01*
X0129958Y0154660D01*
X0128011Y0154660D01*
X0128000Y0154649D01*
X0127989Y0154660D01*
X0126847Y0154660D01*
X0126847Y0158127D01*
X0127285Y0158564D01*
X0127285Y0157830D01*
X0128105Y0157010D01*
X0133202Y0157010D01*
X0134000Y0157808D01*
X0134798Y0157010D01*
X0139895Y0157010D01*
X0140715Y0157830D01*
X0140715Y0158375D01*
X0141974Y0158375D01*
X0155600Y0172001D01*
X0155600Y0173732D01*
X0156849Y0172482D01*
X0158021Y0171311D01*
X0177814Y0171311D01*
X0180044Y0173541D01*
X0180093Y0173541D01*
X0180975Y0173906D01*
X0183859Y0176790D01*
X0184535Y0177466D01*
X0184900Y0178348D01*
X0184900Y0181544D01*
X0185856Y0182500D01*
X0186414Y0183846D01*
X0186414Y0185304D01*
X0185856Y0186650D01*
X0184825Y0187681D01*
X0183479Y0188239D01*
X0182021Y0188239D01*
X0180675Y0187681D01*
X0179644Y0186650D01*
X0179086Y0185304D01*
X0179086Y0183846D01*
X0179644Y0182500D01*
X0180100Y0182044D01*
X0180100Y0179819D01*
X0177581Y0177300D01*
X0177216Y0176418D01*
X0177216Y0176369D01*
X0176157Y0175311D01*
X0159678Y0175311D01*
X0158549Y0176439D01*
X0158549Y0176697D01*
X0158933Y0177082D01*
X0158933Y0190446D01*
X0158113Y0191266D01*
X0154985Y0191266D01*
X0154974Y0191256D01*
X0154964Y0191266D01*
X0151835Y0191266D01*
X0151825Y0191256D01*
X0151814Y0191266D01*
X0148686Y0191266D01*
X0148675Y0191256D01*
X0148665Y0191266D01*
X0145536Y0191266D01*
X0145448Y0191178D01*
X0145119Y0191266D01*
X0144043Y0191266D01*
X0144043Y0183856D01*
X0143859Y0183856D01*
X0143859Y0191266D01*
X0142782Y0191266D01*
X0142426Y0191171D01*
X0142107Y0190987D01*
X0141846Y0190726D01*
X0141662Y0190407D01*
X0141567Y0190051D01*
X0141567Y0183856D01*
X0143859Y0183856D01*
X0143859Y0183672D01*
X0144043Y0183672D01*
X0144043Y0176262D01*
X0145119Y0176262D01*
X0145448Y0176350D01*
X0145536Y0176262D01*
X0147075Y0176262D01*
X0143589Y0172775D01*
X0140715Y0172775D01*
X0140715Y0173320D01*
X0139895Y0174140D01*
X0134798Y0174140D01*
X0134000Y0173342D01*
X0133202Y0174140D01*
X0128105Y0174140D01*
X0127285Y0173320D01*
X0127285Y0172975D01*
X0120965Y0172975D01*
X0120965Y0173320D01*
X0120145Y0174140D01*
X0115048Y0174140D01*
X0114250Y0173342D01*
X0113452Y0174140D01*
X0113253Y0174140D01*
X0113209Y0177258D01*
X0113232Y0177327D01*
X0113202Y0177733D01*
X0113197Y0178140D01*
X0113168Y0178207D01*
X0113162Y0178280D01*
X0112980Y0178643D01*
X0112819Y0179017D01*
X0112766Y0179068D01*
X0112734Y0179133D01*
X0112426Y0179399D01*
X0112134Y0179682D01*
X0112097Y0179697D01*
X0111806Y0180400D01*
X0110775Y0181431D01*
X0109429Y0181989D01*
X0107971Y0181989D01*
X0106625Y0181431D01*
X0105594Y0180400D01*
X0105281Y0179646D01*
X0105281Y0185282D01*
X0105993Y0184571D01*
X0107282Y0183282D01*
X0107326Y0183282D01*
X0108433Y0182175D01*
X0117419Y0182175D01*
X0117725Y0181869D01*
X0119071Y0181311D01*
X0120529Y0181311D01*
X0121875Y0181869D01*
X0122906Y0182900D01*
X0123464Y0184246D01*
X0123464Y0185704D01*
X0122906Y0187050D01*
X0121875Y0188081D01*
X0120529Y0188639D01*
X0119071Y0188639D01*
X0117725Y0188081D01*
X0116694Y0187050D01*
X0116497Y0186575D01*
X0110255Y0186575D01*
X0109148Y0187682D01*
X0109104Y0187682D01*
X0109018Y0187768D01*
X0109018Y0189422D01*
X0109218Y0189905D01*
X0109218Y0190014D01*
X0109390Y0189968D01*
X0110565Y0189968D01*
X0110565Y0193834D01*
X0110946Y0193834D01*
X0110946Y0189968D01*
X0112121Y0189968D01*
X0112477Y0190063D01*
X0112796Y0190247D01*
X0113057Y0190508D01*
X0113241Y0190827D01*
X0113337Y0191183D01*
X0113337Y0193834D01*
X0110946Y0193834D01*
X0110946Y0194216D01*
X0110565Y0194216D01*
X0110565Y0198082D01*
X0109390Y0198082D01*
X0109034Y0197987D01*
X0108806Y0197856D01*
X0108580Y0198082D01*
X0105057Y0198082D01*
X0104850Y0197875D01*
X0104642Y0198082D01*
X0101120Y0198082D01*
X0100913Y0197875D01*
X0100705Y0198082D01*
X0097183Y0198082D01*
X0096363Y0197262D01*
X0096363Y0190788D01*
X0096544Y0190607D01*
X0096544Y0189114D01*
X0092841Y0185410D01*
X0092165Y0184734D01*
X0091800Y0183852D01*
X0091800Y0170598D01*
X0092000Y0170115D01*
X0092000Y0162503D01*
X0100723Y0153780D01*
X0101289Y0153780D01*
X0102813Y0152255D01*
X0102813Y0147049D01*
X0102460Y0147402D01*
X0102460Y0147977D01*
X0096700Y0153736D01*
X0095411Y0155025D01*
X0078742Y0155025D01*
X0078237Y0155530D01*
X0071763Y0155530D01*
X0070943Y0154710D01*
X0070943Y0151188D01*
X0071150Y0150981D01*
X0070943Y0150773D01*
X0070943Y0147251D01*
X0071182Y0147012D01*
X0070943Y0146773D01*
X0070943Y0143251D01*
X0071182Y0143012D01*
X0070943Y0142773D01*
X0070943Y0139251D01*
X0071182Y0139012D01*
X0070943Y0138773D01*
X0070943Y0135251D01*
X0071150Y0135043D01*
X0070943Y0134836D01*
X0070943Y0131314D01*
X0071169Y0131087D01*
X0071038Y0130859D01*
X0070943Y0130503D01*
X0070943Y0129329D01*
X0074809Y0129329D01*
X0074809Y0128947D01*
X0070943Y0128947D01*
X0070943Y0127773D01*
X0071038Y0127416D01*
X0071169Y0127189D01*
X0070943Y0126962D01*
X0070943Y0123440D01*
X0071763Y0122620D01*
X0073150Y0122620D01*
X0073150Y0119058D01*
X0073546Y0118102D01*
X0085150Y0106498D01*
X0085150Y0071808D01*
X0085546Y0070852D01*
X0092777Y0063621D01*
X0093733Y0063225D01*
X0092294Y0064105D02*
X0083906Y0064105D01*
X0084290Y0064903D02*
X0091495Y0064903D01*
X0090697Y0065702D02*
X0084552Y0065702D01*
X0084496Y0065331D02*
X0084496Y0065331D01*
X0084673Y0066500D02*
X0089898Y0066500D01*
X0089099Y0067299D02*
X0084793Y0067299D01*
X0084913Y0068097D02*
X0088301Y0068097D01*
X0087502Y0068896D02*
X0085034Y0068896D01*
X0085154Y0069694D02*
X0086704Y0069694D01*
X0085905Y0070493D02*
X0085176Y0070493D01*
X0085055Y0071291D02*
X0085364Y0071291D01*
X0085150Y0072090D02*
X0084935Y0072090D01*
X0084815Y0072888D02*
X0085150Y0072888D01*
X0085150Y0073687D02*
X0084694Y0073687D01*
X0084574Y0074485D02*
X0085150Y0074485D01*
X0085150Y0075284D02*
X0084359Y0075284D01*
X0083975Y0076082D02*
X0085150Y0076082D01*
X0085150Y0076881D02*
X0083590Y0076881D01*
X0083206Y0077679D02*
X0085150Y0077679D01*
X0085150Y0078478D02*
X0082821Y0078478D01*
X0082437Y0079276D02*
X0085150Y0079276D01*
X0085150Y0080075D02*
X0081752Y0080075D01*
X0081012Y0080873D02*
X0085150Y0080873D01*
X0085150Y0081672D02*
X0080271Y0081672D01*
X0079530Y0082470D02*
X0085150Y0082470D01*
X0085150Y0083269D02*
X0078562Y0083269D01*
X0077179Y0084067D02*
X0085150Y0084067D01*
X0085150Y0084866D02*
X0075796Y0084866D01*
X0073796Y0085664D02*
X0085150Y0085664D01*
X0085150Y0086463D02*
X0070297Y0086463D01*
X0069299Y0086463D02*
X0055455Y0086463D01*
X0055456Y0087261D02*
X0085150Y0087261D01*
X0085150Y0088060D02*
X0055456Y0088060D01*
X0055457Y0088858D02*
X0085150Y0088858D01*
X0085150Y0089657D02*
X0055457Y0089657D01*
X0055458Y0090455D02*
X0058600Y0090455D01*
X0058800Y0090255D02*
X0061676Y0090255D01*
X0062173Y0090752D01*
X0062670Y0090255D01*
X0065546Y0090255D01*
X0066542Y0091251D01*
X0066542Y0092457D01*
X0066945Y0092457D01*
X0066945Y0091251D01*
X0067941Y0090255D01*
X0069350Y0090255D01*
X0070213Y0091119D01*
X0071077Y0090255D01*
X0073953Y0090255D01*
X0074522Y0090823D01*
X0074687Y0090989D01*
X0074687Y0090989D01*
X0074817Y0091119D01*
X0074947Y0090989D01*
X0074947Y0090989D01*
X0075681Y0090255D01*
X0078557Y0090255D01*
X0079126Y0090823D01*
X0079291Y0090989D01*
X0079291Y0090989D01*
X0079719Y0091417D01*
X0080287Y0091985D01*
X0080287Y0097063D01*
X0079595Y0097755D01*
X0080092Y0097755D01*
X0080677Y0098340D01*
X0080826Y0098489D01*
X0081237Y0098900D01*
X0081822Y0099485D01*
X0081822Y0103829D01*
X0081287Y0104364D01*
X0080826Y0104825D01*
X0080660Y0104991D01*
X0080092Y0105559D01*
X0077216Y0105559D01*
X0076719Y0105062D01*
X0076222Y0105559D01*
X0071878Y0105559D01*
X0071381Y0105062D01*
X0070884Y0105559D01*
X0068008Y0105559D01*
X0067144Y0104695D01*
X0067014Y0104825D01*
X0066865Y0104974D01*
X0066280Y0105559D01*
X0063404Y0105559D01*
X0062670Y0104825D01*
X0062540Y0104695D01*
X0062261Y0104974D01*
X0061676Y0105559D01*
X0058800Y0105559D01*
X0058066Y0104825D01*
X0057070Y0103829D01*
X0057070Y0099485D01*
X0057804Y0098751D01*
X0058800Y0097755D01*
X0060697Y0097755D01*
X0059837Y0097325D01*
X0059534Y0097325D01*
X0059231Y0097022D01*
X0058848Y0096830D01*
X0058752Y0096543D01*
X0057975Y0095766D01*
X0057070Y0094861D01*
X0057070Y0091985D01*
X0057804Y0091251D01*
X0058800Y0090255D01*
X0057801Y0091254D02*
X0055459Y0091254D01*
X0055459Y0092052D02*
X0057070Y0092052D01*
X0057070Y0092851D02*
X0055460Y0092851D01*
X0055461Y0093649D02*
X0057070Y0093649D01*
X0057070Y0094448D02*
X0055461Y0094448D01*
X0055462Y0095246D02*
X0057456Y0095246D01*
X0058254Y0096045D02*
X0055462Y0096045D01*
X0055463Y0096843D02*
X0058874Y0096843D01*
X0058115Y0098441D02*
X0055464Y0098441D01*
X0055465Y0099239D02*
X0057316Y0099239D01*
X0057070Y0100038D02*
X0055465Y0100038D01*
X0055466Y0100836D02*
X0057070Y0100836D01*
X0057070Y0101635D02*
X0055467Y0101635D01*
X0055467Y0102433D02*
X0057070Y0102433D01*
X0057070Y0103232D02*
X0055468Y0103232D01*
X0055468Y0104030D02*
X0057271Y0104030D01*
X0058070Y0104829D02*
X0055469Y0104829D01*
X0055470Y0105627D02*
X0085150Y0105627D01*
X0085150Y0104829D02*
X0080822Y0104829D01*
X0080826Y0104825D02*
X0080826Y0104825D01*
X0081621Y0104030D02*
X0085150Y0104030D01*
X0085150Y0103232D02*
X0081822Y0103232D01*
X0081822Y0102433D02*
X0085150Y0102433D01*
X0085150Y0101635D02*
X0081822Y0101635D01*
X0081822Y0100836D02*
X0085150Y0100836D01*
X0085150Y0100038D02*
X0081822Y0100038D01*
X0081576Y0099239D02*
X0085150Y0099239D01*
X0085150Y0098441D02*
X0080778Y0098441D01*
X0080826Y0098489D02*
X0080826Y0098489D01*
X0079708Y0097642D02*
X0085150Y0097642D01*
X0085150Y0096843D02*
X0080287Y0096843D01*
X0080287Y0096045D02*
X0085150Y0096045D01*
X0085150Y0095246D02*
X0080287Y0095246D01*
X0080287Y0094448D02*
X0085150Y0094448D01*
X0085150Y0093649D02*
X0080287Y0093649D01*
X0080287Y0092851D02*
X0085150Y0092851D01*
X0085150Y0092052D02*
X0080287Y0092052D01*
X0079556Y0091254D02*
X0085150Y0091254D01*
X0085150Y0090455D02*
X0078758Y0090455D01*
X0075481Y0090455D02*
X0074154Y0090455D01*
X0070877Y0090455D02*
X0069550Y0090455D01*
X0067741Y0090455D02*
X0065747Y0090455D01*
X0066542Y0091254D02*
X0066945Y0091254D01*
X0066945Y0092052D02*
X0066542Y0092052D01*
X0062470Y0090455D02*
X0061877Y0090455D01*
X0063928Y0085664D02*
X0055454Y0085664D01*
X0055454Y0084866D02*
X0061894Y0084866D01*
X0060248Y0084067D02*
X0055453Y0084067D01*
X0055453Y0083269D02*
X0059247Y0083269D01*
X0058246Y0082470D02*
X0055452Y0082470D01*
X0055451Y0081672D02*
X0057244Y0081672D01*
X0056498Y0080873D02*
X0055451Y0080873D01*
X0055450Y0080075D02*
X0055954Y0080075D01*
X0055464Y0097642D02*
X0060471Y0097642D01*
X0062406Y0104829D02*
X0062674Y0104829D01*
X0067010Y0104829D02*
X0067278Y0104829D01*
X0067014Y0104825D02*
X0067014Y0104825D01*
X0055470Y0106426D02*
X0085150Y0106426D01*
X0084424Y0107224D02*
X0055471Y0107224D01*
X0055472Y0108023D02*
X0083625Y0108023D01*
X0082827Y0108821D02*
X0055472Y0108821D01*
X0055473Y0109620D02*
X0082028Y0109620D01*
X0081230Y0110418D02*
X0055473Y0110418D01*
X0055474Y0111217D02*
X0080431Y0111217D01*
X0079633Y0112015D02*
X0055475Y0112015D01*
X0055475Y0112814D02*
X0078834Y0112814D01*
X0078036Y0113612D02*
X0055476Y0113612D01*
X0055476Y0114411D02*
X0077237Y0114411D01*
X0076439Y0115209D02*
X0055477Y0115209D01*
X0055478Y0116008D02*
X0075640Y0116008D01*
X0074842Y0116806D02*
X0065534Y0116806D01*
X0065868Y0117605D02*
X0074043Y0117605D01*
X0073421Y0118403D02*
X0065868Y0118403D01*
X0065868Y0119202D02*
X0073150Y0119202D01*
X0073150Y0120000D02*
X0065868Y0120000D01*
X0065868Y0120799D02*
X0073150Y0120799D01*
X0073150Y0121597D02*
X0065868Y0121597D01*
X0065868Y0122396D02*
X0073150Y0122396D01*
X0071188Y0123194D02*
X0065699Y0123194D01*
X0070943Y0123993D02*
X0055484Y0123993D01*
X0055484Y0124791D02*
X0070943Y0124791D01*
X0070943Y0125590D02*
X0055485Y0125590D01*
X0055486Y0126388D02*
X0070943Y0126388D01*
X0071167Y0127187D02*
X0055486Y0127187D01*
X0055487Y0127985D02*
X0070943Y0127985D01*
X0070943Y0128784D02*
X0055487Y0128784D01*
X0055488Y0129582D02*
X0070943Y0129582D01*
X0070943Y0130381D02*
X0055489Y0130381D01*
X0055489Y0131179D02*
X0071077Y0131179D01*
X0070943Y0131978D02*
X0055490Y0131978D01*
X0055491Y0132776D02*
X0070943Y0132776D01*
X0070943Y0133575D02*
X0055491Y0133575D01*
X0055492Y0134374D02*
X0070943Y0134374D01*
X0071021Y0135172D02*
X0055492Y0135172D01*
X0055493Y0135971D02*
X0070943Y0135971D01*
X0070943Y0136769D02*
X0055494Y0136769D01*
X0055494Y0137568D02*
X0070943Y0137568D01*
X0070943Y0138366D02*
X0055495Y0138366D01*
X0055495Y0139165D02*
X0071029Y0139165D01*
X0070943Y0139963D02*
X0055496Y0139963D01*
X0055497Y0140762D02*
X0070943Y0140762D01*
X0070943Y0141560D02*
X0055497Y0141560D01*
X0055498Y0142359D02*
X0070943Y0142359D01*
X0071036Y0143157D02*
X0055498Y0143157D01*
X0055499Y0143956D02*
X0070943Y0143956D01*
X0070943Y0144754D02*
X0055500Y0144754D01*
X0055500Y0145553D02*
X0070943Y0145553D01*
X0070943Y0146351D02*
X0055501Y0146351D01*
X0055502Y0147150D02*
X0071044Y0147150D01*
X0070943Y0147948D02*
X0055502Y0147948D01*
X0055503Y0148747D02*
X0070943Y0148747D01*
X0070943Y0149545D02*
X0055503Y0149545D01*
X0055504Y0150344D02*
X0070943Y0150344D01*
X0070988Y0151142D02*
X0055505Y0151142D01*
X0055505Y0151941D02*
X0070943Y0151941D01*
X0070943Y0152739D02*
X0055506Y0152739D01*
X0055506Y0153538D02*
X0070943Y0153538D01*
X0070943Y0154336D02*
X0065080Y0154336D01*
X0065868Y0155135D02*
X0071367Y0155135D01*
X0065868Y0155933D02*
X0098569Y0155933D01*
X0099368Y0155135D02*
X0078633Y0155135D01*
X0065868Y0156732D02*
X0097771Y0156732D01*
X0096972Y0157530D02*
X0065868Y0157530D01*
X0065868Y0158329D02*
X0096174Y0158329D01*
X0095375Y0159127D02*
X0065868Y0159127D01*
X0065868Y0159926D02*
X0094577Y0159926D01*
X0093778Y0160724D02*
X0065868Y0160724D01*
X0065355Y0161523D02*
X0092980Y0161523D01*
X0092181Y0162321D02*
X0055513Y0162321D01*
X0055513Y0161523D02*
X0055708Y0161523D01*
X0055514Y0163120D02*
X0092000Y0163120D01*
X0092000Y0163918D02*
X0055514Y0163918D01*
X0055515Y0164717D02*
X0092000Y0164717D01*
X0092000Y0165515D02*
X0055516Y0165515D01*
X0055516Y0166314D02*
X0092000Y0166314D01*
X0092000Y0167112D02*
X0055517Y0167112D01*
X0055517Y0167911D02*
X0092000Y0167911D01*
X0092000Y0168709D02*
X0055518Y0168709D01*
X0055519Y0169508D02*
X0092000Y0169508D01*
X0091921Y0170307D02*
X0055519Y0170307D01*
X0055520Y0171105D02*
X0091800Y0171105D01*
X0091800Y0171904D02*
X0055521Y0171904D01*
X0055521Y0172702D02*
X0091800Y0172702D01*
X0091800Y0173501D02*
X0055522Y0173501D01*
X0055522Y0174299D02*
X0091800Y0174299D01*
X0091800Y0175098D02*
X0055523Y0175098D01*
X0055524Y0175896D02*
X0091800Y0175896D01*
X0091800Y0176695D02*
X0055524Y0176695D01*
X0055525Y0177493D02*
X0091800Y0177493D01*
X0091800Y0178292D02*
X0055525Y0178292D01*
X0055526Y0179090D02*
X0091800Y0179090D01*
X0091800Y0179889D02*
X0055527Y0179889D01*
X0055527Y0180687D02*
X0091800Y0180687D01*
X0091800Y0181486D02*
X0055528Y0181486D01*
X0055528Y0182284D02*
X0091800Y0182284D01*
X0091800Y0183083D02*
X0070128Y0183083D01*
X0069652Y0183083D02*
X0055529Y0183083D01*
X0055530Y0183881D02*
X0063964Y0183881D01*
X0061929Y0184680D02*
X0055530Y0184680D01*
X0055531Y0185478D02*
X0060245Y0185478D01*
X0059244Y0186277D02*
X0055532Y0186277D01*
X0055532Y0187075D02*
X0058243Y0187075D01*
X0057241Y0187874D02*
X0055533Y0187874D01*
X0055533Y0188672D02*
X0056479Y0188672D01*
X0055934Y0189471D02*
X0055534Y0189471D01*
X0073627Y0183881D02*
X0091812Y0183881D01*
X0092143Y0184680D02*
X0075705Y0184680D01*
X0077088Y0185478D02*
X0092909Y0185478D01*
X0093708Y0186277D02*
X0078471Y0186277D01*
X0079010Y0186588D02*
X0079010Y0186588D01*
X0079462Y0187075D02*
X0094506Y0187075D01*
X0095305Y0187874D02*
X0080203Y0187874D01*
X0080944Y0188672D02*
X0096103Y0188672D01*
X0096544Y0189471D02*
X0081685Y0189471D01*
X0082382Y0190269D02*
X0096544Y0190269D01*
X0096363Y0191068D02*
X0082767Y0191068D01*
X0083151Y0191866D02*
X0096363Y0191866D01*
X0096363Y0192665D02*
X0083536Y0192665D01*
X0083921Y0193463D02*
X0096363Y0193463D01*
X0096363Y0194262D02*
X0084305Y0194262D01*
X0084529Y0195060D02*
X0096363Y0195060D01*
X0096363Y0195859D02*
X0084650Y0195859D01*
X0084770Y0196657D02*
X0096363Y0196657D01*
X0096557Y0197456D02*
X0084890Y0197456D01*
X0085011Y0198254D02*
X0181848Y0198254D01*
X0181848Y0197456D02*
X0160243Y0197456D01*
X0159852Y0197847D02*
X0157970Y0197847D01*
X0156640Y0196516D01*
X0156640Y0194634D01*
X0157970Y0193303D01*
X0159852Y0193303D01*
X0161183Y0194634D01*
X0161183Y0196516D01*
X0159852Y0197847D01*
X0161042Y0196657D02*
X0181965Y0196657D01*
X0182211Y0195859D02*
X0161183Y0195859D01*
X0161183Y0195060D02*
X0182457Y0195060D01*
X0182704Y0194262D02*
X0160811Y0194262D01*
X0160012Y0193463D02*
X0182950Y0193463D01*
X0183196Y0192665D02*
X0113337Y0192665D01*
X0113337Y0193463D02*
X0140488Y0193463D01*
X0140648Y0193303D02*
X0142530Y0193303D01*
X0143860Y0194634D01*
X0143860Y0196516D01*
X0142530Y0197847D01*
X0140648Y0197847D01*
X0139317Y0196516D01*
X0139317Y0194634D01*
X0140648Y0193303D01*
X0139689Y0194262D02*
X0113337Y0194262D01*
X0113337Y0194216D02*
X0113337Y0196867D01*
X0113241Y0197223D01*
X0113057Y0197542D01*
X0112796Y0197803D01*
X0112477Y0197987D01*
X0112121Y0198082D01*
X0110946Y0198082D01*
X0110946Y0194216D01*
X0113337Y0194216D01*
X0113337Y0195060D02*
X0139317Y0195060D01*
X0139317Y0195859D02*
X0113337Y0195859D01*
X0113337Y0196657D02*
X0139458Y0196657D01*
X0140257Y0197456D02*
X0113107Y0197456D01*
X0110946Y0197456D02*
X0110565Y0197456D01*
X0110565Y0196657D02*
X0110946Y0196657D01*
X0110946Y0195859D02*
X0110565Y0195859D01*
X0110565Y0195060D02*
X0110946Y0195060D01*
X0110946Y0194262D02*
X0110565Y0194262D01*
X0110565Y0193463D02*
X0110946Y0193463D01*
X0110946Y0192665D02*
X0110565Y0192665D01*
X0110565Y0191866D02*
X0110946Y0191866D01*
X0110946Y0191068D02*
X0110565Y0191068D01*
X0110565Y0190269D02*
X0110946Y0190269D01*
X0112818Y0190269D02*
X0127393Y0190269D01*
X0127393Y0189471D02*
X0109039Y0189471D01*
X0109018Y0188672D02*
X0127393Y0188672D01*
X0127393Y0187874D02*
X0122083Y0187874D01*
X0122881Y0187075D02*
X0127393Y0187075D01*
X0127393Y0186277D02*
X0123226Y0186277D01*
X0123464Y0185478D02*
X0127393Y0185478D01*
X0127393Y0184680D02*
X0123464Y0184680D01*
X0123313Y0183881D02*
X0127393Y0183881D01*
X0127393Y0183083D02*
X0122982Y0183083D01*
X0122291Y0182284D02*
X0127393Y0182284D01*
X0127393Y0181486D02*
X0120950Y0181486D01*
X0118650Y0181486D02*
X0110643Y0181486D01*
X0111519Y0180687D02*
X0127393Y0180687D01*
X0127393Y0179889D02*
X0112018Y0179889D01*
X0112755Y0179090D02*
X0127393Y0179090D01*
X0127393Y0178292D02*
X0113156Y0178292D01*
X0113220Y0177493D02*
X0127393Y0177493D01*
X0127393Y0177082D02*
X0128213Y0176262D01*
X0137247Y0176262D01*
X0138067Y0177082D01*
X0138067Y0191234D01*
X0137247Y0192054D01*
X0128213Y0192054D01*
X0127393Y0191234D01*
X0127393Y0177082D01*
X0127780Y0176695D02*
X0113217Y0176695D01*
X0113228Y0175896D02*
X0146710Y0175896D01*
X0145911Y0175098D02*
X0113240Y0175098D01*
X0113251Y0174299D02*
X0145113Y0174299D01*
X0144314Y0173501D02*
X0140535Y0173501D01*
X0142107Y0176541D02*
X0142426Y0176357D01*
X0142782Y0176262D01*
X0143859Y0176262D01*
X0143859Y0183672D01*
X0141567Y0183672D01*
X0141567Y0177477D01*
X0141662Y0177121D01*
X0141846Y0176802D01*
X0142107Y0176541D01*
X0141954Y0176695D02*
X0137680Y0176695D01*
X0138067Y0177493D02*
X0141567Y0177493D01*
X0141567Y0178292D02*
X0138067Y0178292D01*
X0138067Y0179090D02*
X0141567Y0179090D01*
X0141567Y0179889D02*
X0138067Y0179889D01*
X0138067Y0180687D02*
X0141567Y0180687D01*
X0141567Y0181486D02*
X0138067Y0181486D01*
X0138067Y0182284D02*
X0141567Y0182284D01*
X0141567Y0183083D02*
X0138067Y0183083D01*
X0138067Y0183881D02*
X0141567Y0183881D01*
X0141567Y0184680D02*
X0138067Y0184680D01*
X0138067Y0185478D02*
X0141567Y0185478D01*
X0141567Y0186277D02*
X0138067Y0186277D01*
X0138067Y0187075D02*
X0141567Y0187075D01*
X0141567Y0187874D02*
X0138067Y0187874D01*
X0138067Y0188672D02*
X0141567Y0188672D01*
X0141567Y0189471D02*
X0138067Y0189471D01*
X0138067Y0190269D02*
X0141625Y0190269D01*
X0142248Y0191068D02*
X0138067Y0191068D01*
X0137435Y0191866D02*
X0163065Y0191866D01*
X0163253Y0192054D02*
X0162433Y0191234D01*
X0162433Y0177082D01*
X0163253Y0176262D01*
X0172287Y0176262D01*
X0173107Y0177082D01*
X0173107Y0191234D01*
X0172287Y0192054D01*
X0163253Y0192054D01*
X0162433Y0191068D02*
X0158312Y0191068D01*
X0158933Y0190269D02*
X0162433Y0190269D01*
X0162433Y0189471D02*
X0158933Y0189471D01*
X0158933Y0188672D02*
X0162433Y0188672D01*
X0162433Y0187874D02*
X0158933Y0187874D01*
X0158933Y0187075D02*
X0162433Y0187075D01*
X0162433Y0186277D02*
X0158933Y0186277D01*
X0158933Y0185478D02*
X0162433Y0185478D01*
X0162433Y0184680D02*
X0158933Y0184680D01*
X0158933Y0183881D02*
X0162433Y0183881D01*
X0162433Y0183083D02*
X0158933Y0183083D01*
X0158933Y0182284D02*
X0162433Y0182284D01*
X0162433Y0181486D02*
X0158933Y0181486D01*
X0158933Y0180687D02*
X0162433Y0180687D01*
X0162433Y0179889D02*
X0158933Y0179889D01*
X0158933Y0179090D02*
X0162433Y0179090D01*
X0162433Y0178292D02*
X0158933Y0178292D01*
X0158933Y0177493D02*
X0162433Y0177493D01*
X0162820Y0176695D02*
X0158549Y0176695D01*
X0159092Y0175896D02*
X0176743Y0175896D01*
X0177330Y0176695D02*
X0172720Y0176695D01*
X0173107Y0177493D02*
X0177774Y0177493D01*
X0178573Y0178292D02*
X0173107Y0178292D01*
X0173107Y0179090D02*
X0179371Y0179090D01*
X0180100Y0179889D02*
X0173107Y0179889D01*
X0173107Y0180687D02*
X0180100Y0180687D01*
X0180100Y0181486D02*
X0173107Y0181486D01*
X0173107Y0182284D02*
X0179859Y0182284D01*
X0179402Y0183083D02*
X0173107Y0183083D01*
X0173107Y0183881D02*
X0179086Y0183881D01*
X0179086Y0184680D02*
X0173107Y0184680D01*
X0173107Y0185478D02*
X0179158Y0185478D01*
X0179489Y0186277D02*
X0173107Y0186277D01*
X0173107Y0187075D02*
X0180069Y0187075D01*
X0181140Y0187874D02*
X0173107Y0187874D01*
X0173107Y0188672D02*
X0185806Y0188672D01*
X0185262Y0189471D02*
X0173107Y0189471D01*
X0173107Y0190269D02*
X0184717Y0190269D01*
X0184173Y0191068D02*
X0173107Y0191068D01*
X0172474Y0191866D02*
X0183629Y0191866D01*
X0184360Y0187874D02*
X0186609Y0187874D01*
X0187610Y0187075D02*
X0185431Y0187075D01*
X0186011Y0186277D02*
X0188612Y0186277D01*
X0189613Y0185478D02*
X0186342Y0185478D01*
X0186414Y0184680D02*
X0191387Y0184680D01*
X0193422Y0183881D02*
X0186414Y0183881D01*
X0186098Y0183083D02*
X0211389Y0183083D01*
X0211390Y0183881D02*
X0202600Y0183881D01*
X0204864Y0184680D02*
X0211390Y0184680D01*
X0211391Y0185478D02*
X0206247Y0185478D01*
X0207630Y0186277D02*
X0211391Y0186277D01*
X0211391Y0187075D02*
X0208677Y0187075D01*
X0209418Y0187874D02*
X0211392Y0187874D01*
X0211392Y0188672D02*
X0210159Y0188672D01*
X0210900Y0189471D02*
X0211393Y0189471D01*
X0211389Y0182284D02*
X0185641Y0182284D01*
X0184900Y0181486D02*
X0211388Y0181486D01*
X0211388Y0180687D02*
X0184900Y0180687D01*
X0184900Y0179889D02*
X0211387Y0179889D01*
X0211387Y0179090D02*
X0184900Y0179090D01*
X0184877Y0178292D02*
X0211386Y0178292D01*
X0211386Y0177493D02*
X0184546Y0177493D01*
X0183764Y0176695D02*
X0211386Y0176695D01*
X0211385Y0175896D02*
X0182965Y0175896D01*
X0182167Y0175098D02*
X0211385Y0175098D01*
X0211384Y0174299D02*
X0181368Y0174299D01*
X0180004Y0173501D02*
X0211384Y0173501D01*
X0211383Y0172702D02*
X0179205Y0172702D01*
X0178407Y0171904D02*
X0211383Y0171904D01*
X0211382Y0171105D02*
X0154704Y0171105D01*
X0153906Y0170307D02*
X0211382Y0170307D01*
X0211381Y0169508D02*
X0190283Y0169508D01*
X0190423Y0169437D02*
X0189708Y0169801D01*
X0188944Y0170049D01*
X0188151Y0170175D01*
X0188150Y0170175D01*
X0188150Y0165475D01*
X0192850Y0165475D01*
X0192850Y0165476D01*
X0192724Y0166269D01*
X0192476Y0167033D01*
X0192112Y0167748D01*
X0191640Y0168397D01*
X0191072Y0168965D01*
X0190423Y0169437D01*
X0191328Y0168709D02*
X0211381Y0168709D01*
X0211381Y0167911D02*
X0191993Y0167911D01*
X0192436Y0167112D02*
X0211380Y0167112D01*
X0211380Y0166314D02*
X0192710Y0166314D01*
X0192844Y0165515D02*
X0211379Y0165515D01*
X0211379Y0164717D02*
X0188150Y0164717D01*
X0188150Y0165515D02*
X0187350Y0165515D01*
X0187350Y0165475D02*
X0187350Y0164675D01*
X0178150Y0164675D01*
X0178150Y0165475D01*
X0182850Y0165475D01*
X0187350Y0165475D01*
X0187350Y0164717D02*
X0178150Y0164717D01*
X0178150Y0165515D02*
X0177350Y0165515D01*
X0177350Y0165475D02*
X0177350Y0164675D01*
X0168150Y0164675D01*
X0168150Y0165475D01*
X0172850Y0165475D01*
X0177350Y0165475D01*
X0177350Y0164717D02*
X0168150Y0164717D01*
X0168150Y0165515D02*
X0167350Y0165515D01*
X0167350Y0165475D02*
X0167350Y0164675D01*
X0158150Y0164675D01*
X0158150Y0165475D01*
X0162850Y0165475D01*
X0167350Y0165475D01*
X0167350Y0164717D02*
X0158150Y0164717D01*
X0158150Y0165515D02*
X0157350Y0165515D01*
X0157350Y0164717D02*
X0148316Y0164717D01*
X0149114Y0165515D02*
X0152656Y0165515D01*
X0152790Y0166314D02*
X0149913Y0166314D01*
X0150711Y0167112D02*
X0153064Y0167112D01*
X0153507Y0167911D02*
X0151510Y0167911D01*
X0152308Y0168709D02*
X0154172Y0168709D01*
X0155217Y0169508D02*
X0153107Y0169508D01*
X0155503Y0171904D02*
X0157428Y0171904D01*
X0156629Y0172702D02*
X0155600Y0172702D01*
X0155600Y0173501D02*
X0155831Y0173501D01*
X0157350Y0169508D02*
X0158150Y0169508D01*
X0158150Y0168709D02*
X0157350Y0168709D01*
X0157350Y0167911D02*
X0158150Y0167911D01*
X0158150Y0167112D02*
X0157350Y0167112D01*
X0157350Y0166314D02*
X0158150Y0166314D01*
X0161328Y0168709D02*
X0164172Y0168709D01*
X0163507Y0167911D02*
X0161993Y0167911D01*
X0162436Y0167112D02*
X0163064Y0167112D01*
X0162790Y0166314D02*
X0162710Y0166314D01*
X0160283Y0169508D02*
X0165217Y0169508D01*
X0167350Y0169508D02*
X0168150Y0169508D01*
X0168150Y0168709D02*
X0167350Y0168709D01*
X0167350Y0167911D02*
X0168150Y0167911D01*
X0168150Y0167112D02*
X0167350Y0167112D01*
X0167350Y0166314D02*
X0168150Y0166314D01*
X0171328Y0168709D02*
X0174172Y0168709D01*
X0173507Y0167911D02*
X0171993Y0167911D01*
X0172436Y0167112D02*
X0173064Y0167112D01*
X0172790Y0166314D02*
X0172710Y0166314D01*
X0177350Y0166314D02*
X0178150Y0166314D01*
X0178150Y0167112D02*
X0177350Y0167112D01*
X0177350Y0167911D02*
X0178150Y0167911D01*
X0178150Y0168709D02*
X0177350Y0168709D01*
X0177350Y0169508D02*
X0178150Y0169508D01*
X0180283Y0169508D02*
X0185217Y0169508D01*
X0184172Y0168709D02*
X0181328Y0168709D01*
X0181993Y0167911D02*
X0183507Y0167911D01*
X0183064Y0167112D02*
X0182436Y0167112D01*
X0182710Y0166314D02*
X0182790Y0166314D01*
X0187350Y0166314D02*
X0188150Y0166314D01*
X0188150Y0167112D02*
X0187350Y0167112D01*
X0187350Y0167911D02*
X0188150Y0167911D01*
X0188150Y0168709D02*
X0187350Y0168709D01*
X0187350Y0169508D02*
X0188150Y0169508D01*
X0192730Y0163918D02*
X0211378Y0163918D01*
X0211378Y0163120D02*
X0192477Y0163120D01*
X0192053Y0162321D02*
X0211377Y0162321D01*
X0211377Y0161523D02*
X0191410Y0161523D01*
X0190439Y0160724D02*
X0211377Y0160724D01*
X0211376Y0159926D02*
X0189366Y0159926D01*
X0190910Y0159127D02*
X0211376Y0159127D01*
X0211375Y0158329D02*
X0191709Y0158329D01*
X0195866Y0157530D02*
X0211375Y0157530D01*
X0211374Y0156732D02*
X0197020Y0156732D01*
X0197819Y0155933D02*
X0211374Y0155933D01*
X0211373Y0155135D02*
X0198617Y0155135D01*
X0199416Y0154336D02*
X0211373Y0154336D01*
X0211372Y0153538D02*
X0199915Y0153538D01*
X0200100Y0152739D02*
X0211372Y0152739D01*
X0211372Y0151941D02*
X0200100Y0151941D01*
X0200100Y0151142D02*
X0211371Y0151142D01*
X0211371Y0150344D02*
X0200100Y0150344D01*
X0200100Y0149545D02*
X0211370Y0149545D01*
X0211370Y0148747D02*
X0200100Y0148747D01*
X0200100Y0147948D02*
X0211369Y0147948D01*
X0211369Y0147150D02*
X0200100Y0147150D01*
X0200100Y0146351D02*
X0211368Y0146351D01*
X0211368Y0145553D02*
X0200100Y0145553D01*
X0200100Y0144754D02*
X0211367Y0144754D01*
X0211367Y0143956D02*
X0200100Y0143956D01*
X0200100Y0143157D02*
X0211367Y0143157D01*
X0211366Y0142359D02*
X0200100Y0142359D01*
X0200100Y0141560D02*
X0211366Y0141560D01*
X0211365Y0140762D02*
X0200100Y0140762D01*
X0200100Y0139963D02*
X0211365Y0139963D01*
X0211364Y0139165D02*
X0200100Y0139165D01*
X0200100Y0138366D02*
X0211364Y0138366D01*
X0211363Y0137568D02*
X0200100Y0137568D01*
X0200100Y0136769D02*
X0211363Y0136769D01*
X0211363Y0135971D02*
X0199878Y0135971D01*
X0199325Y0135172D02*
X0211362Y0135172D01*
X0211362Y0134374D02*
X0198526Y0134374D01*
X0197887Y0133575D02*
X0211361Y0133575D01*
X0211361Y0132776D02*
X0197350Y0132776D01*
X0197350Y0131978D02*
X0211360Y0131978D01*
X0211360Y0131179D02*
X0197350Y0131179D01*
X0197350Y0130381D02*
X0211359Y0130381D01*
X0211359Y0129582D02*
X0197350Y0129582D01*
X0197350Y0128784D02*
X0211358Y0128784D01*
X0211358Y0127985D02*
X0197350Y0127985D01*
X0197350Y0127187D02*
X0211358Y0127187D01*
X0211357Y0126388D02*
X0197350Y0126388D01*
X0197350Y0125590D02*
X0211357Y0125590D01*
X0211356Y0124791D02*
X0197350Y0124791D01*
X0197350Y0123993D02*
X0211356Y0123993D01*
X0211355Y0123194D02*
X0197350Y0123194D01*
X0197350Y0122396D02*
X0211355Y0122396D01*
X0211354Y0121597D02*
X0197350Y0121597D01*
X0197350Y0120799D02*
X0211354Y0120799D01*
X0211353Y0120000D02*
X0197350Y0120000D01*
X0197350Y0119202D02*
X0211353Y0119202D01*
X0211353Y0118403D02*
X0197350Y0118403D01*
X0197350Y0117605D02*
X0211352Y0117605D01*
X0211352Y0116806D02*
X0197350Y0116806D01*
X0197350Y0116008D02*
X0211351Y0116008D01*
X0211351Y0115209D02*
X0197350Y0115209D01*
X0197350Y0114411D02*
X0211350Y0114411D01*
X0211350Y0113612D02*
X0197350Y0113612D01*
X0197350Y0112814D02*
X0211349Y0112814D01*
X0211349Y0112015D02*
X0197350Y0112015D01*
X0197350Y0111217D02*
X0211349Y0111217D01*
X0211348Y0110418D02*
X0197350Y0110418D01*
X0197350Y0109620D02*
X0211348Y0109620D01*
X0211347Y0108821D02*
X0197350Y0108821D01*
X0197350Y0108023D02*
X0211347Y0108023D01*
X0211346Y0107224D02*
X0197108Y0107224D01*
X0196528Y0106426D02*
X0211346Y0106426D01*
X0211345Y0105627D02*
X0195729Y0105627D01*
X0196223Y0106121D02*
X0196223Y0106121D01*
X0194931Y0104829D02*
X0211345Y0104829D01*
X0211344Y0104030D02*
X0194132Y0104030D01*
X0193334Y0103232D02*
X0211344Y0103232D01*
X0211344Y0102433D02*
X0192535Y0102433D01*
X0191736Y0101635D02*
X0211343Y0101635D01*
X0211343Y0100836D02*
X0190938Y0100836D01*
X0190139Y0100038D02*
X0211342Y0100038D01*
X0211342Y0099239D02*
X0189341Y0099239D01*
X0188542Y0098441D02*
X0211341Y0098441D01*
X0211341Y0097642D02*
X0187744Y0097642D01*
X0186945Y0096843D02*
X0211340Y0096843D01*
X0211340Y0096045D02*
X0186147Y0096045D01*
X0185348Y0095246D02*
X0211339Y0095246D01*
X0211339Y0094448D02*
X0184550Y0094448D01*
X0183751Y0093649D02*
X0211339Y0093649D01*
X0211338Y0092851D02*
X0182953Y0092851D01*
X0182154Y0092052D02*
X0211338Y0092052D01*
X0211337Y0091254D02*
X0181356Y0091254D01*
X0180557Y0090455D02*
X0211337Y0090455D01*
X0211336Y0089657D02*
X0179759Y0089657D01*
X0178960Y0088858D02*
X0211336Y0088858D01*
X0211335Y0088060D02*
X0178162Y0088060D01*
X0177363Y0087261D02*
X0211335Y0087261D01*
X0211335Y0086463D02*
X0199538Y0086463D01*
X0198274Y0086463D02*
X0176565Y0086463D01*
X0175766Y0085664D02*
X0193065Y0085664D01*
X0191031Y0084866D02*
X0174968Y0084866D01*
X0174169Y0084067D02*
X0189404Y0084067D01*
X0188403Y0083269D02*
X0173371Y0083269D01*
X0172572Y0082470D02*
X0187402Y0082470D01*
X0186400Y0081672D02*
X0171774Y0081672D01*
X0170975Y0080873D02*
X0185663Y0080873D01*
X0185119Y0080075D02*
X0170177Y0080075D01*
X0169378Y0079276D02*
X0184574Y0079276D01*
X0184030Y0078478D02*
X0168580Y0078478D01*
X0167781Y0077679D02*
X0183486Y0077679D01*
X0183096Y0076881D02*
X0166983Y0076881D01*
X0166184Y0076082D02*
X0182850Y0076082D01*
X0182603Y0075284D02*
X0165386Y0075284D01*
X0164587Y0074485D02*
X0182357Y0074485D01*
X0182111Y0073687D02*
X0163789Y0073687D01*
X0162990Y0072888D02*
X0181865Y0072888D01*
X0181783Y0072090D02*
X0162192Y0072090D01*
X0161393Y0071291D02*
X0181783Y0071291D01*
X0181783Y0070493D02*
X0160595Y0070493D01*
X0159796Y0069694D02*
X0181783Y0069694D01*
X0181783Y0068896D02*
X0158998Y0068896D01*
X0158199Y0068097D02*
X0181783Y0068097D01*
X0181918Y0067299D02*
X0157400Y0067299D01*
X0156602Y0066500D02*
X0182164Y0066500D01*
X0182411Y0065702D02*
X0155803Y0065702D01*
X0155005Y0064903D02*
X0182657Y0064903D01*
X0182903Y0064105D02*
X0154206Y0064105D01*
X0152963Y0063306D02*
X0183150Y0063306D01*
X0164420Y0081672D02*
X0159202Y0081672D01*
X0159180Y0081649D02*
X0160243Y0082713D01*
X0160243Y0083614D01*
X0161144Y0083614D01*
X0161621Y0084090D01*
X0162208Y0084678D01*
X0162517Y0084369D01*
X0162663Y0084223D01*
X0163272Y0083614D01*
X0164680Y0083614D01*
X0165156Y0084090D01*
X0166431Y0085365D01*
X0166431Y0086773D01*
X0165435Y0087769D01*
X0165367Y0087837D01*
X0166431Y0088900D01*
X0166431Y0089801D01*
X0167332Y0089801D01*
X0167808Y0090277D01*
X0168395Y0090865D01*
X0168704Y0090556D01*
X0168850Y0090410D01*
X0169459Y0089801D01*
X0170867Y0089801D01*
X0171343Y0090277D01*
X0172618Y0091552D01*
X0172618Y0092960D01*
X0171622Y0093956D01*
X0171554Y0094024D01*
X0171604Y0094073D01*
X0171622Y0094092D01*
X0171931Y0094400D01*
X0172239Y0094092D01*
X0172239Y0094092D01*
X0172385Y0093946D01*
X0172994Y0093337D01*
X0174403Y0093337D01*
X0174879Y0093813D01*
X0176153Y0095087D01*
X0176153Y0096496D01*
X0175157Y0097492D01*
X0174893Y0097756D01*
X0174403Y0098246D01*
X0172994Y0098246D01*
X0172402Y0097654D01*
X0172239Y0097492D01*
X0171931Y0097183D01*
X0171358Y0097756D01*
X0170867Y0098246D01*
X0169459Y0098246D01*
X0168867Y0097654D01*
X0168704Y0097492D01*
X0168704Y0097492D01*
X0168249Y0097037D01*
X0167708Y0096496D01*
X0167708Y0095087D01*
X0168241Y0094554D01*
X0168704Y0094092D01*
X0168772Y0094024D01*
X0168704Y0093956D01*
X0168704Y0093956D01*
X0168395Y0093647D01*
X0168086Y0093956D01*
X0167822Y0094220D01*
X0167332Y0094711D01*
X0165923Y0094711D01*
X0165331Y0094119D01*
X0165168Y0093956D01*
X0164714Y0093501D01*
X0164172Y0092960D01*
X0164172Y0092059D01*
X0163272Y0092059D01*
X0162679Y0091467D01*
X0162517Y0091304D01*
X0162517Y0091304D01*
X0162062Y0090850D01*
X0161521Y0090309D01*
X0161521Y0088900D01*
X0162054Y0088367D01*
X0162517Y0087904D01*
X0162584Y0087837D01*
X0162517Y0087769D01*
X0162517Y0087769D01*
X0162208Y0087460D01*
X0161899Y0087769D01*
X0161635Y0088033D01*
X0161144Y0088524D01*
X0159736Y0088524D01*
X0159144Y0087932D01*
X0158981Y0087769D01*
X0158527Y0087314D01*
X0157985Y0086773D01*
X0157985Y0085872D01*
X0157084Y0085872D01*
X0156492Y0085280D01*
X0156329Y0085117D01*
X0155875Y0084663D01*
X0155334Y0084121D01*
X0155334Y0082713D01*
X0155867Y0082180D01*
X0156329Y0081717D01*
X0156329Y0081717D01*
X0156397Y0081649D01*
X0156329Y0081582D01*
X0156021Y0081273D01*
X0155712Y0081582D01*
X0155448Y0081846D01*
X0154957Y0082337D01*
X0153549Y0082337D01*
X0152957Y0081745D01*
X0152794Y0081582D01*
X0152339Y0081127D01*
X0151798Y0080586D01*
X0151798Y0079178D01*
X0151798Y0079177D01*
X0152332Y0078644D01*
X0152794Y0078182D01*
X0152940Y0078036D01*
X0153549Y0077427D01*
X0154957Y0077427D01*
X0155433Y0077903D01*
X0156021Y0078490D01*
X0156329Y0078182D01*
X0156329Y0078182D01*
X0156475Y0078036D01*
X0157084Y0077427D01*
X0158493Y0077427D01*
X0158969Y0077903D01*
X0160243Y0079178D01*
X0160243Y0080586D01*
X0159248Y0081582D01*
X0159180Y0081649D01*
X0159956Y0080873D02*
X0163621Y0080873D01*
X0162823Y0080075D02*
X0160243Y0080075D01*
X0160243Y0079276D02*
X0162024Y0079276D01*
X0161226Y0078478D02*
X0159544Y0078478D01*
X0158745Y0077679D02*
X0160427Y0077679D01*
X0159629Y0076881D02*
X0100751Y0076881D01*
X0100732Y0076913D02*
X0100472Y0077174D01*
X0100153Y0077358D01*
X0099797Y0077453D01*
X0097650Y0077453D01*
X0097650Y0074091D01*
X0101012Y0074091D01*
X0101012Y0076238D01*
X0100917Y0076594D01*
X0100732Y0076913D01*
X0101012Y0076082D02*
X0158830Y0076082D01*
X0158032Y0075284D02*
X0101012Y0075284D01*
X0101012Y0074485D02*
X0157233Y0074485D01*
X0156435Y0073687D02*
X0097650Y0073687D01*
X0097650Y0073291D02*
X0097650Y0074091D01*
X0096850Y0074091D01*
X0096850Y0073291D01*
X0097650Y0073291D01*
X0097650Y0069929D01*
X0099797Y0069929D01*
X0100153Y0070024D01*
X0100472Y0070209D01*
X0100732Y0070469D01*
X0100917Y0070789D01*
X0101012Y0071145D01*
X0101012Y0073291D01*
X0097650Y0073291D01*
X0097650Y0072888D02*
X0096850Y0072888D01*
X0096850Y0073291D02*
X0096850Y0069929D01*
X0094703Y0069929D01*
X0094347Y0070024D01*
X0094028Y0070209D01*
X0093768Y0070469D01*
X0093583Y0070789D01*
X0093488Y0071145D01*
X0093488Y0073291D01*
X0096850Y0073291D01*
X0096850Y0073687D02*
X0090350Y0073687D01*
X0090350Y0073402D02*
X0090350Y0108092D01*
X0089954Y0109048D01*
X0078350Y0120652D01*
X0078350Y0122732D01*
X0079057Y0123440D01*
X0079057Y0126962D01*
X0078831Y0127189D01*
X0078962Y0127416D01*
X0079057Y0127773D01*
X0079057Y0128947D01*
X0075191Y0128947D01*
X0075191Y0129329D01*
X0079057Y0129329D01*
X0079057Y0130503D01*
X0078962Y0130859D01*
X0078953Y0130875D01*
X0079839Y0130875D01*
X0081800Y0128914D01*
X0081800Y0123414D01*
X0083089Y0122125D01*
X0088007Y0117207D01*
X0097455Y0117207D01*
X0096642Y0116394D01*
X0096582Y0116249D01*
X0094390Y0114672D01*
X0094229Y0114739D01*
X0092771Y0114739D01*
X0091425Y0114181D01*
X0090394Y0113150D01*
X0089836Y0111804D01*
X0089836Y0110346D01*
X0090394Y0109000D01*
X0091425Y0107969D01*
X0092771Y0107411D01*
X0094229Y0107411D01*
X0095575Y0107969D01*
X0096606Y0109000D01*
X0096741Y0109326D01*
X0097039Y0109607D01*
X0097432Y0110477D01*
X0097446Y0110957D01*
X0098699Y0111859D01*
X0098749Y0111809D01*
X0098672Y0111764D01*
X0098411Y0111504D01*
X0098227Y0111184D01*
X0098131Y0110828D01*
X0098131Y0108879D01*
X0101100Y0108879D01*
X0101100Y0108079D01*
X0098131Y0108079D01*
X0098131Y0106129D01*
X0098227Y0105773D01*
X0098411Y0105454D01*
X0098672Y0105193D01*
X0098991Y0105009D01*
X0099347Y0104913D01*
X0101100Y0104913D01*
X0101100Y0108078D01*
X0101900Y0108078D01*
X0101900Y0104981D01*
X0101175Y0104681D01*
X0100144Y0103650D01*
X0099586Y0102304D01*
X0099586Y0100846D01*
X0100144Y0099500D01*
X0101175Y0098469D01*
X0102521Y0097911D01*
X0103979Y0097911D01*
X0105325Y0098469D01*
X0106356Y0099500D01*
X0106914Y0100846D01*
X0106914Y0102304D01*
X0106905Y0102325D01*
X0109672Y0102325D01*
X0104672Y0097325D01*
X0100815Y0097325D01*
X0100815Y0097720D01*
X0099995Y0098540D01*
X0094505Y0098540D01*
X0093685Y0097720D01*
X0093685Y0092623D01*
X0094483Y0091825D01*
X0093685Y0091027D01*
X0093685Y0085930D01*
X0094101Y0085514D01*
X0093488Y0084901D01*
X0093488Y0079017D01*
X0094308Y0078197D01*
X0100192Y0078197D01*
X0101012Y0079017D01*
X0101012Y0084901D01*
X0100399Y0085514D01*
X0100815Y0085930D01*
X0100815Y0091027D01*
X0100017Y0091825D01*
X0100815Y0092623D01*
X0100815Y0093325D01*
X0106328Y0093325D01*
X0107500Y0094497D01*
X0112078Y0099075D01*
X0117828Y0099075D01*
X0119000Y0100247D01*
X0121285Y0102532D01*
X0121285Y0100080D01*
X0122105Y0099260D01*
X0122754Y0099260D01*
X0122754Y0097956D01*
X0123867Y0096843D01*
X0124350Y0096359D01*
X0124350Y0085906D01*
X0123655Y0085211D01*
X0123359Y0085211D01*
X0123359Y0086332D01*
X0122539Y0087152D01*
X0114922Y0087152D01*
X0114102Y0086332D01*
X0114102Y0085711D01*
X0113009Y0085711D01*
X0112127Y0085346D01*
X0110437Y0083656D01*
X0110001Y0084091D01*
X0110078Y0084136D01*
X0110339Y0084396D01*
X0110523Y0084716D01*
X0110618Y0085072D01*
X0110618Y0087021D01*
X0107650Y0087021D01*
X0107650Y0087821D01*
X0110618Y0087821D01*
X0110618Y0089771D01*
X0110523Y0090127D01*
X0110339Y0090446D01*
X0110078Y0090707D01*
X0109759Y0090891D01*
X0109403Y0090987D01*
X0107650Y0090987D01*
X0107650Y0087821D01*
X0106850Y0087821D01*
X0106850Y0087021D01*
X0103881Y0087021D01*
X0103881Y0085072D01*
X0103977Y0084716D01*
X0104161Y0084396D01*
X0104422Y0084136D01*
X0104499Y0084091D01*
X0103881Y0083474D01*
X0103881Y0077983D01*
X0104702Y0077163D01*
X0109798Y0077163D01*
X0110618Y0077983D01*
X0110618Y0078675D01*
X0111727Y0078675D01*
X0112609Y0079040D01*
X0113285Y0079716D01*
X0114102Y0080533D01*
X0114102Y0080290D01*
X0114922Y0079470D01*
X0122539Y0079470D01*
X0123359Y0080290D01*
X0123359Y0081411D01*
X0125229Y0081411D01*
X0127037Y0083219D01*
X0128150Y0084332D01*
X0128150Y0097933D01*
X0127037Y0099046D01*
X0126824Y0099260D01*
X0127202Y0099260D01*
X0128000Y0100058D01*
X0128798Y0099260D01*
X0129446Y0099260D01*
X0129446Y0097692D01*
X0129600Y0097538D01*
X0130458Y0096680D01*
X0129961Y0096680D01*
X0129141Y0095860D01*
X0129141Y0089818D01*
X0129961Y0088998D01*
X0137578Y0088998D01*
X0138398Y0089818D01*
X0138398Y0090639D01*
X0141575Y0090639D01*
X0141589Y0090624D01*
X0141131Y0090167D01*
X0141131Y0084676D01*
X0141749Y0084059D01*
X0141672Y0084014D01*
X0141411Y0083754D01*
X0141227Y0083434D01*
X0141131Y0083078D01*
X0141131Y0081129D01*
X0144100Y0081129D01*
X0144100Y0080329D01*
X0141131Y0080329D01*
X0141131Y0078379D01*
X0141227Y0078023D01*
X0141411Y0077704D01*
X0141672Y0077443D01*
X0141991Y0077259D01*
X0142347Y0077163D01*
X0144100Y0077163D01*
X0144100Y0080328D01*
X0144900Y0080328D01*
X0144900Y0077163D01*
X0146653Y0077163D01*
X0147009Y0077259D01*
X0147328Y0077443D01*
X0147589Y0077704D01*
X0147773Y0078023D01*
X0147868Y0078379D01*
X0147868Y0080329D01*
X0144900Y0080329D01*
X0144900Y0081129D01*
X0147868Y0081129D01*
X0147868Y0083078D01*
X0147773Y0083434D01*
X0147589Y0083754D01*
X0147328Y0084014D01*
X0147251Y0084059D01*
X0147868Y0084676D01*
X0147868Y0090167D01*
X0147048Y0090987D01*
X0146700Y0090987D01*
X0146700Y0091736D01*
X0145411Y0093025D01*
X0143397Y0095039D01*
X0138398Y0095039D01*
X0138398Y0095860D01*
X0137578Y0096680D01*
X0135670Y0096680D01*
X0135670Y0096842D01*
X0133300Y0099212D01*
X0133300Y0099260D01*
X0133895Y0099260D01*
X0134715Y0100080D01*
X0134715Y0105570D01*
X0134010Y0106275D01*
X0134504Y0106275D01*
X0136887Y0103893D01*
X0135894Y0102900D01*
X0135336Y0101554D01*
X0135336Y0100096D01*
X0135894Y0098750D01*
X0136925Y0097719D01*
X0138271Y0097161D01*
X0139729Y0097161D01*
X0141075Y0097719D01*
X0142106Y0098750D01*
X0142664Y0100096D01*
X0142664Y0101554D01*
X0142106Y0102900D01*
X0141075Y0103931D01*
X0140550Y0104149D01*
X0140550Y0105321D01*
X0139496Y0106375D01*
X0136096Y0109775D01*
X0136504Y0109775D01*
X0143075Y0103204D01*
X0143075Y0098704D01*
X0144200Y0097579D01*
X0144086Y0097304D01*
X0144086Y0095846D01*
X0144644Y0094500D01*
X0145675Y0093469D01*
X0147021Y0092911D01*
X0148479Y0092911D01*
X0149825Y0093469D01*
X0150856Y0094500D01*
X0150970Y0094775D01*
X0159746Y0094775D01*
X0160800Y0095829D01*
X0163863Y0098892D01*
X0163863Y0100407D01*
X0169336Y0100407D01*
X0169341Y0100412D01*
X0169359Y0100407D01*
X0169937Y0100407D01*
X0169937Y0101008D01*
X0169937Y0101009D01*
X0169937Y0100407D01*
X0170515Y0100407D01*
X0170871Y0100503D01*
X0171190Y0100687D01*
X0171451Y0100948D01*
X0171635Y0101267D01*
X0171731Y0101623D01*
X0171731Y0103382D01*
X0170156Y0103382D01*
X0170156Y0103382D01*
X0171731Y0103382D01*
X0171731Y0104344D01*
X0174848Y0104344D01*
X0175668Y0105164D01*
X0175668Y0107112D01*
X0175663Y0107116D01*
X0175668Y0107135D01*
X0175668Y0107713D01*
X0175668Y0108291D01*
X0175663Y0108309D01*
X0175668Y0108314D01*
X0175668Y0109062D01*
X0178772Y0109062D01*
X0178972Y0108862D01*
X0181347Y0108862D01*
X0181394Y0108750D01*
X0182425Y0107719D01*
X0183771Y0107161D01*
X0185229Y0107161D01*
X0186575Y0107719D01*
X0187606Y0108750D01*
X0188164Y0110096D01*
X0188164Y0111554D01*
X0187606Y0112900D01*
X0186575Y0113931D01*
X0185229Y0114489D01*
X0183771Y0114489D01*
X0182425Y0113931D01*
X0181394Y0112900D01*
X0181378Y0112862D01*
X0179833Y0112862D01*
X0180550Y0113579D01*
X0180550Y0121094D01*
X0181425Y0120219D01*
X0182771Y0119661D01*
X0184229Y0119661D01*
X0185575Y0120219D01*
X0186606Y0121250D01*
X0187164Y0122596D01*
X0187164Y0124054D01*
X0186606Y0125400D01*
X0185575Y0126431D01*
X0184229Y0126989D01*
X0182771Y0126989D01*
X0182696Y0126958D01*
X0181078Y0128575D01*
X0183363Y0128575D01*
X0183394Y0128500D01*
X0184425Y0127469D01*
X0185771Y0126911D01*
X0187229Y0126911D01*
X0188575Y0127469D01*
X0189606Y0128500D01*
X0190164Y0129846D01*
X0190164Y0131304D01*
X0189606Y0132650D01*
X0188575Y0133681D01*
X0187229Y0134239D01*
X0185771Y0134239D01*
X0184425Y0133681D01*
X0183394Y0132650D01*
X0183363Y0132575D01*
X0178078Y0132575D01*
X0185847Y0140343D01*
X0186736Y0139975D01*
X0188764Y0139975D01*
X0190639Y0140751D01*
X0192074Y0142186D01*
X0192850Y0144061D01*
X0192850Y0146089D01*
X0192074Y0147964D01*
X0190639Y0149399D01*
X0189006Y0150075D01*
X0190639Y0150751D01*
X0192074Y0152186D01*
X0192193Y0152475D01*
X0193923Y0152475D01*
X0194900Y0151498D01*
X0194900Y0139239D01*
X0194021Y0139239D01*
X0192675Y0138681D01*
X0191644Y0137650D01*
X0191086Y0136304D01*
X0191086Y0134846D01*
X0191644Y0133500D01*
X0192150Y0132994D01*
X0192150Y0109402D01*
X0151173Y0068425D01*
X0095327Y0068425D01*
X0090350Y0073402D01*
X0090864Y0072888D02*
X0093488Y0072888D01*
X0093488Y0072090D02*
X0091662Y0072090D01*
X0092461Y0071291D02*
X0093488Y0071291D01*
X0093259Y0070493D02*
X0093754Y0070493D01*
X0094058Y0069694D02*
X0152442Y0069694D01*
X0151644Y0068896D02*
X0094856Y0068896D01*
X0096850Y0070493D02*
X0097650Y0070493D01*
X0097650Y0071291D02*
X0096850Y0071291D01*
X0096850Y0072090D02*
X0097650Y0072090D01*
X0096850Y0074091D02*
X0093488Y0074091D01*
X0093488Y0076238D01*
X0093583Y0076594D01*
X0093768Y0076913D01*
X0094028Y0077174D01*
X0094347Y0077358D01*
X0094703Y0077453D01*
X0096850Y0077453D01*
X0096850Y0074091D01*
X0096850Y0074485D02*
X0097650Y0074485D01*
X0097650Y0075284D02*
X0096850Y0075284D01*
X0096850Y0076082D02*
X0097650Y0076082D01*
X0097650Y0076881D02*
X0096850Y0076881D01*
X0093749Y0076881D02*
X0090350Y0076881D01*
X0090350Y0077679D02*
X0104186Y0077679D01*
X0103881Y0078478D02*
X0100473Y0078478D01*
X0101012Y0079276D02*
X0103881Y0079276D01*
X0103881Y0080075D02*
X0101012Y0080075D01*
X0101012Y0080873D02*
X0103881Y0080873D01*
X0103881Y0081672D02*
X0101012Y0081672D01*
X0101012Y0082470D02*
X0103881Y0082470D01*
X0103881Y0083269D02*
X0101012Y0083269D01*
X0101012Y0084067D02*
X0104475Y0084067D01*
X0103937Y0084866D02*
X0101012Y0084866D01*
X0100550Y0085664D02*
X0103881Y0085664D01*
X0103881Y0086463D02*
X0100815Y0086463D01*
X0100815Y0087261D02*
X0106850Y0087261D01*
X0106850Y0087821D02*
X0103881Y0087821D01*
X0103881Y0089771D01*
X0103977Y0090127D01*
X0104161Y0090446D01*
X0104422Y0090707D01*
X0104741Y0090891D01*
X0105097Y0090987D01*
X0106850Y0090987D01*
X0106850Y0087821D01*
X0106850Y0088060D02*
X0107650Y0088060D01*
X0107650Y0088858D02*
X0106850Y0088858D01*
X0106850Y0089657D02*
X0107650Y0089657D01*
X0107650Y0090455D02*
X0106850Y0090455D01*
X0104170Y0090455D02*
X0100815Y0090455D01*
X0100815Y0089657D02*
X0103881Y0089657D01*
X0103881Y0088858D02*
X0100815Y0088858D01*
X0100815Y0088060D02*
X0103881Y0088060D01*
X0100588Y0091254D02*
X0114102Y0091254D01*
X0114102Y0092052D02*
X0100245Y0092052D01*
X0100815Y0092851D02*
X0118330Y0092851D01*
X0118330Y0093239D02*
X0118330Y0092439D01*
X0114102Y0092439D01*
X0114102Y0090214D01*
X0114197Y0089857D01*
X0114382Y0089538D01*
X0114642Y0089278D01*
X0114962Y0089093D01*
X0115318Y0088998D01*
X0118330Y0088998D01*
X0118330Y0092439D01*
X0119130Y0092439D01*
X0119130Y0088998D01*
X0122143Y0088998D01*
X0122499Y0089093D01*
X0122818Y0089278D01*
X0123079Y0089538D01*
X0123263Y0089857D01*
X0123359Y0090214D01*
X0123359Y0092439D01*
X0119130Y0092439D01*
X0119130Y0093239D01*
X0118330Y0093239D01*
X0114102Y0093239D01*
X0114102Y0095464D01*
X0114197Y0095820D01*
X0114382Y0096139D01*
X0114642Y0096400D01*
X0114962Y0096584D01*
X0115318Y0096680D01*
X0118330Y0096680D01*
X0118330Y0093239D01*
X0118330Y0093649D02*
X0119130Y0093649D01*
X0119130Y0093239D02*
X0119130Y0096680D01*
X0122143Y0096680D01*
X0122499Y0096584D01*
X0122818Y0096400D01*
X0123079Y0096139D01*
X0123263Y0095820D01*
X0123359Y0095464D01*
X0123359Y0093239D01*
X0119130Y0093239D01*
X0119130Y0092851D02*
X0124350Y0092851D01*
X0124350Y0093649D02*
X0123359Y0093649D01*
X0123359Y0094448D02*
X0124350Y0094448D01*
X0124350Y0095246D02*
X0123359Y0095246D01*
X0123133Y0096045D02*
X0124350Y0096045D01*
X0123866Y0096843D02*
X0109847Y0096843D01*
X0109048Y0096045D02*
X0114327Y0096045D01*
X0114102Y0095246D02*
X0108250Y0095246D01*
X0107451Y0094448D02*
X0114102Y0094448D01*
X0114102Y0093649D02*
X0106653Y0093649D01*
X0104989Y0097642D02*
X0100815Y0097642D01*
X0101243Y0098441D02*
X0100095Y0098441D01*
X0100405Y0099239D02*
X0090350Y0099239D01*
X0090350Y0098441D02*
X0094405Y0098441D01*
X0093685Y0097642D02*
X0090350Y0097642D01*
X0090350Y0096843D02*
X0093685Y0096843D01*
X0093685Y0096045D02*
X0090350Y0096045D01*
X0090350Y0095246D02*
X0093685Y0095246D01*
X0093685Y0094448D02*
X0090350Y0094448D01*
X0090350Y0093649D02*
X0093685Y0093649D01*
X0093685Y0092851D02*
X0090350Y0092851D01*
X0090350Y0092052D02*
X0094255Y0092052D01*
X0093912Y0091254D02*
X0090350Y0091254D01*
X0090350Y0090455D02*
X0093685Y0090455D01*
X0093685Y0089657D02*
X0090350Y0089657D01*
X0090350Y0088858D02*
X0093685Y0088858D01*
X0093685Y0088060D02*
X0090350Y0088060D01*
X0090350Y0087261D02*
X0093685Y0087261D01*
X0093685Y0086463D02*
X0090350Y0086463D01*
X0090350Y0085664D02*
X0093950Y0085664D01*
X0093488Y0084866D02*
X0090350Y0084866D01*
X0090350Y0084067D02*
X0093488Y0084067D01*
X0093488Y0083269D02*
X0090350Y0083269D01*
X0090350Y0082470D02*
X0093488Y0082470D01*
X0093488Y0081672D02*
X0090350Y0081672D01*
X0090350Y0080873D02*
X0093488Y0080873D01*
X0093488Y0080075D02*
X0090350Y0080075D01*
X0090350Y0079276D02*
X0093488Y0079276D01*
X0094027Y0078478D02*
X0090350Y0078478D01*
X0090350Y0076082D02*
X0093488Y0076082D01*
X0093488Y0075284D02*
X0090350Y0075284D01*
X0090350Y0074485D02*
X0093488Y0074485D01*
X0101012Y0072888D02*
X0155636Y0072888D01*
X0154838Y0072090D02*
X0101012Y0072090D01*
X0101012Y0071291D02*
X0154039Y0071291D01*
X0153241Y0070493D02*
X0100746Y0070493D01*
X0110314Y0077679D02*
X0141436Y0077679D01*
X0141131Y0078478D02*
X0110618Y0078478D01*
X0112845Y0079276D02*
X0141131Y0079276D01*
X0141131Y0080075D02*
X0138155Y0080075D01*
X0138118Y0080011D02*
X0138303Y0080330D01*
X0138398Y0080686D01*
X0138398Y0082911D01*
X0134170Y0082911D01*
X0134170Y0083711D01*
X0138398Y0083711D01*
X0138398Y0085936D01*
X0138303Y0086293D01*
X0138118Y0086612D01*
X0137858Y0086872D01*
X0137538Y0087057D01*
X0137182Y0087152D01*
X0134170Y0087152D01*
X0134170Y0083711D01*
X0133370Y0083711D01*
X0133370Y0087152D01*
X0130357Y0087152D01*
X0130001Y0087057D01*
X0129682Y0086872D01*
X0129421Y0086612D01*
X0129237Y0086293D01*
X0129141Y0085936D01*
X0129141Y0083711D01*
X0133370Y0083711D01*
X0133370Y0082911D01*
X0134170Y0082911D01*
X0134170Y0079470D01*
X0137182Y0079470D01*
X0137538Y0079566D01*
X0137858Y0079750D01*
X0138118Y0080011D01*
X0138398Y0080873D02*
X0144100Y0080873D01*
X0144100Y0080075D02*
X0144900Y0080075D01*
X0144900Y0080873D02*
X0152086Y0080873D01*
X0151798Y0080075D02*
X0147868Y0080075D01*
X0147868Y0079276D02*
X0151798Y0079276D01*
X0152498Y0078478D02*
X0147868Y0078478D01*
X0147564Y0077679D02*
X0153296Y0077679D01*
X0152794Y0078182D02*
X0152794Y0078182D01*
X0155210Y0077679D02*
X0156832Y0077679D01*
X0156033Y0078478D02*
X0156008Y0078478D01*
X0156329Y0081582D02*
X0156329Y0081582D01*
X0156375Y0081672D02*
X0155622Y0081672D01*
X0155576Y0082470D02*
X0147868Y0082470D01*
X0147868Y0081672D02*
X0152884Y0081672D01*
X0152794Y0081582D02*
X0152794Y0081582D01*
X0155334Y0083269D02*
X0147817Y0083269D01*
X0147260Y0084067D02*
X0155334Y0084067D01*
X0156078Y0084866D02*
X0147868Y0084866D01*
X0147868Y0085664D02*
X0156877Y0085664D01*
X0156329Y0085117D02*
X0156329Y0085117D01*
X0157985Y0086463D02*
X0147868Y0086463D01*
X0147868Y0087261D02*
X0158474Y0087261D01*
X0158981Y0087769D02*
X0158981Y0087769D01*
X0159272Y0088060D02*
X0147868Y0088060D01*
X0147868Y0088858D02*
X0161563Y0088858D01*
X0161608Y0088060D02*
X0162361Y0088060D01*
X0162517Y0087904D02*
X0162517Y0087904D01*
X0161521Y0089657D02*
X0147868Y0089657D01*
X0147580Y0090455D02*
X0161668Y0090455D01*
X0162466Y0091254D02*
X0146700Y0091254D01*
X0146384Y0092052D02*
X0163265Y0092052D01*
X0164172Y0092851D02*
X0145585Y0092851D01*
X0145494Y0093649D02*
X0144787Y0093649D01*
X0144696Y0094448D02*
X0143988Y0094448D01*
X0144335Y0095246D02*
X0138398Y0095246D01*
X0138213Y0096045D02*
X0144086Y0096045D01*
X0144086Y0096843D02*
X0135669Y0096843D01*
X0134870Y0097642D02*
X0137111Y0097642D01*
X0136203Y0098441D02*
X0134071Y0098441D01*
X0133300Y0099239D02*
X0135691Y0099239D01*
X0135361Y0100038D02*
X0134673Y0100038D01*
X0134715Y0100836D02*
X0135336Y0100836D01*
X0135370Y0101635D02*
X0134715Y0101635D01*
X0134715Y0102433D02*
X0135700Y0102433D01*
X0136225Y0103232D02*
X0134715Y0103232D01*
X0134715Y0104030D02*
X0136749Y0104030D01*
X0135951Y0104829D02*
X0134715Y0104829D01*
X0134658Y0105627D02*
X0135152Y0105627D01*
X0135250Y0108075D02*
X0133250Y0108075D01*
X0128984Y0112341D01*
X0128984Y0115858D01*
X0127016Y0115858D02*
X0127016Y0111309D01*
X0131500Y0106825D01*
X0131500Y0102798D01*
X0131500Y0098325D01*
X0130295Y0096843D02*
X0128150Y0096843D01*
X0128150Y0096045D02*
X0129327Y0096045D01*
X0129141Y0095246D02*
X0128150Y0095246D01*
X0128150Y0094448D02*
X0129141Y0094448D01*
X0129141Y0093649D02*
X0128150Y0093649D01*
X0128150Y0092851D02*
X0129141Y0092851D01*
X0129141Y0092052D02*
X0128150Y0092052D01*
X0128150Y0091254D02*
X0129141Y0091254D01*
X0129141Y0090455D02*
X0128150Y0090455D01*
X0128150Y0089657D02*
X0129302Y0089657D01*
X0128150Y0088858D02*
X0141131Y0088858D01*
X0141131Y0088060D02*
X0128150Y0088060D01*
X0128150Y0087261D02*
X0141131Y0087261D01*
X0141131Y0086463D02*
X0138204Y0086463D01*
X0138398Y0085664D02*
X0141131Y0085664D01*
X0141131Y0084866D02*
X0138398Y0084866D01*
X0138398Y0084067D02*
X0141740Y0084067D01*
X0141183Y0083269D02*
X0134170Y0083269D01*
X0134170Y0084067D02*
X0133370Y0084067D01*
X0133370Y0083269D02*
X0127087Y0083269D01*
X0127885Y0084067D02*
X0129141Y0084067D01*
X0129141Y0084866D02*
X0128150Y0084866D01*
X0128150Y0085664D02*
X0129141Y0085664D01*
X0129335Y0086463D02*
X0128150Y0086463D01*
X0124350Y0086463D02*
X0123228Y0086463D01*
X0123359Y0085664D02*
X0124108Y0085664D01*
X0124350Y0087261D02*
X0107650Y0087261D01*
X0110618Y0086463D02*
X0114233Y0086463D01*
X0112896Y0085664D02*
X0110618Y0085664D01*
X0110563Y0084866D02*
X0111647Y0084866D01*
X0110848Y0084067D02*
X0110025Y0084067D01*
X0110618Y0088060D02*
X0124350Y0088060D01*
X0124350Y0088858D02*
X0110618Y0088858D01*
X0110618Y0089657D02*
X0114313Y0089657D01*
X0114102Y0090455D02*
X0110330Y0090455D01*
X0110645Y0097642D02*
X0123067Y0097642D01*
X0122754Y0098441D02*
X0111444Y0098441D01*
X0108981Y0101635D02*
X0106914Y0101635D01*
X0106910Y0100836D02*
X0108183Y0100836D01*
X0107384Y0100038D02*
X0106579Y0100038D01*
X0106586Y0099239D02*
X0106095Y0099239D01*
X0105787Y0098441D02*
X0105257Y0098441D01*
X0099921Y0100038D02*
X0090350Y0100038D01*
X0090350Y0100836D02*
X0099590Y0100836D01*
X0099586Y0101635D02*
X0090350Y0101635D01*
X0090350Y0102433D02*
X0099640Y0102433D01*
X0099971Y0103232D02*
X0090350Y0103232D01*
X0090350Y0104030D02*
X0100524Y0104030D01*
X0101531Y0104829D02*
X0090350Y0104829D01*
X0090350Y0105627D02*
X0098311Y0105627D01*
X0098131Y0106426D02*
X0090350Y0106426D01*
X0090350Y0107224D02*
X0098131Y0107224D01*
X0098131Y0108023D02*
X0095629Y0108023D01*
X0096428Y0108821D02*
X0101100Y0108821D01*
X0101100Y0108023D02*
X0101900Y0108023D01*
X0101900Y0108079D02*
X0101900Y0108879D01*
X0104868Y0108879D01*
X0104868Y0110828D01*
X0104773Y0111184D01*
X0104589Y0111504D01*
X0104328Y0111764D01*
X0104251Y0111809D01*
X0104868Y0112426D01*
X0104868Y0112571D01*
X0106631Y0112571D01*
X0106631Y0112426D01*
X0107249Y0111809D01*
X0107172Y0111764D01*
X0106911Y0111504D01*
X0106727Y0111184D01*
X0106631Y0110828D01*
X0106631Y0108879D01*
X0109600Y0108879D01*
X0109600Y0108079D01*
X0106631Y0108079D01*
X0106631Y0106325D01*
X0105172Y0106325D01*
X0104829Y0105983D01*
X0104868Y0106129D01*
X0104868Y0108079D01*
X0101900Y0108079D01*
X0101900Y0108821D02*
X0109600Y0108821D01*
X0110400Y0108821D02*
X0113950Y0108821D01*
X0113368Y0108879D02*
X0113368Y0110828D01*
X0113273Y0111184D01*
X0113089Y0111504D01*
X0112828Y0111764D01*
X0112751Y0111809D01*
X0113368Y0112426D01*
X0113368Y0114058D01*
X0115380Y0114058D01*
X0115380Y0113310D01*
X0116200Y0112490D01*
X0116619Y0112490D01*
X0115004Y0110875D01*
X0113950Y0109821D01*
X0113950Y0107303D01*
X0113750Y0107103D01*
X0113750Y0106325D01*
X0113368Y0106325D01*
X0113368Y0108079D01*
X0110400Y0108079D01*
X0110400Y0108879D01*
X0113368Y0108879D01*
X0113368Y0109620D02*
X0113950Y0109620D01*
X0113368Y0110418D02*
X0114548Y0110418D01*
X0115346Y0111217D02*
X0113254Y0111217D01*
X0112957Y0112015D02*
X0116145Y0112015D01*
X0115876Y0112814D02*
X0113368Y0112814D01*
X0113368Y0113612D02*
X0115380Y0113612D01*
X0117173Y0115858D02*
X0110687Y0115858D01*
X0110000Y0115171D01*
X0107042Y0112015D02*
X0104457Y0112015D01*
X0104754Y0111217D02*
X0106746Y0111217D01*
X0106631Y0110418D02*
X0104868Y0110418D01*
X0104868Y0109620D02*
X0106631Y0109620D01*
X0106631Y0108023D02*
X0104868Y0108023D01*
X0104868Y0107224D02*
X0106631Y0107224D01*
X0106631Y0106426D02*
X0104868Y0106426D01*
X0101900Y0106426D02*
X0101100Y0106426D01*
X0101100Y0107224D02*
X0101900Y0107224D01*
X0101900Y0105627D02*
X0101100Y0105627D01*
X0098131Y0109620D02*
X0097045Y0109620D01*
X0097405Y0110418D02*
X0098131Y0110418D01*
X0098246Y0111217D02*
X0097806Y0111217D01*
X0095137Y0115209D02*
X0083793Y0115209D01*
X0084591Y0114411D02*
X0091979Y0114411D01*
X0090856Y0113612D02*
X0085390Y0113612D01*
X0086188Y0112814D02*
X0090255Y0112814D01*
X0089924Y0112015D02*
X0086987Y0112015D01*
X0087785Y0111217D02*
X0089836Y0111217D01*
X0089836Y0110418D02*
X0088584Y0110418D01*
X0089382Y0109620D02*
X0090137Y0109620D01*
X0090048Y0108821D02*
X0090572Y0108821D01*
X0090350Y0108023D02*
X0091371Y0108023D01*
X0096247Y0116008D02*
X0082994Y0116008D01*
X0082196Y0116806D02*
X0097054Y0116806D01*
X0099026Y0118737D02*
X0100746Y0120457D01*
X0100746Y0121022D01*
X0104609Y0124885D01*
X0106915Y0124885D01*
X0106915Y0124717D01*
X0110283Y0124717D01*
X0110283Y0124717D01*
X0106915Y0124717D01*
X0106915Y0124548D01*
X0105042Y0124548D01*
X0102254Y0121760D01*
X0101200Y0120706D01*
X0101200Y0118737D01*
X0099026Y0118737D01*
X0099491Y0119202D02*
X0101200Y0119202D01*
X0101200Y0120000D02*
X0100289Y0120000D01*
X0100746Y0120799D02*
X0101293Y0120799D01*
X0101321Y0121597D02*
X0102091Y0121597D01*
X0102119Y0122396D02*
X0102890Y0122396D01*
X0102918Y0123194D02*
X0103688Y0123194D01*
X0103716Y0123993D02*
X0104487Y0123993D01*
X0104515Y0124791D02*
X0106915Y0124791D01*
X0105788Y0122748D02*
X0103000Y0119960D01*
X0103000Y0115421D01*
X0104800Y0118403D02*
X0107118Y0118403D01*
X0105586Y0120000D02*
X0142847Y0120000D01*
X0142123Y0119202D02*
X0139826Y0119202D01*
X0140620Y0118403D02*
X0141325Y0118403D01*
X0143645Y0120799D02*
X0106384Y0120799D01*
X0105788Y0122748D02*
X0110283Y0122748D01*
X0110284Y0124717D02*
X0110284Y0124717D01*
X0113652Y0124717D01*
X0110284Y0124717D01*
X0110283Y0126685D02*
X0103863Y0126685D01*
X0098546Y0121368D01*
X0097442Y0126017D02*
X0099000Y0127575D01*
X0096705Y0130622D02*
X0110283Y0130622D01*
X0113652Y0130381D02*
X0142348Y0130381D01*
X0142348Y0131179D02*
X0113652Y0131179D01*
X0113652Y0131978D02*
X0142348Y0131978D01*
X0142348Y0132776D02*
X0113652Y0132776D01*
X0113641Y0133575D02*
X0113652Y0133586D01*
X0113652Y0135172D02*
X0142348Y0135172D01*
X0142348Y0135971D02*
X0113652Y0135971D01*
X0113652Y0136769D02*
X0142348Y0136769D01*
X0142348Y0137568D02*
X0113652Y0137568D01*
X0113652Y0138366D02*
X0142348Y0138366D01*
X0142348Y0139165D02*
X0113652Y0139165D01*
X0113652Y0139963D02*
X0142348Y0139963D01*
X0142348Y0140762D02*
X0113652Y0140762D01*
X0113652Y0141560D02*
X0142427Y0141560D01*
X0142348Y0142359D02*
X0113652Y0142359D01*
X0113652Y0143157D02*
X0142387Y0143157D01*
X0142348Y0142433D02*
X0145716Y0142433D01*
X0142348Y0142433D01*
X0142348Y0143956D02*
X0113652Y0143956D01*
X0113652Y0144754D02*
X0142348Y0144754D01*
X0142525Y0145553D02*
X0113475Y0145553D01*
X0112672Y0147948D02*
X0116174Y0147948D01*
X0115380Y0148747D02*
X0113853Y0148747D01*
X0116749Y0151292D02*
X0117173Y0151292D01*
X0119142Y0151291D02*
X0119142Y0151291D01*
X0119142Y0147923D01*
X0119142Y0151291D01*
X0119142Y0151142D02*
X0119142Y0151142D01*
X0119142Y0150344D02*
X0119142Y0150344D01*
X0119142Y0149545D02*
X0119142Y0149545D01*
X0119142Y0148747D02*
X0119142Y0148747D01*
X0119142Y0147948D02*
X0119142Y0147948D01*
X0119814Y0147948D02*
X0120111Y0147948D01*
X0118470Y0147948D02*
X0118172Y0147948D01*
X0119142Y0151941D02*
X0119142Y0151941D01*
X0119142Y0152739D02*
X0119142Y0152739D01*
X0119142Y0153538D02*
X0119142Y0153538D01*
X0119142Y0154336D02*
X0119142Y0154336D01*
X0119310Y0155135D02*
X0105025Y0155135D01*
X0105823Y0154336D02*
X0109080Y0154336D01*
X0108281Y0153538D02*
X0106413Y0153538D01*
X0106413Y0152739D02*
X0107870Y0152739D01*
X0107586Y0151941D02*
X0106413Y0151941D01*
X0106413Y0151142D02*
X0107586Y0151142D01*
X0107691Y0150344D02*
X0106413Y0150344D01*
X0106413Y0149545D02*
X0108022Y0149545D01*
X0108647Y0148747D02*
X0106413Y0148747D01*
X0106648Y0147948D02*
X0109828Y0147948D01*
X0108245Y0146351D02*
X0143750Y0146351D01*
X0143750Y0147150D02*
X0107446Y0147150D01*
X0107649Y0144402D02*
X0104613Y0147438D01*
X0104613Y0153001D01*
X0101634Y0155980D01*
X0103195Y0157530D02*
X0110933Y0157530D01*
X0110135Y0158329D02*
X0102396Y0158329D01*
X0101598Y0159127D02*
X0109336Y0159127D01*
X0108538Y0159926D02*
X0100799Y0159926D01*
X0100001Y0160724D02*
X0107739Y0160724D01*
X0106941Y0161523D02*
X0099202Y0161523D01*
X0098404Y0162321D02*
X0106142Y0162321D01*
X0105344Y0163120D02*
X0097605Y0163120D01*
X0096807Y0163918D02*
X0104545Y0163918D01*
X0103747Y0164717D02*
X0096400Y0164717D01*
X0096400Y0165515D02*
X0102948Y0165515D01*
X0102150Y0166314D02*
X0096400Y0166314D01*
X0096400Y0167112D02*
X0101351Y0167112D01*
X0100681Y0167911D02*
X0096400Y0167911D01*
X0096400Y0168709D02*
X0100681Y0168709D01*
X0100681Y0169508D02*
X0096400Y0169508D01*
X0096479Y0170307D02*
X0100681Y0170307D01*
X0100481Y0171105D02*
X0096600Y0171105D01*
X0096600Y0171904D02*
X0100481Y0171904D01*
X0100481Y0172702D02*
X0096600Y0172702D01*
X0096600Y0173501D02*
X0100481Y0173501D01*
X0100481Y0174299D02*
X0096600Y0174299D01*
X0096600Y0175098D02*
X0100481Y0175098D01*
X0100481Y0175896D02*
X0096600Y0175896D01*
X0096600Y0176695D02*
X0100481Y0176695D01*
X0100481Y0177493D02*
X0096600Y0177493D01*
X0096600Y0178292D02*
X0100481Y0178292D01*
X0100481Y0179090D02*
X0096600Y0179090D01*
X0096600Y0179889D02*
X0100481Y0179889D01*
X0100481Y0180687D02*
X0096600Y0180687D01*
X0096600Y0181486D02*
X0100481Y0181486D01*
X0100481Y0182284D02*
X0096600Y0182284D01*
X0097302Y0183083D02*
X0100481Y0183083D01*
X0100481Y0183881D02*
X0098100Y0183881D01*
X0098899Y0184680D02*
X0100481Y0184680D01*
X0100481Y0185478D02*
X0099697Y0185478D01*
X0105281Y0184680D02*
X0105884Y0184680D01*
X0105281Y0183881D02*
X0106683Y0183881D01*
X0107525Y0183083D02*
X0105281Y0183083D01*
X0105281Y0182284D02*
X0108324Y0182284D01*
X0106757Y0181486D02*
X0105281Y0181486D01*
X0105281Y0180687D02*
X0105881Y0180687D01*
X0105382Y0179889D02*
X0105281Y0179889D01*
X0109755Y0187075D02*
X0116719Y0187075D01*
X0117517Y0187874D02*
X0109018Y0187874D01*
X0113306Y0191068D02*
X0127393Y0191068D01*
X0128026Y0191866D02*
X0113337Y0191866D01*
X0112244Y0203844D02*
X0097456Y0203844D01*
X0097589Y0204643D02*
X0112111Y0204643D01*
X0112111Y0205441D02*
X0097589Y0205441D01*
X0097589Y0206240D02*
X0112111Y0206240D01*
X0112111Y0207038D02*
X0097589Y0207038D01*
X0097589Y0207837D02*
X0112111Y0207837D01*
X0112111Y0208635D02*
X0097589Y0208635D01*
X0097589Y0209434D02*
X0112111Y0209434D01*
X0112111Y0210232D02*
X0097589Y0210232D01*
X0097589Y0211031D02*
X0112111Y0211031D01*
X0112111Y0211829D02*
X0097589Y0211829D01*
X0097589Y0212628D02*
X0112111Y0212628D01*
X0119636Y0212628D02*
X0127393Y0212628D01*
X0127393Y0211829D02*
X0119636Y0211829D01*
X0119636Y0211031D02*
X0127393Y0211031D01*
X0127393Y0210232D02*
X0119636Y0210232D01*
X0119636Y0209434D02*
X0127393Y0209434D01*
X0127393Y0208635D02*
X0119636Y0208635D01*
X0119636Y0207837D02*
X0127393Y0207837D01*
X0127393Y0207038D02*
X0119636Y0207038D01*
X0119636Y0206240D02*
X0127393Y0206240D01*
X0127393Y0205441D02*
X0119636Y0205441D01*
X0119636Y0204643D02*
X0127393Y0204643D01*
X0127393Y0203844D02*
X0119503Y0203844D01*
X0127393Y0203045D02*
X0084637Y0203045D01*
X0084757Y0202247D02*
X0127393Y0202247D01*
X0127830Y0201448D02*
X0084878Y0201448D01*
X0084998Y0200650D02*
X0181848Y0200650D01*
X0181848Y0201448D02*
X0172670Y0201448D01*
X0173107Y0202247D02*
X0181948Y0202247D01*
X0182194Y0203045D02*
X0173107Y0203045D01*
X0173107Y0203844D02*
X0182440Y0203844D01*
X0182687Y0204643D02*
X0173107Y0204643D01*
X0173107Y0205441D02*
X0182933Y0205441D01*
X0183179Y0206240D02*
X0173107Y0206240D01*
X0173107Y0207038D02*
X0183591Y0207038D01*
X0184135Y0207837D02*
X0173107Y0207837D01*
X0173107Y0208635D02*
X0184680Y0208635D01*
X0185224Y0209434D02*
X0173107Y0209434D01*
X0173107Y0210232D02*
X0185768Y0210232D01*
X0186539Y0211031D02*
X0173107Y0211031D01*
X0173107Y0211829D02*
X0187541Y0211829D01*
X0188542Y0212628D02*
X0173107Y0212628D01*
X0162433Y0212628D02*
X0138067Y0212628D01*
X0138067Y0211829D02*
X0162433Y0211829D01*
X0162433Y0211031D02*
X0138067Y0211031D01*
X0138067Y0210232D02*
X0162433Y0210232D01*
X0162433Y0209434D02*
X0138067Y0209434D01*
X0138067Y0208635D02*
X0162433Y0208635D01*
X0162433Y0207837D02*
X0138067Y0207837D01*
X0138067Y0207038D02*
X0162433Y0207038D01*
X0162433Y0206240D02*
X0138067Y0206240D01*
X0138067Y0205441D02*
X0162433Y0205441D01*
X0162433Y0204643D02*
X0138067Y0204643D01*
X0138067Y0203844D02*
X0162433Y0203844D01*
X0162433Y0203045D02*
X0138067Y0203045D01*
X0138067Y0202247D02*
X0162433Y0202247D01*
X0162869Y0201448D02*
X0137631Y0201448D01*
X0142920Y0197456D02*
X0157580Y0197456D01*
X0156781Y0196657D02*
X0143719Y0196657D01*
X0143860Y0195859D02*
X0156640Y0195859D01*
X0156640Y0195060D02*
X0143860Y0195060D01*
X0143488Y0194262D02*
X0157012Y0194262D01*
X0157810Y0193463D02*
X0142690Y0193463D01*
X0143859Y0191068D02*
X0144043Y0191068D01*
X0144043Y0190269D02*
X0143859Y0190269D01*
X0143859Y0189471D02*
X0144043Y0189471D01*
X0144043Y0188672D02*
X0143859Y0188672D01*
X0143859Y0187874D02*
X0144043Y0187874D01*
X0144043Y0187075D02*
X0143859Y0187075D01*
X0143859Y0186277D02*
X0144043Y0186277D01*
X0144043Y0185478D02*
X0143859Y0185478D01*
X0143859Y0184680D02*
X0144043Y0184680D01*
X0144043Y0183881D02*
X0143859Y0183881D01*
X0143859Y0183083D02*
X0144043Y0183083D01*
X0144043Y0182284D02*
X0143859Y0182284D01*
X0143859Y0181486D02*
X0144043Y0181486D01*
X0144043Y0180687D02*
X0143859Y0180687D01*
X0143859Y0179889D02*
X0144043Y0179889D01*
X0144043Y0179090D02*
X0143859Y0179090D01*
X0143859Y0178292D02*
X0144043Y0178292D01*
X0144043Y0177493D02*
X0143859Y0177493D01*
X0143859Y0176695D02*
X0144043Y0176695D01*
X0134158Y0173501D02*
X0133842Y0173501D01*
X0127465Y0173501D02*
X0120785Y0173501D01*
X0114408Y0173501D02*
X0114092Y0173501D01*
X0123079Y0164121D02*
X0123079Y0151292D01*
X0125047Y0151292D02*
X0125047Y0156075D01*
X0125047Y0158872D01*
X0126750Y0160575D01*
X0130654Y0160575D01*
X0127285Y0158329D02*
X0127049Y0158329D01*
X0126847Y0157530D02*
X0127584Y0157530D01*
X0126847Y0156732D02*
X0152916Y0156732D01*
X0152650Y0155933D02*
X0126847Y0155933D01*
X0126847Y0155135D02*
X0152650Y0155135D01*
X0152650Y0154336D02*
X0140124Y0154336D01*
X0140620Y0153538D02*
X0143932Y0153538D01*
X0142983Y0152739D02*
X0140620Y0152739D01*
X0140620Y0151941D02*
X0142454Y0151941D01*
X0142123Y0151142D02*
X0140620Y0151142D01*
X0140620Y0150344D02*
X0142086Y0150344D01*
X0142107Y0149545D02*
X0140620Y0149545D01*
X0140620Y0148747D02*
X0142438Y0148747D01*
X0142945Y0147948D02*
X0139826Y0147948D01*
X0145717Y0144904D02*
X0145717Y0151542D01*
X0147568Y0153538D02*
X0152867Y0153538D01*
X0153197Y0152739D02*
X0148517Y0152739D01*
X0149046Y0151941D02*
X0153672Y0151941D01*
X0154470Y0151142D02*
X0149377Y0151142D01*
X0149414Y0150344D02*
X0155845Y0150344D01*
X0155215Y0149545D02*
X0149393Y0149545D01*
X0149062Y0148747D02*
X0154209Y0148747D01*
X0153420Y0147948D02*
X0148555Y0147948D01*
X0147750Y0147150D02*
X0153089Y0147150D01*
X0152758Y0146351D02*
X0147750Y0146351D01*
X0148908Y0145553D02*
X0152650Y0145553D01*
X0152650Y0144754D02*
X0149085Y0144754D01*
X0149085Y0143956D02*
X0152693Y0143956D01*
X0153004Y0143157D02*
X0149046Y0143157D01*
X0149085Y0142359D02*
X0150572Y0142359D01*
X0151507Y0140465D02*
X0145717Y0140465D01*
X0145716Y0142433D02*
X0145716Y0142433D01*
X0145717Y0144402D02*
X0145717Y0144904D01*
X0145717Y0138496D02*
X0157539Y0138496D01*
X0161734Y0134559D02*
X0165250Y0138075D01*
X0167820Y0138075D01*
X0167652Y0132591D02*
X0145717Y0132591D01*
X0145717Y0134559D02*
X0161734Y0134559D01*
X0154941Y0130575D02*
X0154894Y0130622D01*
X0145717Y0130622D01*
X0145717Y0128654D02*
X0175440Y0128654D01*
X0175519Y0128575D01*
X0175750Y0123825D02*
X0178750Y0120825D01*
X0178750Y0114325D01*
X0176923Y0112498D01*
X0176862Y0112437D02*
X0172693Y0112437D01*
X0172693Y0110862D02*
X0179800Y0110862D01*
X0181364Y0108821D02*
X0175668Y0108821D01*
X0175668Y0108023D02*
X0182121Y0108023D01*
X0183619Y0107224D02*
X0175668Y0107224D01*
X0175668Y0107713D02*
X0175067Y0107713D01*
X0175668Y0107713D01*
X0175067Y0107713D02*
X0175066Y0107713D01*
X0175067Y0107713D01*
X0175668Y0106426D02*
X0189174Y0106426D01*
X0189972Y0107224D02*
X0185381Y0107224D01*
X0186879Y0108023D02*
X0190771Y0108023D01*
X0191569Y0108821D02*
X0187636Y0108821D01*
X0187966Y0109620D02*
X0192150Y0109620D01*
X0192150Y0110418D02*
X0188164Y0110418D01*
X0188164Y0111217D02*
X0192150Y0111217D01*
X0192150Y0112015D02*
X0187973Y0112015D01*
X0187642Y0112814D02*
X0192150Y0112814D01*
X0192150Y0113612D02*
X0186894Y0113612D01*
X0185417Y0114411D02*
X0192150Y0114411D01*
X0192150Y0115209D02*
X0180550Y0115209D01*
X0180550Y0114411D02*
X0183583Y0114411D01*
X0182106Y0113612D02*
X0180550Y0113612D01*
X0180550Y0116008D02*
X0192150Y0116008D01*
X0192150Y0116806D02*
X0180550Y0116806D01*
X0180550Y0117605D02*
X0192150Y0117605D01*
X0192150Y0118403D02*
X0180550Y0118403D01*
X0180550Y0119202D02*
X0192150Y0119202D01*
X0192150Y0120000D02*
X0185047Y0120000D01*
X0186155Y0120799D02*
X0192150Y0120799D01*
X0192150Y0121597D02*
X0186750Y0121597D01*
X0187081Y0122396D02*
X0192150Y0122396D01*
X0192150Y0123194D02*
X0187164Y0123194D01*
X0187164Y0123993D02*
X0192150Y0123993D01*
X0192150Y0124791D02*
X0186858Y0124791D01*
X0186416Y0125590D02*
X0192150Y0125590D01*
X0192150Y0126388D02*
X0185618Y0126388D01*
X0185106Y0127187D02*
X0182466Y0127187D01*
X0181668Y0127985D02*
X0183908Y0127985D01*
X0187894Y0127187D02*
X0192150Y0127187D01*
X0192150Y0127985D02*
X0189092Y0127985D01*
X0189724Y0128784D02*
X0192150Y0128784D01*
X0192150Y0129582D02*
X0190055Y0129582D01*
X0190164Y0130381D02*
X0192150Y0130381D01*
X0192150Y0131179D02*
X0190164Y0131179D01*
X0189885Y0131978D02*
X0192150Y0131978D01*
X0192150Y0132776D02*
X0189480Y0132776D01*
X0188681Y0133575D02*
X0191613Y0133575D01*
X0191282Y0134374D02*
X0179877Y0134374D01*
X0180675Y0135172D02*
X0191086Y0135172D01*
X0191086Y0135971D02*
X0181474Y0135971D01*
X0182272Y0136769D02*
X0191279Y0136769D01*
X0191610Y0137568D02*
X0183071Y0137568D01*
X0183869Y0138366D02*
X0192360Y0138366D01*
X0193842Y0139165D02*
X0184668Y0139165D01*
X0185466Y0139963D02*
X0194900Y0139963D01*
X0194900Y0140762D02*
X0190649Y0140762D01*
X0191448Y0141560D02*
X0194900Y0141560D01*
X0194900Y0142359D02*
X0192145Y0142359D01*
X0192476Y0143157D02*
X0194900Y0143157D01*
X0194900Y0143956D02*
X0192807Y0143956D01*
X0192850Y0144754D02*
X0194900Y0144754D01*
X0194900Y0145553D02*
X0192850Y0145553D01*
X0192742Y0146351D02*
X0194900Y0146351D01*
X0194900Y0147150D02*
X0192411Y0147150D01*
X0192080Y0147948D02*
X0194900Y0147948D01*
X0194900Y0148747D02*
X0191291Y0148747D01*
X0190285Y0149545D02*
X0194900Y0149545D01*
X0194900Y0150344D02*
X0189655Y0150344D01*
X0191030Y0151142D02*
X0194900Y0151142D01*
X0194457Y0151941D02*
X0191828Y0151941D01*
X0184319Y0133575D02*
X0179078Y0133575D01*
X0178280Y0132776D02*
X0183520Y0132776D01*
X0175750Y0123825D02*
X0172500Y0123825D01*
X0169640Y0126685D01*
X0145717Y0126685D01*
X0145717Y0124717D02*
X0149108Y0124717D01*
X0149500Y0124325D01*
X0149500Y0119856D01*
X0145717Y0121975D02*
X0145717Y0122748D01*
X0142525Y0121597D02*
X0113475Y0121597D01*
X0113652Y0122396D02*
X0142348Y0122396D01*
X0142348Y0123194D02*
X0113652Y0123194D01*
X0113613Y0123993D02*
X0142348Y0123993D01*
X0142348Y0124791D02*
X0113652Y0124791D01*
X0113573Y0125590D02*
X0142348Y0125590D01*
X0142348Y0126388D02*
X0113652Y0126388D01*
X0113652Y0127187D02*
X0142348Y0127187D01*
X0142348Y0127985D02*
X0113652Y0127985D01*
X0113652Y0128784D02*
X0142348Y0128784D01*
X0142348Y0129582D02*
X0113652Y0129582D01*
X0116174Y0119202D02*
X0104800Y0119202D01*
X0112882Y0118403D02*
X0115380Y0118403D01*
X0119142Y0115858D02*
X0119142Y0112467D01*
X0115750Y0109075D01*
X0115750Y0106275D01*
X0113750Y0106426D02*
X0113368Y0106426D01*
X0113368Y0107224D02*
X0113871Y0107224D01*
X0113950Y0108023D02*
X0113368Y0108023D01*
X0119500Y0108825D02*
X0119500Y0106275D01*
X0119500Y0108825D02*
X0123079Y0112404D01*
X0123079Y0115858D01*
X0125047Y0115858D02*
X0125047Y0102361D01*
X0124654Y0102825D02*
X0124654Y0098743D01*
X0122754Y0099239D02*
X0117992Y0099239D01*
X0118791Y0100038D02*
X0121327Y0100038D01*
X0121285Y0100836D02*
X0119589Y0100836D01*
X0120388Y0101635D02*
X0121285Y0101635D01*
X0121285Y0102433D02*
X0121186Y0102433D01*
X0126844Y0099239D02*
X0129446Y0099239D01*
X0129446Y0098441D02*
X0127643Y0098441D01*
X0128150Y0097642D02*
X0129496Y0097642D01*
X0128020Y0100038D02*
X0127980Y0100038D01*
X0131500Y0102798D02*
X0131500Y0102956D01*
X0135250Y0108075D02*
X0138750Y0104575D01*
X0138750Y0101075D01*
X0139000Y0100825D01*
X0142309Y0099239D02*
X0143075Y0099239D01*
X0143075Y0100038D02*
X0142639Y0100038D01*
X0142664Y0100836D02*
X0143075Y0100836D01*
X0143075Y0101635D02*
X0142630Y0101635D01*
X0142300Y0102433D02*
X0143075Y0102433D01*
X0143048Y0103232D02*
X0141775Y0103232D01*
X0142249Y0104030D02*
X0140836Y0104030D01*
X0140550Y0104829D02*
X0141451Y0104829D01*
X0140652Y0105627D02*
X0140243Y0105627D01*
X0139854Y0106426D02*
X0139445Y0106426D01*
X0139055Y0107224D02*
X0138646Y0107224D01*
X0138257Y0108023D02*
X0137848Y0108023D01*
X0137458Y0108821D02*
X0137049Y0108821D01*
X0136660Y0109620D02*
X0136251Y0109620D01*
X0137250Y0111575D02*
X0134000Y0111575D01*
X0132921Y0112654D01*
X0132921Y0115858D01*
X0130953Y0116008D02*
X0130953Y0116008D01*
X0130953Y0116806D02*
X0130953Y0116806D01*
X0130953Y0117605D02*
X0130953Y0117605D01*
X0130953Y0118403D02*
X0130953Y0118403D01*
X0130953Y0119202D02*
X0130953Y0119202D01*
X0131625Y0119202D02*
X0131923Y0119202D01*
X0130281Y0119202D02*
X0129983Y0119202D01*
X0137250Y0111575D02*
X0144875Y0103950D01*
X0144875Y0099450D01*
X0147750Y0096575D01*
X0147910Y0096575D01*
X0147750Y0096735D01*
X0147910Y0096575D02*
X0159000Y0096575D01*
X0162063Y0099638D01*
X0162063Y0103382D01*
X0159307Y0105711D02*
X0159307Y0106138D01*
X0159250Y0106081D01*
X0159307Y0107713D02*
X0159521Y0107723D01*
X0167852Y0107723D01*
X0169937Y0105638D01*
X0169937Y0103382D01*
X0171731Y0103232D02*
X0185980Y0103232D01*
X0186778Y0104030D02*
X0171731Y0104030D01*
X0171731Y0102433D02*
X0185181Y0102433D01*
X0184383Y0101635D02*
X0171731Y0101635D01*
X0171339Y0100836D02*
X0183584Y0100836D01*
X0182786Y0100038D02*
X0163863Y0100038D01*
X0163863Y0099239D02*
X0181987Y0099239D01*
X0181189Y0098441D02*
X0163411Y0098441D01*
X0162613Y0097642D02*
X0168854Y0097642D01*
X0168056Y0096843D02*
X0161814Y0096843D01*
X0161016Y0096045D02*
X0167708Y0096045D01*
X0167708Y0095246D02*
X0160217Y0095246D01*
X0164862Y0093649D02*
X0150006Y0093649D01*
X0150804Y0094448D02*
X0165660Y0094448D01*
X0165168Y0093956D02*
X0165168Y0093956D01*
X0167594Y0094448D02*
X0168347Y0094448D01*
X0168704Y0094092D02*
X0168704Y0094092D01*
X0168397Y0093649D02*
X0168393Y0093649D01*
X0168704Y0090556D02*
X0168704Y0090556D01*
X0168804Y0090455D02*
X0167986Y0090455D01*
X0166431Y0089657D02*
X0172405Y0089657D01*
X0173203Y0090455D02*
X0171521Y0090455D01*
X0172320Y0091254D02*
X0174002Y0091254D01*
X0174800Y0092052D02*
X0172618Y0092052D01*
X0172618Y0092851D02*
X0175599Y0092851D01*
X0176398Y0093649D02*
X0174715Y0093649D01*
X0175514Y0094448D02*
X0177196Y0094448D01*
X0177995Y0095246D02*
X0176153Y0095246D01*
X0176153Y0096045D02*
X0178793Y0096045D01*
X0179592Y0096843D02*
X0175806Y0096843D01*
X0175007Y0097642D02*
X0180390Y0097642D01*
X0172682Y0093649D02*
X0171929Y0093649D01*
X0171622Y0094092D02*
X0171622Y0094092D01*
X0171606Y0088858D02*
X0166389Y0088858D01*
X0165590Y0088060D02*
X0170808Y0088060D01*
X0170009Y0087261D02*
X0165942Y0087261D01*
X0166431Y0086463D02*
X0169211Y0086463D01*
X0168412Y0085664D02*
X0166431Y0085664D01*
X0165932Y0084866D02*
X0167614Y0084866D01*
X0166815Y0084067D02*
X0165133Y0084067D01*
X0166017Y0083269D02*
X0160243Y0083269D01*
X0160001Y0082470D02*
X0165218Y0082470D01*
X0162818Y0084067D02*
X0161598Y0084067D01*
X0162517Y0084369D02*
X0162517Y0084369D01*
X0171472Y0097642D02*
X0172390Y0097642D01*
X0172239Y0097492D02*
X0172239Y0097492D01*
X0169937Y0100836D02*
X0169937Y0100836D01*
X0175332Y0104829D02*
X0187577Y0104829D01*
X0188375Y0105627D02*
X0175668Y0105627D01*
X0172693Y0114012D02*
X0172693Y0114437D01*
X0169937Y0116768D02*
X0169937Y0120090D01*
X0169937Y0118388D02*
X0169937Y0116768D01*
X0180550Y0120000D02*
X0181953Y0120000D01*
X0180845Y0120799D02*
X0180550Y0120799D01*
X0159307Y0112437D02*
X0156888Y0112437D01*
X0156250Y0113075D01*
X0156250Y0115325D01*
X0153000Y0111575D02*
X0153713Y0110862D01*
X0159307Y0110862D01*
X0159307Y0109288D02*
X0155000Y0109325D01*
X0152500Y0106575D01*
X0153000Y0111575D02*
X0153000Y0113542D01*
X0143339Y0098441D02*
X0141797Y0098441D01*
X0140889Y0097642D02*
X0144137Y0097642D01*
X0141420Y0090455D02*
X0138398Y0090455D01*
X0138237Y0089657D02*
X0141131Y0089657D01*
X0141131Y0082470D02*
X0138398Y0082470D01*
X0138398Y0081672D02*
X0141131Y0081672D01*
X0144100Y0079276D02*
X0144900Y0079276D01*
X0144900Y0078478D02*
X0144100Y0078478D01*
X0144100Y0077679D02*
X0144900Y0077679D01*
X0134170Y0080075D02*
X0133370Y0080075D01*
X0133370Y0079470D02*
X0133370Y0082911D01*
X0129141Y0082911D01*
X0129141Y0080686D01*
X0129237Y0080330D01*
X0129421Y0080011D01*
X0129682Y0079750D01*
X0130001Y0079566D01*
X0130357Y0079470D01*
X0133370Y0079470D01*
X0133370Y0080873D02*
X0134170Y0080873D01*
X0134170Y0081672D02*
X0133370Y0081672D01*
X0133370Y0082470D02*
X0134170Y0082470D01*
X0134170Y0084866D02*
X0133370Y0084866D01*
X0133370Y0085664D02*
X0134170Y0085664D01*
X0134170Y0086463D02*
X0133370Y0086463D01*
X0129141Y0082470D02*
X0126288Y0082470D01*
X0125490Y0081672D02*
X0129141Y0081672D01*
X0129141Y0080873D02*
X0123359Y0080873D01*
X0123143Y0080075D02*
X0129384Y0080075D01*
X0124350Y0089657D02*
X0123147Y0089657D01*
X0123359Y0090455D02*
X0124350Y0090455D01*
X0124350Y0091254D02*
X0123359Y0091254D01*
X0123359Y0092052D02*
X0124350Y0092052D01*
X0119130Y0092052D02*
X0118330Y0092052D01*
X0118330Y0091254D02*
X0119130Y0091254D01*
X0119130Y0090455D02*
X0118330Y0090455D01*
X0118330Y0089657D02*
X0119130Y0089657D01*
X0119130Y0094448D02*
X0118330Y0094448D01*
X0118330Y0095246D02*
X0119130Y0095246D01*
X0119130Y0096045D02*
X0118330Y0096045D01*
X0114318Y0080075D02*
X0113644Y0080075D01*
X0087609Y0117605D02*
X0081397Y0117605D01*
X0080599Y0118403D02*
X0086810Y0118403D01*
X0086012Y0119202D02*
X0079800Y0119202D01*
X0079002Y0120000D02*
X0085213Y0120000D01*
X0084415Y0120799D02*
X0078350Y0120799D01*
X0078350Y0121597D02*
X0083616Y0121597D01*
X0082818Y0122396D02*
X0078350Y0122396D01*
X0078812Y0123194D02*
X0082019Y0123194D01*
X0081800Y0123993D02*
X0079057Y0123993D01*
X0079057Y0124791D02*
X0081800Y0124791D01*
X0081800Y0125590D02*
X0079057Y0125590D01*
X0079057Y0126388D02*
X0081800Y0126388D01*
X0081800Y0127187D02*
X0078833Y0127187D01*
X0079057Y0127985D02*
X0081800Y0127985D01*
X0081800Y0128784D02*
X0079057Y0128784D01*
X0079057Y0129582D02*
X0081131Y0129582D01*
X0080333Y0130381D02*
X0079057Y0130381D01*
X0055529Y0116806D02*
X0055478Y0116806D01*
X0055507Y0154336D02*
X0055983Y0154336D01*
X0096100Y0154336D02*
X0100166Y0154336D01*
X0101530Y0153538D02*
X0096898Y0153538D01*
X0097697Y0152739D02*
X0102329Y0152739D01*
X0102813Y0151941D02*
X0098495Y0151941D01*
X0099294Y0151142D02*
X0102813Y0151142D01*
X0102813Y0150344D02*
X0100093Y0150344D01*
X0100891Y0149545D02*
X0102813Y0149545D01*
X0102813Y0148747D02*
X0101690Y0148747D01*
X0102460Y0147948D02*
X0102813Y0147948D01*
X0102813Y0147150D02*
X0102712Y0147150D01*
X0107649Y0144402D02*
X0110283Y0144402D01*
X0114219Y0153538D02*
X0115380Y0153538D01*
X0115876Y0154336D02*
X0113420Y0154336D01*
X0115375Y0159200D02*
X0118375Y0159200D01*
X0121110Y0156465D01*
X0121110Y0151292D01*
X0119096Y0155933D02*
X0104226Y0155933D01*
X0103834Y0156732D02*
X0118298Y0156732D01*
X0125047Y0156872D02*
X0125047Y0156075D01*
X0133723Y0157530D02*
X0134277Y0157530D01*
X0140416Y0157530D02*
X0153247Y0157530D01*
X0153791Y0158329D02*
X0140715Y0158329D01*
X0142726Y0159127D02*
X0154590Y0159127D01*
X0155061Y0160724D02*
X0144323Y0160724D01*
X0143525Y0159926D02*
X0156134Y0159926D01*
X0156556Y0160101D02*
X0156556Y0160101D01*
X0154090Y0161523D02*
X0145122Y0161523D01*
X0145920Y0162321D02*
X0153447Y0162321D01*
X0153023Y0163120D02*
X0146719Y0163120D01*
X0147517Y0163918D02*
X0152770Y0163918D01*
X0170283Y0169508D02*
X0175217Y0169508D01*
X0181848Y0199053D02*
X0085131Y0199053D01*
X0085118Y0199851D02*
X0181848Y0199851D01*
X0090197Y0203844D02*
X0084517Y0203844D01*
X0084264Y0204643D02*
X0090064Y0204643D01*
X0090064Y0205441D02*
X0083880Y0205441D01*
X0083495Y0206240D02*
X0090064Y0206240D01*
X0090064Y0207038D02*
X0083111Y0207038D01*
X0082726Y0207837D02*
X0090064Y0207837D01*
X0090064Y0208635D02*
X0082342Y0208635D01*
X0081607Y0209434D02*
X0090064Y0209434D01*
X0090064Y0210232D02*
X0080866Y0210232D01*
X0080125Y0211031D02*
X0090064Y0211031D01*
X0090064Y0211829D02*
X0079384Y0211829D01*
X0078325Y0212628D02*
X0090064Y0212628D01*
X0203036Y0085664D02*
X0211334Y0085664D01*
X0211334Y0084866D02*
X0204997Y0084866D01*
X0206380Y0084067D02*
X0211333Y0084067D01*
X0211333Y0083269D02*
X0207763Y0083269D01*
X0208719Y0082470D02*
X0211332Y0082470D01*
X0211332Y0081672D02*
X0209460Y0081672D01*
X0210200Y0080873D02*
X0211331Y0080873D01*
X0211331Y0080075D02*
X0210941Y0080075D01*
D30*
X0187750Y0155075D02*
X0177750Y0155075D01*
X0167750Y0155075D01*
X0157750Y0155075D01*
X0179616Y0175941D02*
X0182500Y0178825D01*
X0182500Y0184325D01*
X0182750Y0184575D01*
X0130654Y0170575D02*
X0122873Y0170575D01*
X0123079Y0170370D01*
X0123079Y0164121D01*
X0122873Y0170575D02*
X0117596Y0170575D01*
X0117596Y0168979D01*
X0110904Y0170575D02*
X0110804Y0177629D01*
X0108700Y0178325D01*
X0102881Y0171575D02*
X0102881Y0194025D01*
X0098944Y0194025D02*
X0098944Y0188119D01*
X0094200Y0183375D01*
X0094200Y0171075D01*
X0106819Y0190383D02*
X0106819Y0194025D01*
X0098846Y0114921D02*
X0093500Y0111075D01*
X0095047Y0111028D01*
X0097250Y0088479D02*
X0097250Y0081959D01*
X0107250Y0080729D02*
X0107596Y0081075D01*
X0111250Y0081075D01*
X0113486Y0083311D01*
X0118730Y0083311D01*
D31*
X0094250Y0065825D02*
X0087750Y0072325D01*
X0087750Y0107575D01*
X0075750Y0119575D01*
X0075750Y0124451D01*
X0075000Y0125201D01*
X0098846Y0114921D02*
X0099096Y0115171D01*
X0101500Y0115171D01*
X0110000Y0115171D01*
X0094250Y0065825D02*
X0152250Y0065825D01*
X0194750Y0108325D01*
X0194750Y0134274D01*
X0197500Y0137024D01*
X0197500Y0152575D01*
X0195000Y0155075D01*
X0187750Y0155075D01*
X0194750Y0135575D02*
X0194750Y0134274D01*
D32*
X0186500Y0130575D02*
X0175712Y0130575D01*
X0175519Y0128575D02*
X0178250Y0128575D01*
X0183500Y0123325D01*
X0174500Y0118825D02*
X0172693Y0117018D01*
X0172693Y0114437D01*
X0169937Y0120090D02*
X0169937Y0121638D01*
X0168750Y0122825D01*
X0165500Y0122825D01*
X0162000Y0122825D01*
X0156250Y0117075D01*
X0156250Y0115325D01*
X0153000Y0113542D02*
X0153000Y0119440D01*
X0155000Y0121440D01*
X0155000Y0122075D01*
X0149500Y0119856D02*
X0149500Y0116166D01*
X0147250Y0113916D01*
X0147250Y0112325D01*
X0142000Y0110772D02*
X0142000Y0116250D01*
X0144505Y0118755D01*
X0144505Y0118830D01*
X0145717Y0120042D01*
X0145717Y0121975D01*
X0142000Y0110772D02*
X0147500Y0105272D01*
X0147500Y0103325D01*
X0150250Y0100575D01*
X0154500Y0100575D01*
X0159307Y0105382D01*
X0159307Y0105711D01*
X0179800Y0110862D02*
X0184463Y0110862D01*
X0184500Y0110825D01*
X0175266Y0132591D02*
X0167652Y0132591D01*
X0167820Y0138075D02*
X0170750Y0138075D01*
X0177750Y0145075D01*
X0167750Y0145075D02*
X0161171Y0138496D01*
X0157539Y0138496D01*
X0153140Y0140465D02*
X0157750Y0145075D01*
X0153140Y0140465D02*
X0151507Y0140465D01*
X0145750Y0144937D02*
X0145717Y0144904D01*
X0145750Y0144937D02*
X0145750Y0150325D01*
X0158849Y0173311D02*
X0176986Y0173311D01*
X0179616Y0175941D01*
X0158849Y0173311D02*
X0156549Y0175611D01*
X0156549Y0183764D01*
X0187750Y0145075D02*
X0175266Y0132591D01*
X0119500Y0106275D02*
X0119500Y0103575D01*
X0117000Y0101075D01*
X0111250Y0101075D01*
X0105500Y0095325D01*
X0097404Y0095325D01*
X0097250Y0095171D01*
X0103250Y0101575D02*
X0106000Y0104325D01*
X0114750Y0104325D01*
X0115750Y0105325D01*
X0115750Y0106275D01*
X0116749Y0151292D02*
X0116716Y0151325D01*
X0111250Y0151325D01*
D33*
X0117593Y0144918D02*
X0138907Y0144918D01*
X0139205Y0144620D02*
X0117295Y0144620D01*
X0116996Y0144321D02*
X0139504Y0144321D01*
X0139802Y0144023D02*
X0116698Y0144023D01*
X0116500Y0143825D02*
X0116500Y0123325D01*
X0118000Y0121825D01*
X0138500Y0121825D01*
X0140000Y0123325D01*
X0140000Y0143825D01*
X0138500Y0145325D01*
X0118000Y0145325D01*
X0116500Y0143825D01*
X0116500Y0143724D02*
X0140000Y0143724D01*
X0140000Y0143426D02*
X0116500Y0143426D01*
X0116500Y0143127D02*
X0140000Y0143127D01*
X0140000Y0142829D02*
X0116500Y0142829D01*
X0116500Y0142530D02*
X0140000Y0142530D01*
X0140000Y0142232D02*
X0116500Y0142232D01*
X0116500Y0141933D02*
X0140000Y0141933D01*
X0140000Y0141635D02*
X0116500Y0141635D01*
X0116500Y0141336D02*
X0140000Y0141336D01*
X0140000Y0141038D02*
X0116500Y0141038D01*
X0116500Y0140739D02*
X0140000Y0140739D01*
X0140000Y0140441D02*
X0116500Y0140441D01*
X0116500Y0140142D02*
X0140000Y0140142D01*
X0140000Y0139844D02*
X0116500Y0139844D01*
X0116500Y0139545D02*
X0140000Y0139545D01*
X0140000Y0139247D02*
X0116500Y0139247D01*
X0116500Y0138948D02*
X0140000Y0138948D01*
X0140000Y0138650D02*
X0116500Y0138650D01*
X0116500Y0138351D02*
X0140000Y0138351D01*
X0140000Y0138053D02*
X0116500Y0138053D01*
X0116500Y0137754D02*
X0140000Y0137754D01*
X0140000Y0137456D02*
X0116500Y0137456D01*
X0116500Y0137157D02*
X0140000Y0137157D01*
X0140000Y0136859D02*
X0116500Y0136859D01*
X0116500Y0136560D02*
X0140000Y0136560D01*
X0140000Y0136262D02*
X0116500Y0136262D01*
X0116500Y0135963D02*
X0140000Y0135963D01*
X0140000Y0135665D02*
X0116500Y0135665D01*
X0116500Y0135366D02*
X0140000Y0135366D01*
X0140000Y0135068D02*
X0116500Y0135068D01*
X0116500Y0134769D02*
X0140000Y0134769D01*
X0140000Y0134471D02*
X0116500Y0134471D01*
X0116500Y0134172D02*
X0140000Y0134172D01*
X0140000Y0133874D02*
X0116500Y0133874D01*
X0116500Y0133575D02*
X0140000Y0133575D01*
X0140000Y0133276D02*
X0116500Y0133276D01*
X0116500Y0132978D02*
X0140000Y0132978D01*
X0140000Y0132679D02*
X0116500Y0132679D01*
X0116500Y0132381D02*
X0140000Y0132381D01*
X0140000Y0132082D02*
X0116500Y0132082D01*
X0116500Y0131784D02*
X0140000Y0131784D01*
X0140000Y0131485D02*
X0116500Y0131485D01*
X0116500Y0131187D02*
X0140000Y0131187D01*
X0140000Y0130888D02*
X0116500Y0130888D01*
X0116500Y0130590D02*
X0140000Y0130590D01*
X0140000Y0130291D02*
X0116500Y0130291D01*
X0116500Y0129993D02*
X0140000Y0129993D01*
X0140000Y0129694D02*
X0116500Y0129694D01*
X0116500Y0129396D02*
X0140000Y0129396D01*
X0140000Y0129097D02*
X0116500Y0129097D01*
X0116500Y0128799D02*
X0140000Y0128799D01*
X0140000Y0128500D02*
X0116500Y0128500D01*
X0116500Y0128202D02*
X0140000Y0128202D01*
X0140000Y0127903D02*
X0116500Y0127903D01*
X0116500Y0127605D02*
X0140000Y0127605D01*
X0140000Y0127306D02*
X0116500Y0127306D01*
X0116500Y0127008D02*
X0140000Y0127008D01*
X0140000Y0126709D02*
X0116500Y0126709D01*
X0116500Y0126411D02*
X0140000Y0126411D01*
X0140000Y0126112D02*
X0116500Y0126112D01*
X0116500Y0125814D02*
X0140000Y0125814D01*
X0140000Y0125515D02*
X0116500Y0125515D01*
X0116500Y0125217D02*
X0140000Y0125217D01*
X0140000Y0124918D02*
X0116500Y0124918D01*
X0116500Y0124620D02*
X0140000Y0124620D01*
X0140000Y0124321D02*
X0116500Y0124321D01*
X0116500Y0124023D02*
X0140000Y0124023D01*
X0140000Y0123724D02*
X0116500Y0123724D01*
X0116500Y0123426D02*
X0140000Y0123426D01*
X0139802Y0123127D02*
X0116698Y0123127D01*
X0116996Y0122829D02*
X0139504Y0122829D01*
X0139205Y0122530D02*
X0117295Y0122530D01*
X0117593Y0122232D02*
X0138907Y0122232D01*
X0138608Y0121933D02*
X0117892Y0121933D01*
X0117892Y0145217D02*
X0138608Y0145217D01*
D34*
X0154941Y0130575D02*
X0175712Y0130575D01*
X0133770Y0096055D02*
X0133770Y0092839D01*
X0133770Y0096055D02*
X0131500Y0098325D01*
X0131346Y0098479D01*
X0131346Y0102825D01*
X0125047Y0102992D02*
X0124654Y0102598D01*
X0124654Y0098743D01*
X0126250Y0097146D01*
X0126250Y0085119D01*
X0124442Y0083311D01*
X0118730Y0083311D01*
X0118648Y0083979D01*
D35*
X0133770Y0092839D02*
X0142486Y0092839D01*
X0144500Y0090825D01*
X0144500Y0087421D01*
X0098546Y0121368D02*
X0096585Y0119407D01*
X0088918Y0119407D01*
X0084000Y0124325D01*
X0084000Y0129825D01*
X0080750Y0133075D01*
X0075000Y0133075D01*
X0075000Y0137012D02*
X0083813Y0137012D01*
X0087250Y0133575D01*
X0087250Y0126325D01*
X0089750Y0123825D01*
X0095250Y0123825D01*
X0097442Y0126017D01*
X0096705Y0130622D02*
X0092797Y0130622D01*
X0092617Y0129537D01*
X0097103Y0134222D02*
X0090313Y0141012D01*
X0075000Y0141012D01*
X0075000Y0145012D02*
X0091063Y0145012D01*
X0098362Y0137713D01*
X0099163Y0141912D02*
X0092063Y0149012D01*
X0075000Y0149012D01*
X0075124Y0152825D02*
X0094500Y0152825D01*
X0100260Y0147065D01*
X0101634Y0155980D02*
X0094200Y0163414D01*
X0094200Y0171075D01*
X0102881Y0171575D02*
X0102881Y0168694D01*
X0112375Y0159200D01*
X0115375Y0159200D01*
X0137346Y0160575D02*
X0141063Y0160575D01*
X0153400Y0172912D01*
X0153400Y0183764D01*
X0150250Y0183764D02*
X0150250Y0176325D01*
X0144500Y0170575D01*
X0137346Y0170575D01*
X0119800Y0184975D02*
X0119200Y0184375D01*
X0109344Y0184375D01*
X0108237Y0185482D01*
X0108193Y0185482D01*
X0106819Y0186856D01*
X0106819Y0190383D01*
X0075000Y0152949D02*
X0075124Y0152825D01*
D36*
X0098362Y0137713D02*
X0101516Y0134559D01*
X0110283Y0134559D01*
X0110283Y0132591D02*
X0098734Y0132591D01*
X0097103Y0134222D01*
X0100079Y0128654D02*
X0099000Y0127575D01*
X0100079Y0128654D02*
X0110283Y0128654D01*
X0110283Y0140465D02*
X0100610Y0140465D01*
X0099163Y0141912D01*
X0100260Y0147065D02*
X0104892Y0142433D01*
X0110283Y0142433D01*
M02*
