%
M48
M72
T01C0.01181
T02C0.03543
T03C0.04000
T04C0.11811
%
T01
X184500Y110825
X183500Y123325
X186500Y130575
X194750Y135575
X174500Y118825
X165500Y122825
X155000Y122075
X147250Y112325
X152500Y106575
X147750Y96575
X139000Y100825
X103250Y101575
X93500Y111075
X92617Y129537
X111250Y151325
X108700Y178325
X119800Y184975
X182750Y184575
X145750Y150325
T02
X141589Y195575
X158911Y195575
T03
X187750Y145075
X187750Y155075
X187750Y165075
X177750Y165075
X167750Y165075
X167750Y155075
X177750Y155075
X177750Y145075
X167750Y145075
X157750Y145075
X157750Y155075
X157750Y165075
T04
X198000Y70180
X68825Y70165
X198065Y199480
X68785Y199410
M30
